<?xml version="1.0" standalone="no"?>
<!DOCTYPE svg PUBLIC "-//W3C//DTD SVG 1.1//EN" "http://www.w3.org/Graphics/SVG/1.1/DTD/svg11.dtd" >
<svg>
<metadata>
Created by FontForge 20090914 at Fri Aug  5 18:53:07 2022
 By www-data
Copyright (c) 1989, 1993 Adobe Systems Incorporated.  All Rights Reserved.Akzidenz Grotesk is a registered trademark of Berthold.
</metadata>
<defs>
<font id="AkzidenzGrotesk-Light" horiz-adv-x="500" >
  <font-face 
    font-family="AkzidenzGrotesk"
    font-weight="300"
    font-stretch="normal"
    units-per-em="1000"
    panose-1="2 0 5 6 3 0 0 2 0 3"
    ascent="800"
    descent="-200"
    x-height="480"
    cap-height="712"
    bbox="-165 -248.003 1031 931"
    underline-thickness="50"
    underline-position="-50"
    unicode-range="U+0005-U+2122"
  />
<missing-glyph horiz-adv-x="278" 
 />
    <glyph glyph-name=".notdef" horiz-adv-x="278" 
 />
    <glyph glyph-name="breve" horiz-adv-x="185" 
d="M-13 690c6 -29.333 18 -50.333 36 -63s41 -19 69 -19c28.667 0 52 6.33301 70 19s30 33.667 36 63h39c-0.666992 -10 -3.66699 -22.167 -9 -36.5s-13.833 -28.166 -25.5 -41.499s-26.5 -24.666 -44.5 -33.999s-40 -14 -66 -14c-25.333 0 -47 4.66699 -65 14
s-32.833 20.666 -44.5 33.999s-20.167 27.166 -25.5 41.499s-8.33301 26.5 -9 36.5h39z" />
    <glyph glyph-name="dotaccent" horiz-adv-x="185" 
d="M63 670h60v-102h-60v102z" />
    <glyph glyph-name="ring" horiz-adv-x="185" 
d="M25 644c0 -18.667 6.5 -34.5 19.5 -47.5s28.833 -19.5 47.5 -19.5s34.667 6.5 48 19.5s20 28.833 20 47.5c0 19.333 -6.66699 35.5 -20 48.5s-29.333 19.5 -48 19.5s-34.5 -6.5 -47.5 -19.5s-19.5 -29.167 -19.5 -48.5zM-7 644c0 28 9.5 51.667 28.5 71s42.5 29 70.5 29
s51.667 -9.66699 71 -29s29 -43 29 -71c0 -13.333 -2.66699 -26 -8 -38s-12.5 -22.5 -21.5 -31.5s-19.5 -16.167 -31.5 -21.5s-25 -8 -39 -8s-27 2.66699 -39 8s-22.5 12.5 -31.5 21.5s-16 19.5 -21 31.5s-7.5 24.667 -7.5 38z" />
    <glyph glyph-name="hungarumlaut" unicode="&#xa;" horiz-adv-x="185" 
d="M74 697h77l-137 -139h-51zM209 697h77l-137 -139h-51z" />
    <glyph glyph-name="ogonek" horiz-adv-x="185" 
d="M301 5c-6 -4 -13.835 -9.66602 -23.502 -16.999s-19.334 -15.5 -29.001 -24.5s-18 -18.5 -25 -28.5s-10.5 -19.333 -10.5 -28c0 -12.667 2.83301 -23 8.5 -31s12.834 -13.833 21.501 -17.5s18.334 -5.33398 29.001 -5.00098s21 2.5 31 6.5v-36c-16 -6 -33 -9 -51 -9
c-12.667 0 -24.667 1.33301 -36 4s-21.333 7 -30 13s-15.667 14 -21 24s-8 22 -8 36c0 12.667 3.16699 24.5 9.5 35.5s14.333 21.167 24 30.5s20.334 18 32.001 26s23.167 15 34.5 21h44z" />
    <glyph glyph-name="caron" horiz-adv-x="185" 
d="M174 697h65l-114 -139h-67l-112 139h64l82 -102z" />
    <glyph glyph-name="dotlessi" unicode="&#xd;" horiz-adv-x="186" 
d="M63 480h60v-480h-60v480z" />
    <glyph glyph-name="fraction" horiz-adv-x="167" 
d="M-165 -18l441 748h56l-442 -748h-55z" />
    <glyph glyph-name="fi" horiz-adv-x="463" 
d="M118 430l-104.999 0.000976562v50h105v160c0 32 10.667 55 32 69s48.666 21 81.999 21c7.33301 0 16.833 -0.666992 28.5 -2s21.167 -4 28.5 -8v-57c-6 3.33301 -13.333 6 -22 8s-19.667 3 -33 3c-18.667 0 -32.667 -5.83301 -42 -17.5s-14 -30.834 -14 -57.501v-119h105
v-50h-105v-430h-60v430zM340.001 480.001h60v-480h-60v480zM340.001 678.001h60v-94h-60v94z" />
    <glyph glyph-name="fl" horiz-adv-x="463" 
d="M118 430l-104.999 0.000976562v50h105v160c0 32 10.667 55 32 69s48.666 21 81.999 21c7.33301 0 16.833 -0.666992 28.5 -2s21.167 -4 28.5 -8v-57c-6 3.33301 -13.333 6 -22 8s-19.667 3 -33 3c-18.667 0 -32.667 -5.83301 -42 -17.5s-14 -30.834 -14 -57.501v-119h105
v-50h-105v-430h-60v430zM340.001 712.001h60v-712h-60v712z" />
    <glyph glyph-name="Lslash" horiz-adv-x="556" 
d="M80 299l-61 -36v56l61 36v357h68v-317l199 117v-56l-199 -117v-277h393v-62h-461v299z" />
    <glyph glyph-name="lslash" horiz-adv-x="186" 
d="M63 356l-64 -47v52l64 47v304h60v-261l64 47v-52l-64 -47v-399h-60v356z" />
    <glyph glyph-name="Zcaron" horiz-adv-x="574" 
d="M47 712h503v-44l-431 -606h427v-62h-522v44l431 606h-408v62zM369 894h65l-114 -139h-67l-112 139h64l82 -102z" />
    <glyph glyph-name="zcaron" horiz-adv-x="370" 
d="M272 430h-240v50h324v-33l-267 -397h271v-50h-350v41zM267 697h65l-114 -139h-67l-112 139h64l82 -102z" />
    <glyph glyph-name="space" unicode=" " horiz-adv-x="278" 
 />
    <glyph glyph-name="space" unicode="&#xa0;" horiz-adv-x="278" 
 />
    <glyph glyph-name="exclam" unicode="!" horiz-adv-x="278" 
d="M173 712v-383l-9 -160h-50l-9 160v383h68zM101 116h76v-116h-76v116z" />
    <glyph glyph-name="quotedbl" unicode="&#x22;" horiz-adv-x="315" 
d="M77 712h50v-274h-50v274zM188 712h50v-274h-50v274z" />
    <glyph glyph-name="numbersign" unicode="#" horiz-adv-x="556" 
d="M141 233h-114v44h120l22 159h-114v44h120l32 232h50l-32 -232h140l32 232h50l-32 -232h114v-44h-120l-22 -159h114v-44h-120l-32 -233h-50l32 233h-140l-32 -233h-50zM359 436h-140l-22 -159h140z" />
    <glyph glyph-name="dollar" unicode="$" horiz-adv-x="556" 
d="M68 182c6.66699 -16.667 16.168 -32.6641 28.501 -47.9971s26.333 -29 42 -41s32.5 -21.833 50.5 -29.5s36 -12.167 54 -13.5v300c-30 8.66699 -57.333 18.167 -82 28.5s-46 22.833 -64 37.5s-32 32.167 -42 52.5s-15 45.166 -15 74.499c0 33.333 6.83301 61.5 20.5 84.5
s30.667 41.5 51 55.5s42.333 24.333 66 31s45.5 10 65.5 10v66h60v-66c53.333 -6 97.166 -21.667 131.499 -47s60.166 -67 77.499 -125l-73 -5c-5.33301 14.667 -12 28.667 -20 42s-17.667 25.166 -29 35.499s-24.166 18.833 -38.499 25.5s-30.5 10.667 -48.5 12v-259
c36.667 -11.333 69.667 -22.333 99 -33s54.166 -23.667 74.499 -39s35.833 -34 46.5 -56s16 -50 16 -84c0 -30.667 -6.83301 -58.5 -20.5 -83.5s-31.667 -46.333 -54 -64s-47.666 -31.334 -75.999 -41.001s-56.833 -14.5 -85.5 -14.5v-97h-60v97
c-28.667 0 -56 5.16699 -82 15.5s-49.833 24.333 -71.5 42s-40.667 37.667 -57 60s-28.833 45.5 -37.5 69.5zM243.001 662.003c-14.667 0 -30 -2.33301 -46 -7s-30.5 -11.5 -43.5 -20.5s-23.833 -20.333 -32.5 -34s-13 -30.167 -13 -49.5c0 -21.333 4 -39.166 12 -53.499
s18.5 -26.5 31.5 -36.5s27.5 -18.333 43.5 -25s32 -12.334 48 -17.001v243zM303.001 50.0029c15.333 0 32.668 2.16992 52.001 6.50293s37.666 11.833 54.999 22.5s31.833 25.167 43.5 43.5s17.5 41.166 17.5 68.499c0 23.333 -5 42.666 -15 57.999s-23 28.166 -39 38.499
s-34 19 -54 26s-40 13.5 -60 19.5v-283z" />
    <glyph glyph-name="percent" unicode="%" horiz-adv-x="889" 
d="M249 724c25.333 0 47.1621 -5.66699 65.4951 -17s33.333 -25.833 45 -43.5s20.334 -37.667 26.001 -60s8.5 -44.5 8.5 -66.5s-2.66699 -44.167 -8 -66.5s-13.666 -42.5 -24.999 -60.5s-26.166 -32.5 -44.499 -43.5s-40.5 -16.5 -66.5 -16.5h-2
c-26 0 -48.167 5.5 -66.5 16.5s-33.166 25.5 -44.499 43.5s-19.666 38.167 -24.999 60.5s-8 44.5 -8 66.5s2.83301 44.167 8.5 66.5s14.334 42.333 26.001 60s26.667 32.167 45 43.5s40.166 17 65.499 17zM248.996 400c20 0 36.166 4.33301 48.499 13s22 19.667 29 33
s11.667 28 14 44s3.5 31.667 3.5 47c0 14.667 -1.16699 30.167 -3.5 46.5s-7 31.166 -14 44.499s-16.667 24.333 -29 33s-28.5 13 -48.5 13s-36.167 -4.33301 -48.5 -13s-22 -19.667 -29 -33s-11.667 -28.166 -14 -44.499s-3.5 -31.833 -3.5 -46.5
c0 -15.333 1.33301 -31 4 -47s7.33398 -30.667 14.001 -44s16.167 -24.333 28.5 -33s28.5 -13 48.5 -13zM639.995 362c25.333 0 47.1621 -5.66699 65.4951 -17s33.333 -25.833 45 -43.5s20.334 -37.667 26.001 -60s8.5 -44.5 8.5 -66.5s-2.66699 -44.167 -8 -66.5
s-13.666 -42.5 -24.999 -60.5s-26.166 -32.5 -44.499 -43.5s-40.5 -16.5 -66.5 -16.5h-2c-26 0 -48.167 5.5 -66.5 16.5s-33.166 25.5 -44.499 43.5s-19.666 38.167 -24.999 60.5s-8 44.5 -8 66.5s2.83301 44.167 8.5 66.5s14.334 42.333 26.001 60s26.667 32.167 45 43.5
s40.166 17 65.499 17zM639.991 38c20 0 36.166 4.33301 48.499 13s22 19.667 29 33s11.667 28 14 44s3.5 31.667 3.5 47c0 14.667 -1.16699 30.167 -3.5 46.5s-7 31.166 -14 44.499s-16.667 24.333 -29 33s-28.5 13 -48.5 13s-36.167 -4.33301 -48.5 -13
s-22 -19.667 -29 -33s-11.667 -28.166 -14 -44.499s-3.5 -31.833 -3.5 -46.5c0 -15.333 1.33301 -31 4 -47s7.33398 -30.667 14.001 -44s16.167 -24.333 28.5 -33s28.5 -13 48.5 -13zM654.99 722l-394 -758l-38 18l394 759z" />
    <glyph glyph-name="ampersand" unicode="&#x26;" horiz-adv-x="630" 
d="M552 316c-2.66699 -32 -7.5 -63.332 -14.5 -93.999s-19.167 -59.667 -36.5 -87l23 -28.5c8 -9.66699 16.5 -18.667 25.5 -27s19 -15.166 30 -20.499s23.167 -8.33301 36.5 -9v-62c-17.333 0 -33.166 2.33301 -47.499 7s-27.5 11.167 -39.5 19.5s-23.167 18 -33.5 29
l-31.5 34.5c-28.667 -30.667 -58.167 -53.334 -88.5 -68.001s-66.833 -22 -109.5 -22c-30.667 0 -59.5 4.83301 -86.5 14.5s-50.5 23.5 -70.5 41.5s-35.833 39.667 -47.5 65s-17.5 53.666 -17.5 84.999c0 26.667 5.33301 51.667 16 75s24.5 45 41.5 65
s36.333 38.167 58 54.5s43.5 30.5 65.5 42.5c-17.333 25.333 -31.333 49 -42 71s-16 49 -16 81c0 44 13 78.5 39 103.5s61 37.5 105 37.5c40.667 0 73.667 -11.167 99 -33.5s38 -54.166 38 -95.499c0 -22 -4 -41.833 -12 -59.5s-18.5 -33.834 -31.5 -48.501
s-27.667 -28.167 -44 -40.5l-48.5 -35.5c23.333 -39.333 47.666 -77.333 72.999 -114l76 -111c8.66699 20.667 15.5 42 20.5 64s8.5 44 10.5 66h60zM258 379.001l-53 -35.002c-17.333 -12 -33 -25.167 -47 -39.5s-25.167 -30.666 -33.5 -48.999s-12.5 -38.833 -12.5 -61.5
c0 -23.333 4.33301 -44.166 13 -62.499s20 -34 34 -47s30.333 -23 49 -30s38 -10.5 58 -10.5c33.333 0 63.5 7.33301 90.5 22s51.167 34.667 72.5 60c-32 40 -61.667 81.333 -89 124zM388 594.999c0 22.667 -7.5 40.5 -22.5 53.5s-33.167 19.5 -54.5 19.5
c-26 0 -46.5 -7.83301 -61.5 -23.5s-22.5 -36.167 -22.5 -61.5c0 -21.333 5.83301 -42.333 17.5 -63l33.5 -57l37.5 24c13 8.66699 24.833 18.167 35.5 28.5s19.5 22 26.5 35s10.5 27.833 10.5 44.5z" />
    <glyph glyph-name="quotesingle" unicode="'" horiz-adv-x="278" 
d="M114 712h50v-274h-50v274z" />
    <glyph glyph-name="parenleft" unicode="(" horiz-adv-x="296" 
d="M289 -188c-42 23.333 -78.1689 52.3291 -108.502 86.9961s-55.5 72.834 -75.5 114.501s-34.833 86 -44.5 133s-14.5 94.167 -14.5 141.5s4.66699 94.5 14 141.5s23.833 91.333 43.5 133s44.834 79.834 75.501 114.501s67.334 63.667 110.001 87v-52
c-33.333 -26 -61.166 -55.667 -83.499 -89s-40.333 -68.5 -54 -105.5s-23.334 -75.167 -29.001 -114.5s-8.5 -77.666 -8.5 -114.999s2.83301 -75.666 8.5 -114.999s15.334 -77.5 29.001 -114.5s31.667 -72.167 54 -105.5s50.166 -63 83.499 -89v-52z" />
    <glyph glyph-name="parenright" unicode=")" horiz-adv-x="296" 
d="M7 -136c33.333 26 61.168 55.6709 83.501 89.0039s40.333 68.5 54 105.5s23.334 75.167 29.001 114.5s8.5 77.666 8.5 114.999s-2.83301 75.666 -8.5 114.999s-15.334 77.5 -29.001 114.5s-31.667 72.167 -54 105.5s-50.166 63 -83.499 89v52
c42 -23.333 78.167 -52.333 108.5 -87s55.5 -72.834 75.5 -114.501s34.833 -86 44.5 -133s14.5 -94.167 14.5 -141.5s-4.66699 -94.5 -14 -141.5s-23.833 -91.333 -43.5 -133s-44.834 -79.834 -75.501 -114.501s-67.334 -63.667 -110.001 -87v52z" />
    <glyph glyph-name="asterisk" unicode="*" horiz-adv-x="278" 
d="M115 622l-3 90h54l-5 -90l86 30l12 -48l-87 -25l54 -68l-43 -27l-45 76l-46 -76l-43 27l55 70l-85 23l12 48z" />
    <glyph glyph-name="plus" unicode="+" horiz-adv-x="600" 
d="M275 506h50v-228h228v-50h-228v-228h-50v228h-228v50h228v228z" />
    <glyph glyph-name="comma" unicode="," horiz-adv-x="278" 
d="M101 116l76 0.000976562v-108c0 -6 -0.333008 -14.333 -1 -25s-2.66699 -23.167 -6 -37.5s-8.5 -30.333 -15.5 -48s-16.833 -36.167 -29.5 -55.5l-34 25c16 18.667 27.333 39.667 34 63s9.66699 46.666 9 69.999h-33v116z" />
    <glyph glyph-name="hyphen" unicode="-" horiz-adv-x="370" 
d="M45 232v62h280v-62h-280z" />
    <glyph glyph-name="period" unicode="." horiz-adv-x="278" 
d="M177 0h-76v116h76v-116z" />
    <glyph glyph-name="slash" unicode="/" horiz-adv-x="463" 
d="M397 730h53l-384 -748h-53z" />
    <glyph glyph-name="zero" unicode="0" horiz-adv-x="556" 
d="M95 356c0 -66 6.33301 -119.333 19 -160s28.334 -72.334 47.001 -95.001s38.5 -37.834 59.5 -45.501s40.167 -11.5 57.5 -11.5c16.667 0 35.667 3.83301 57 11.5s41.333 22.834 60 45.501s34.334 54.334 47.001 95.001s19 94 19 160s-6.33301 119.333 -19 160
s-28.334 72.334 -47.001 95.001s-38.667 37.834 -60 45.501s-40.333 11.5 -57 11.5c-17.333 0 -36.5 -3.83301 -57.5 -11.5s-40.833 -22.834 -59.5 -45.501s-34.334 -54.334 -47.001 -95.001s-19 -94 -19 -160zM27 356c0 64.667 6.83301 120.334 20.5 167.001
s32.167 84.834 55.5 114.501s50 51.5 80 65.5s61.667 21 95 21c32.667 0 64.167 -7 94.5 -21s57.166 -35.833 80.499 -65.5s41.833 -67.834 55.5 -114.501s20.5 -102.334 20.5 -167.001c0 -65.333 -6.83301 -121.166 -20.5 -167.499s-32.167 -84.333 -55.5 -114
s-50.166 -51.5 -80.499 -65.5s-61.833 -21 -94.5 -21c-33.333 0 -65 7 -95 21s-56.667 35.833 -80 65.5s-41.833 67.667 -55.5 114s-20.5 102.166 -20.5 167.499z" />
    <glyph glyph-name="one" unicode="1" horiz-adv-x="556" 
d="M145 603c14.667 -0.666992 29.665 0.166992 44.998 2.5s29.5 7.5 42.5 15.5s23.833 19.333 32.5 34s13.334 33.667 14.001 57h58v-712h-60v578c-20 -12 -41.167 -20.167 -63.5 -24.5s-45.166 -6.5 -68.499 -6.5v56z" />
    <glyph glyph-name="two" unicode="2" horiz-adv-x="556" 
d="M67 395c-8.66699 18.667 -14.999 38.0029 -18.999 58.0029s-6 40.333 -6 61c0 32 5.5 60.833 16.5 86.5s26.667 47.667 47 66s44.833 32.5 73.5 42.5s60.667 15 96 15c80 0 141.167 -20.833 183.5 -62.5s63.5 -97.5 63.5 -167.5c0 -31.333 -6.33301 -62 -19 -92
s-29.334 -58.833 -50.001 -86.5s-44.167 -54.167 -70.5 -79.5s-53.666 -49 -81.999 -71s-56.333 -42 -84 -60s-52.834 -33.667 -75.501 -47v-2h348v-56h-445v56c17.333 13.333 39.5 28.666 66.5 45.999s55.667 36.833 86 58.5s60.833 45 91.5 70s58.334 51.667 83.001 80
s44.667 58.166 60 89.499s23 64 23 98c0 25.333 -4.5 48.5 -13.5 69.5s-21.167 39 -36.5 54s-33.833 26.5 -55.5 34.5s-44.834 12 -69.501 12s-47.667 -3.5 -69 -10.5s-40 -17.333 -56 -31s-28.667 -30.5 -38 -50.5s-14 -43 -14 -69c0 -22 4 -43.333 12 -64
s19 -39.334 33 -56.001z" />
    <glyph glyph-name="three" unicode="3" horiz-adv-x="556" 
d="M98 227c0 -38 6.33008 -68.833 18.9971 -92.5s28.334 -42.334 47.001 -56.001s38.834 -22.834 60.501 -27.501s41.167 -7 58.5 -7c22 0 43.167 3.33301 63.5 10s38.333 16.334 54 29.001s28.167 28.167 37.5 46.5s14 39.5 14 63.5c0 36 -6.16699 64 -18.5 84
s-28 34.833 -47 44.5s-40.167 15.667 -63.5 18s-46 3.5 -68 3.5h-33h-28.5c-9 0 -19.167 -0.666992 -30.5 -2v59c10 -0.666992 19.833 -1 29.5 -1h29.5h31c59.333 0 105 10.833 137 32.5s48 52.167 48 91.5c0 48.667 -14.667 85 -44 109s-66.666 36 -111.999 36
c-51.333 0 -91.166 -13.667 -119.499 -41s-45.166 -65.666 -50.499 -114.999l-68 18c16.667 68 45.334 117.333 86.001 148s93.667 46 159 46c40 0 73.833 -6 101.5 -18s50 -27.333 67 -46s29.333 -39 37 -61s11.5 -43.333 11.5 -64c0 -22 -3.16699 -42.333 -9.5 -61
s-15.833 -35.167 -28.5 -49.5s-28.167 -25.833 -46.5 -34.5s-39.833 -13.334 -64.5 -14.001v-2c3.33301 0 9.66602 -0.333008 18.999 -1s20.166 -3 32.499 -7s25 -9.66699 38 -17s25 -17.666 36 -30.999s20 -30 27 -50s10.5 -44 10.5 -72c0 -34 -6.33301 -64 -19 -90
s-29.667 -47.667 -51 -65s-46.333 -30.5 -75 -39.5s-59 -13.5 -91 -13.5c-72.667 0 -131.334 18.333 -176.001 55s-70.667 90.667 -78 162z" />
    <glyph glyph-name="four" unicode="4" horiz-adv-x="556" 
d="M34 234l311 478h66v-478h113v-56h-113v-178h-60v178h-317v56zM102 234h249v375h-2z" />
    <glyph glyph-name="five" unicode="5" horiz-adv-x="556" 
d="M61 310l20.9971 401.998h376v-62h-320l-13 -237h2c8 14.667 17.833 27 29.5 37s24.334 18.167 38.001 24.5s27.834 10.833 42.501 13.5s28.667 4 42 4c48 0 87 -8.66699 117 -26s53.667 -38.5 71 -63.5s29.166 -52 35.499 -81s9.5 -54.833 9.5 -77.5
c0 -22 -3.33301 -47.667 -10 -77s-19 -57.333 -37 -84s-43.333 -49.167 -76 -67.5s-75 -27.5 -127 -27.5c-62.667 0 -114 17.5 -154 52.5s-65.333 85.5 -76 151.5l66 19c5.33301 -50 22 -90.333 50 -121s66 -46 114 -46c23.333 0 46 3.5 68 10.5s41.5 18.333 58.5 34
s30.5 36.334 40.5 62.001s15 57.167 15 94.5c0 28 -3.66699 53.833 -11 77.5s-18.166 43.834 -32.499 60.501s-32.5 29.667 -54.5 39s-47.667 14 -77 14c-39.333 0 -71.666 -12.5 -96.999 -37.5s-43 -55.833 -53 -92.5z" />
    <glyph glyph-name="six" unicode="6" horiz-adv-x="556" 
d="M448 543c-3.33301 28.667 -10.166 51.166 -20.499 67.499s-22.5 28.833 -36.5 37.5s-28.667 14.167 -44 16.5s-29.333 3.5 -42 3.5c-40 0 -72.333 -8.16699 -97 -24.5s-44.334 -37.666 -59.001 -63.999s-25.334 -56.5 -32.001 -90.5s-11.667 -69 -15 -105h2
c10 14 21.667 27 35 39s28 22.167 44 30.5s32.667 14.833 50 19.5s34.666 7 51.999 7c26.667 0 54 -4 82 -12s53.5 -21.833 76.5 -41.5s41.833 -45.667 56.5 -78s22 -72.833 22 -121.5c0 -30 -4.66699 -59.333 -14 -88s-23.833 -54.167 -43.5 -76.5s-44.667 -40.333 -75 -54
s-66.833 -20.5 -109.5 -20.5c-46.667 0 -85.667 9.16699 -117 27.5s-56.5 43.166 -75.5 74.499s-32.667 67.833 -41 109.5s-12.5 85.834 -12.5 132.501c0 57.333 4.16699 106.833 12.5 148.5s19.5 77 33.5 106s30 52.5 48 70.5s37.167 32 57.5 42s40.833 16.667 61.5 20
s40.334 5 59.001 5c54 0 98.833 -13 134.5 -39s60.834 -66 75.501 -120zM289 423.999c-27.333 0 -52.333 -4.5 -75 -13.5s-42.334 -21.5 -59.001 -37.5s-29.667 -34.667 -39 -56s-14 -44.333 -14 -69c0 -31.333 5 -59.666 15 -84.999s23.333 -46.833 40 -64.5
s35.834 -31.167 57.501 -40.5s44.167 -14 67.5 -14c22 0 43.333 3.66699 64 11s39 18.5 55 33.5s28.833 34.167 38.5 57.5s14.5 50.666 14.5 81.999c0 23.333 -2.66699 46.666 -8 69.999s-14.5 44.333 -27.5 63s-30 33.834 -51 45.501s-47.167 17.5 -78.5 17.5z" />
    <glyph glyph-name="seven" unicode="7" horiz-adv-x="556" 
d="M54 712l457.999 -0.000976562v-56c-38 -47.333 -72.167 -98 -102.5 -152s-56.333 -109.333 -78 -166s-38.667 -113.667 -51 -171s-19.5 -113 -21.5 -167h-68c6 66 15.333 126.833 28 182.5s29 109 49 160s44.333 101.333 73 151s62.334 101.834 101.001 156.501h-328
v-159h-60v221z" />
    <glyph glyph-name="eight" unicode="8" horiz-adv-x="556" 
d="M278 349c-59.333 0.666992 -104.333 -13.5 -135 -42.5s-46 -66.5 -46 -112.5c0 -23.333 4.83301 -44.333 14.5 -63s22.667 -34.5 39 -47.5s35.5 -22.833 57.5 -29.5s45.333 -10 70 -10s48 3.33301 70 10s41.167 16.5 57.5 29.5s29.333 28.833 39 47.5
s14.5 39.667 14.5 63c0 46 -15.333 83.5 -46 112.5s-75.667 43.167 -135 42.5zM278 405c30.667 0 56.332 4.83398 76.999 14.501s37.334 21.5 50.001 35.5s21.5 28.5 26.5 43.5s7.5 28.167 7.5 39.5c0 12 -2.16699 25.5 -6.5 40.5s-12.333 29.167 -24 42.5
s-28 24.5 -49 33.5s-48.167 13.5 -81.5 13.5c-30.667 0 -56.334 -3.83301 -77.001 -11.5s-37.167 -17.834 -49.5 -30.501s-21.166 -26.667 -26.499 -42s-8 -30.666 -8 -45.999s3.33301 -30.833 10 -46.5s16.667 -29.834 30 -42.501s30 -23.167 50 -31.5
s43.667 -12.5 71 -12.5zM277.998 724.001c50 0 89.998 -7.16602 119.998 -21.499s53.167 -31.333 69.5 -51s27 -40.167 32 -61.5s7.5 -39 7.5 -53c0 -22.667 -4 -43.167 -12 -61.5s-18 -34 -30 -47s-25.167 -23.167 -39.5 -30.5s-27.5 -12 -39.5 -14v-2
c19.333 -6 37.5 -14.667 54.5 -26s32 -24.833 45 -40.5s23.167 -33 30.5 -52s11 -39.167 11 -60.5c0 -36 -6.16699 -67.333 -18.5 -94s-29.5 -49 -51.5 -67s-48.167 -31.5 -78.5 -40.5s-63.833 -13.5 -100.5 -13.5c-27.333 0 -55.666 3.66699 -84.999 11
s-56.166 19.5 -80.499 36.5s-44.333 39.167 -60 66.5s-23.5 61 -23.5 101c0 22.667 3.66699 43.667 11 63s17.5 36.666 30.5 51.999s28 28.333 45 39s35.167 19 54.5 25v2c-12 2 -25.167 6.66699 -39.5 14s-27.5 17.5 -39.5 30.5s-22 28.667 -30 47s-12 38.833 -12 61.5
c0 14 2.5 31.667 7.5 53s15.667 41.833 32 61.5s39.5 36.667 69.5 51s70 21.5 120 21.5z" />
    <glyph glyph-name="nine" unicode="9" horiz-adv-x="556" 
d="M108 169c3.33301 -28.667 10.167 -51.333 20.5 -68s22.5 -29.167 36.5 -37.5s28.5 -13.666 43.5 -15.999s29.167 -3.5 42.5 -3.5c40 0 72.333 8.16699 97 24.5s44.334 37.666 59.001 63.999s25.334 56.5 32.001 90.5s11.667 69 15 105h-2c-10 -14 -21.667 -27 -35 -39
s-28 -22.167 -44 -30.5s-32.667 -14.833 -50 -19.5s-34.666 -7 -51.999 -7c-26.667 0 -54 4.16699 -82 12.5s-53.5 22.333 -76.5 42s-41.833 45.667 -56.5 78s-22 72.5 -22 120.5c0 30 4.66699 59.333 14 88s23.5 54.167 42.5 76.5s43.333 40.333 73 54
s65.167 20.5 106.5 20.5c48.667 0 89.167 -8.66699 121.5 -26s58.166 -41 77.499 -71s33 -65.167 41 -105.5s12 -83.5 12 -129.5c0 -60 -4.16699 -111.667 -12.5 -155s-19.5 -80 -33.5 -110s-30 -54 -48 -72s-37.167 -32 -57.5 -42s-40.833 -16.667 -61.5 -20
s-40.334 -5 -59.001 -5c-54 0 -98.833 13 -134.5 39s-60.834 66 -75.501 120zM267.001 288.001c26.667 0 51.501 4.49902 74.501 13.499s42.833 21.5 59.5 37.5s29.667 34.833 39 56.5s14 45.167 14 70.5c0 28 -5 54.333 -15 79s-23.333 46 -40 64
s-35.834 32.333 -57.501 43s-44.167 16 -67.5 16c-22 0 -43.333 -3.66699 -64 -11s-39 -18.5 -55 -33.5s-28.833 -34.167 -38.5 -57.5s-14.5 -50.666 -14.5 -81.999c0 -22.667 2.66699 -45.5 8 -68.5s14.5 -44 27.5 -63s30 -34.5 51 -46.5s47.167 -18 78.5 -18z" />
    <glyph glyph-name="colon" unicode=":" horiz-adv-x="278" 
d="M177 0h-76v116h76v-116zM177 357h-76v116h76v-116z" />
    <glyph glyph-name="semicolon" unicode=";" horiz-adv-x="278" 
d="M101 116l76 0.000976562v-108c0 -6 -0.333008 -14.333 -1 -25s-2.66699 -23.167 -6 -37.5s-8.5 -30.333 -15.5 -48s-16.833 -36.167 -29.5 -55.5l-34 25c16 18.667 27.333 39.667 34 63s9.66699 46.666 9 69.999h-33v116zM177 357.001h-76v116h76v-116z" />
    <glyph glyph-name="less" unicode="&#x3c;" horiz-adv-x="600" 
d="M553 -8l-506 234v54l506 234v-55l-445 -206l445 -206v-55z" />
    <glyph glyph-name="equal" unicode="=" horiz-adv-x="600" 
d="M553 325h-506v50h506v-50zM553 131h-506v50h506v-50z" />
    <glyph glyph-name="greater" unicode="&#x3e;" horiz-adv-x="600" 
d="M553 226l-506 -234v55l445 206l-445 206v55l506 -234v-54z" />
    <glyph glyph-name="question" unicode="?" horiz-adv-x="481" 
d="M193 174l0.00195312 59.999c0 21.333 4.33301 40.166 13 56.499s19.667 31.333 33 45s27.666 27 42.999 40s29.666 27 42.999 42s24.333 31.833 33 50.5s13 40.667 13 66c0 20 -3.33301 38.167 -10 54.5s-16 30.333 -28 42s-26.167 20.834 -42.5 27.501
s-33.833 10 -52.5 10c-19.333 0 -37.333 -3.33301 -54 -10s-31 -15.667 -43 -27s-21.5 -24.666 -28.5 -39.999s-10.5 -32 -10.5 -50c0 -11.333 0.666992 -21.333 2 -30s3.16602 -17 5.49902 -25s5.16602 -16.167 8.49902 -24.5l11 -27.5l-75 22
c-5.33301 15.333 -8.66602 30.833 -9.99902 46.5s-2 31.167 -2 46.5c0 18.667 3.33301 38.667 10 60s17.5 41 32.5 59s35 32.833 60 44.5s56.167 17.5 93.5 17.5c29.333 0 56.333 -4.66699 81 -14s45.834 -22.5 63.501 -39.5s31.5 -37.667 41.5 -62s15 -51.166 15 -80.499
c0 -31.333 -4.66699 -58.166 -14 -80.499s-20.833 -42.166 -34.5 -59.499s-28.5 -32.833 -44.5 -46.5s-30.833 -27.334 -44.5 -41.001s-25.167 -28.334 -34.5 -44.001s-14 -33.834 -14 -54.501v-34h-60zM185.002 -0.000976562v116h76v-116h-76z" />
    <glyph glyph-name="at" unicode="@" horiz-adv-x="800" 
d="M243 288c0 -30.667 7.66895 -55.998 23.002 -75.998s37.666 -30 66.999 -30c25.333 0 48.666 9.33301 69.999 28s39.666 41 54.999 67s27.333 53.167 36 81.5s13 52.166 13 71.499c0 11.333 -1.83301 22.666 -5.5 33.999s-9 21.333 -16 30s-15.667 15.667 -26 21
s-22.166 8 -35.499 8c-27.333 0 -52.166 -8.33301 -74.499 -25s-41.333 -37.167 -57 -61.5s-27.834 -50 -36.501 -77s-13 -50.833 -13 -71.5zM576.002 560.002l57.0029 -0.00488281l-104 -298c-2 -5.33301 -4.33301 -12.666 -7 -21.999s-4 -18.666 -4 -27.999
c0 -8 1.66699 -15 5 -21s10.333 -9 21 -9c28 0 53.167 8.5 75.5 25.5s41.166 37.667 56.499 62s27.166 50.333 35.499 78s12.5 52.5 12.5 74.5c0 40.667 -8.83301 77 -26.5 109s-40.834 59 -69.501 81s-61.334 38.833 -98.001 50.5s-73.667 17.5 -111 17.5
c-46 0 -89.667 -8.33301 -131 -25s-77.666 -39.5 -108.999 -68.5s-56.333 -63.667 -75 -104s-28 -83.833 -28 -130.5c0 -49.333 9.33301 -93.666 28 -132.999s43.5 -72.833 74.5 -100.5s66.833 -49 107.5 -64s83.334 -22.5 128.001 -22.5
c57.333 0 111.166 11.167 161.499 33.5s90.166 55.833 119.499 100.5h61c-16 -28.667 -36.167 -54.334 -60.5 -77.001s-51.333 -42 -81 -58s-61 -28.167 -94 -36.5s-66.167 -12.5 -99.5 -12.5c-57.333 0 -110.166 9 -158.499 27s-90 43.5 -125 76.5s-62.333 72.667 -82 119
s-29.5 97.833 -29.5 154.5c0 50.667 10.333 98.5 31 143.5s48.667 84.333 84 118s76.666 60.334 123.999 80.001s98 29.5 152 29.5c46.667 0 91.667 -7.33301 135 -22s81.333 -35.667 114 -63s58.834 -60.166 78.501 -98.499s29.5 -80.833 29.5 -127.5
c0 -30 -6 -61.667 -18 -95s-28.667 -64.333 -50 -93s-46.833 -52.334 -76.5 -71.001s-62.167 -28 -97.5 -28c-22 0 -38.667 6.33301 -50 19s-16 29.334 -14 50.001h-2c-19.333 -18.667 -41.833 -34.834 -67.5 -48.501s-52.5 -20.5 -80.5 -20.5
c-22 0 -41.833 3.83301 -59.5 11.5s-32.667 18.334 -45 32.001s-21.833 29.5 -28.5 47.5s-10 37.333 -10 58c0 34 6 68.667 18 104s29.167 67.333 51.5 96s49.5 52.167 81.5 70.5s68 27.5 108 27.5c29.333 0 53.333 -8.16699 72 -24.5s33 -37.166 43 -62.499z" />
    <glyph glyph-name="A" unicode="A" horiz-adv-x="611" 
d="M340 712l276 -712h-73l-80 214h-313l-85 -214h-70l290 712h55zM441 270l-132 351l-136 -351h268z" />
    <glyph glyph-name="B" unicode="B" horiz-adv-x="648" 
d="M133 412l218 0.000976562c52 0 92.333 10.167 121 30.5s43 50.166 43 89.499c0 44 -13 74.667 -39 92s-65.667 26 -119 26h-224v-238zM65 712.001h306.001c46.667 0 84 -6.83301 112 -20.5s49.5 -29.667 64.5 -48s24.667 -36.833 29 -55.5s6.5 -33 6.5 -43
c0 -46.667 -10.333 -82.667 -31 -108s-53.667 -42.333 -99 -51v-2c26 -2.66699 48.833 -9.33398 68.5 -20.001s36 -24.5 49 -41.5s22.667 -36.167 29 -57.5s9.5 -43.666 9.5 -66.999c0 -26 -4.33301 -50.833 -13 -74.5s-22.334 -44.667 -41.001 -63s-42.667 -33 -72 -44
s-64.333 -16.5 -105 -16.5h-313v712zM133.001 62.001h246c28.667 0 53.334 3.83301 74.001 11.5s37.5 18 50.5 31s22.5 27.5 28.5 43.5s9 32.667 9 50c0 45.333 -15.833 82 -47.5 110s-77.834 42 -138.501 42h-222v-288z" />
    <glyph glyph-name="C" unicode="C" horiz-adv-x="648" 
d="M558 512c-7.33301 24.667 -16.3301 46.6709 -26.9971 66.0039s-24 35.666 -40 48.999s-35.5 23.5 -58.5 30.5s-50.5 10.5 -82.5 10.5c-40 0 -74.833 -7.5 -104.5 -22.5s-54.334 -36.167 -74.001 -63.5s-34.5 -60.166 -44.5 -98.499s-15 -80.833 -15 -127.5
c0 -56.667 6.16699 -104.834 18.5 -144.501s29.666 -71.834 51.999 -96.501s48.666 -42.667 78.999 -54s63.5 -17 99.5 -17c56 0 99.333 13.5 130 40.5s54 63.833 70 110.5l65 -35c-25.333 -64 -61.5 -109.667 -108.5 -137s-103.5 -41 -169.5 -41
c-42 0 -81.5 6.83301 -118.5 20.5s-69.333 35.5 -97 65.5s-49.334 68.667 -65.001 116s-23.5 104.666 -23.5 171.999s8.33301 124.666 25 171.999s38.834 86 66.501 116s59.5 51.833 95.5 65.5s73.333 20.5 112 20.5c35.333 0 67.333 -3.33301 96 -10
s54.5 -17.334 77.5 -32.001s43.5 -33.667 61.5 -57s34 -51.666 48 -84.999z" />
    <glyph glyph-name="D" unicode="D" horiz-adv-x="685" 
d="M148 62l188.999 0.000976562c44 0 81.167 8.66699 111.5 26s54.666 39.833 72.999 67.5s31.5 59 39.5 94s12 70.5 12 106.5c0 32.667 -3.66699 66.5 -11 101.5s-19.666 66.667 -36.999 95s-40.166 51.666 -68.499 69.999s-63.5 27.5 -105.5 27.5h-203v-588z
M79.999 712.001l279.999 0.000976562c36 0 68.167 -5.16699 96.5 -15.5s52.833 -24.333 73.5 -42s38.167 -38.334 52.5 -62.001s25.833 -48.667 34.5 -75s14.834 -53.333 18.501 -81s5.5 -54.5 5.5 -80.5c0 -37.333 -4.83301 -77 -14.5 -119s-26 -80.5 -49 -115.5
s-53.667 -64 -92 -87s-86.5 -34.5 -144.5 -34.5h-261v712z" />
    <glyph glyph-name="E" unicode="E" horiz-adv-x="593" 
d="M65 712h466v-62h-398v-252h359v-62h-359v-274h419v-62h-487v712z" />
    <glyph glyph-name="F" unicode="F" horiz-adv-x="556" 
d="M65 712h464v-62h-396v-238h354v-62h-354v-350h-68v712z" />
    <glyph glyph-name="G" unicode="G" horiz-adv-x="685" 
d="M569 516c-17.333 53.333 -41.834 92.0029 -73.501 116.003s-73.5 36 -125.5 36c-45.333 0 -84.166 -9.33301 -116.499 -28s-59 -42.834 -80 -72.501s-36.5 -63.167 -46.5 -100.5s-15 -74.333 -15 -111c0 -37.333 4.5 -74.5 13.5 -111.5s23.333 -70.333 43 -100
s44.667 -53.834 75 -72.501s66.5 -28 108.5 -28c38.667 0 71.667 7 99 21s49.666 32 66.999 54s29.833 46.667 37.5 74s11.5 54 11.5 80v39h-264v62h324v-374h-60v103h-2c-8.66699 -22 -20.5 -40.667 -35.5 -56s-32 -27.833 -51 -37.5s-39.333 -16.667 -61 -21
s-43.5 -6.5 -65.5 -6.5c-52 0 -97.333 9.83301 -136 29.5s-70.667 46.5 -96 80.5s-44.333 73.667 -57 119s-19 93.666 -19 144.999c0 48 6.33301 94.5 19 139.5s32.334 84.833 59.001 119.5s60 62.5 100 83.5s87.667 31.5 143 31.5c68 0 123.333 -14.667 166 -44
s77 -74.333 103 -135z" />
    <glyph glyph-name="H" unicode="H" horiz-adv-x="722" 
d="M80 712h68v-314h426v314h68v-712h-68v336h-426v-336h-68v712z" />
    <glyph glyph-name="I" unicode="I" horiz-adv-x="222" 
d="M77 712h68v-712h-68v712z" />
    <glyph glyph-name="J" unicode="J" horiz-adv-x="481" 
d="M404 712l0.00292969 -499.001c0 -34.667 -3.66699 -66.167 -11 -94.5s-19 -52.666 -35 -72.999s-36.833 -36 -62.5 -47s-56.834 -16.5 -93.501 -16.5c-66.667 0 -118.334 16.333 -155.001 49s-55 81.667 -55 147v18l68 12v-26c0 -40 11.667 -73 35 -99s59 -39 107 -39
c26 0 47.5 3.83301 64.5 11.5s30.667 18.667 41 33s17.666 31.5 21.999 51.5s6.5 42.667 6.5 68v504h68z" />
    <glyph glyph-name="K" unicode="K" horiz-adv-x="630" 
d="M65 712h68v-396l387 396h95l-278 -280l302 -432h-83l-268 383l-155 -157v-226h-68v712z" />
    <glyph glyph-name="L" unicode="L" horiz-adv-x="556" 
d="M80 712h68v-650h393v-62h-461v712z" />
    <glyph glyph-name="M" unicode="M" horiz-adv-x="778" 
d="M74 712h83l231 -596h2l231 596h83v-712h-68v582h-2l-222 -582h-46l-222 582h-2v-582h-68v712z" />
    <glyph glyph-name="N" unicode="N" horiz-adv-x="704" 
d="M80 712h67l407 -598h2v598h68v-712h-67l-407 598h-2v-598h-68v712z" />
    <glyph glyph-name="O" unicode="O" horiz-adv-x="704" 
d="M44 356c0 47.333 6.16699 93.333 18.5 138s31.166 84.5 56.499 119.5s57.333 63.167 96 84.5s84.334 32 137.001 32s98.334 -10.667 137.001 -32s70.667 -49.5 96 -84.5s44.166 -74.833 56.499 -119.5s18.5 -90.667 18.5 -138s-6.16699 -93.333 -18.5 -138
s-31.166 -84.5 -56.499 -119.5s-57.333 -63.167 -96 -84.5s-84.334 -32 -137.001 -32s-98.334 10.667 -137.001 32s-70.667 49.5 -96 84.5s-44.166 74.833 -56.499 119.5s-18.5 90.667 -18.5 138zM112 356c0 -37.333 4.5 -74.5 13.5 -111.5s23.333 -70.333 43 -100
s44.667 -53.834 75 -72.501s66.5 -28 108.5 -28s78.167 9.33301 108.5 28s55.333 42.834 75 72.501s34 63 43 100s13.5 74.167 13.5 111.5c0 36.667 -4.5 73.667 -13.5 111s-23.333 70.833 -43 100.5s-44.667 53.834 -75 72.501s-66.5 28 -108.5 28
s-78.167 -9.33301 -108.5 -28s-55.333 -42.834 -75 -72.501s-34 -63.167 -43 -100.5s-13.5 -74.333 -13.5 -111z" />
    <glyph glyph-name="P" unicode="P" horiz-adv-x="630" 
d="M80 712l350.998 0.00292969c34.667 0 63.834 -5.83301 87.501 -17.5s42.834 -26.834 57.501 -45.501s25 -39.5 31 -62.5s9 -45.833 9 -68.5c0 -34.667 -5.33301 -64.334 -16 -89.001s-25.5 -44.834 -44.5 -60.501s-41.667 -27.167 -68 -34.5s-55.5 -11 -87.5 -11h-252
v-323h-68v712zM147.998 385.003h226c116 0 174 44.333 174 133c0 10.667 -1.16699 23.5 -3.5 38.5s-8.16602 29.5 -17.499 43.5s-23.833 25.833 -43.5 35.5s-46.834 14.5 -81.501 14.5h-254v-265z" />
    <glyph glyph-name="Q" unicode="Q" horiz-adv-x="704" 
d="M651 -18l-90.002 88.001c-25.333 -27.333 -55.166 -48.833 -89.499 -64.5s-74.166 -23.5 -119.499 -23.5c-52.667 0 -98.334 10.667 -137.001 32s-70.667 49.5 -96 84.5s-44.166 74.833 -56.499 119.5s-18.5 90.667 -18.5 138s6.16699 93.333 18.5 138
s31.166 84.5 56.499 119.5s57.333 63.167 96 84.5s84.334 32 137.001 32s98.334 -10.667 137.001 -32s70.667 -49.5 96 -84.5s44.166 -74.833 56.499 -119.5s18.5 -90.667 18.5 -138c0 -42.667 -5 -84.334 -15 -125.001s-25.333 -78 -46 -112l98 -88zM111.998 356.001
c0 -37.333 4.5 -74.5 13.5 -111.5s23.333 -70.333 43 -100s44.667 -53.834 75 -72.501s66.5 -28 108.5 -28s78.167 9.33301 108.5 28s55.333 42.834 75 72.501s34 63 43 100s13.5 74.167 13.5 111.5c0 36.667 -4.5 73.667 -13.5 111s-23.333 70.833 -43 100.5
s-44.667 53.834 -75 72.501s-66.5 28 -108.5 28s-78.167 -9.33301 -108.5 -28s-55.333 -42.834 -75 -72.501s-34 -63.167 -43 -100.5s-13.5 -74.333 -13.5 -111z" />
    <glyph glyph-name="R" unicode="R" horiz-adv-x="611" 
d="M133 378h211.001c36 0 65.333 4.16699 88 12.5s40.5 19 53.5 32s22 27.5 27 43.5s7.5 32 7.5 48c0 41.333 -12.333 74.333 -37 99s-67.334 37 -128.001 37h-222v-272zM65.001 712l315 -0.000976562c36.667 0 68.167 -5.66699 94.5 -17s47.833 -26.166 64.5 -44.499
s29 -39.5 37 -63.5s12 -48.333 12 -73c0 -61.333 -18.667 -108 -56 -140s-88.333 -50.333 -153 -55l228 -319h-86l-226 316h-162v-316h-68v712z" />
    <glyph glyph-name="S" unicode="S" horiz-adv-x="611" 
d="M108 214c1.33301 -30 6.99805 -55.6699 16.998 -77.0029s23.667 -39 41 -53s38 -24.167 62 -30.5s50.667 -9.5 80 -9.5c28 0 53.833 3.5 77.5 10.5s44.334 16.833 62.001 29.5s31.334 27.834 41.001 45.501s14.5 37.5 14.5 59.5c0 27.333 -6.16699 49.5 -18.5 66.5
s-28.333 31.167 -48 42.5s-42.334 20.5 -68.001 27.5l-78 21c-26.333 7 -52.333 15 -78 24s-48.334 20.833 -68.001 35.5s-35.667 33.5 -48 56.5s-18.5 51.833 -18.5 86.5c0 32.667 7.16699 60.334 21.5 83.001s32.5 41.334 54.5 56.001s46.333 25.334 73 32.001
s52.667 10 78 10c60.667 0 113 -11.667 157 -35s76.333 -64.666 97 -123.999l-63 -34c-14.667 46.667 -39 80.167 -73 100.5s-73.333 30.5 -118 30.5c-18 0 -36.5 -2.5 -55.5 -7.5s-36.167 -12.5 -51.5 -22.5s-27.833 -22.5 -37.5 -37.5s-14.5 -32.167 -14.5 -51.5
c0 -26.667 6.16699 -48.167 18.5 -64.5s28.333 -29.833 48 -40.5s42.334 -19.334 68.001 -26.001l78 -20c26.333 -6.66699 52.333 -14.334 78 -23.001s48.334 -20.167 68.001 -34.5s35.667 -32.833 48 -55.5s18.5 -51 18.5 -85c0 -70.667 -23 -124.667 -69 -162
s-110.667 -56 -194 -56c-36 0 -68.833 3.5 -98.5 10.5s-56 18.333 -79 34s-42.167 36 -57.5 61s-26.333 55.5 -33 91.5z" />
    <glyph glyph-name="T" unicode="T" horiz-adv-x="536" 
d="M11 712h514v-62h-223v-650h-68v650h-223v62z" />
    <glyph glyph-name="U" unicode="U" horiz-adv-x="666" 
d="M595 231c0 -40.667 -6.16895 -76.5 -18.502 -107.5s-30 -57 -53 -78s-50.667 -36.833 -83 -47.5s-68.166 -16 -107.499 -16s-75.166 5.33301 -107.499 16s-60 26.5 -83 47.5s-40.667 47 -53 78s-18.5 66.833 -18.5 107.5v481h68v-479c0 -34.667 5.16699 -64 15.5 -88
s24.166 -43.5 41.499 -58.5s37.833 -25.833 61.5 -32.5s48.834 -10 75.501 -10s51.834 3.33301 75.501 10s44.167 17.5 61.5 32.5s31.166 34.5 41.499 58.5s15.5 53.333 15.5 88v479h68v-481z" />
    <glyph glyph-name="V" unicode="V" horiz-adv-x="593" 
d="M0 712h73l223 -604l227 604h70l-267 -712h-60z" />
    <glyph glyph-name="W" unicode="W" horiz-adv-x="870" 
d="M3 712h71l165 -592h2l171 592h50l176 -588h2l157 588h70l-203 -712h-55l-173 574h-2l-165 -574h-53z" />
    <glyph glyph-name="X" unicode="X" horiz-adv-x="630" 
d="M35 712h88l193 -281l195 281h85l-234 -328l268 -384h-85l-230 343l-236 -343h-79l269 388z" />
    <glyph glyph-name="Y" unicode="Y" horiz-adv-x="610" 
d="M271 297l-268 415h82l222 -352l222 352h78l-268 -415v-297h-68v297z" />
    <glyph glyph-name="Z" unicode="Z" horiz-adv-x="574" 
d="M47 712h503v-44l-431 -606h427v-62h-522v44l431 606h-408v62z" />
    <glyph glyph-name="bracketleft" unicode="[" horiz-adv-x="296" 
d="M93 -188v952h169v-50h-109v-852h109v-50h-169z" />
    <glyph glyph-name="backslash" unicode="\" horiz-adv-x="463" 
d="M13 730h53l384 -748h-53z" />
    <glyph glyph-name="bracketright" unicode="]" horiz-adv-x="296" 
d="M143 714h-109v50h169v-952h-169v50h109v852z" />
    <glyph glyph-name="asciicircum" unicode="^" horiz-adv-x="600" 
d="M44 259l230 453h52l230 -453h-57l-199 393l-198 -393h-58z" />
    <glyph glyph-name="underscore" unicode="_" 
d="M0 -125v50h500v-50h-500z" />
    <glyph glyph-name="grave" unicode="`" horiz-adv-x="185" 
d="M-34 697h77l111 -139h-51z" />
    <glyph glyph-name="a" unicode="a" horiz-adv-x="481" 
d="M93 116c0 -13.333 3 -24.499 9 -33.499s13.667 -16.333 23 -22s19.833 -9.83398 31.5 -12.501s23.167 -4 34.5 -4c14.667 0 31.167 2.66699 49.5 8s35.833 14 52.5 26s30.667 27.833 42 47.5s17 44.167 17 73.5v55l-173 -48c-24 -6.66699 -44.333 -16.5 -61 -29.5
s-25 -33.167 -25 -60.5zM481 -5.99902c-18.667 0 -35.3359 0.503906 -50.0029 1.50391s-27.334 4 -38.001 9s-19.167 13.167 -25.5 24.5s-10.166 27.666 -11.499 48.999h-2c-18.667 -32.667 -42.167 -55.834 -70.5 -69.501s-60.833 -20.5 -97.5 -20.5
c-19.333 0 -38.166 2.5 -56.499 7.5s-34.666 12.667 -48.999 23s-25.833 23.5 -34.5 39.5s-13 35 -13 57c0 25.333 5 46.666 15 63.999s23.167 31.666 39.5 42.999s34.833 20.5 55.5 27.5s41.334 13.167 62.001 18.5l147 38v48c0 31.333 -10.5 53.833 -31.5 67.5
s-50.5 20.5 -88.5 20.5c-40 0 -69.5 -9.66699 -88.5 -29s-29.167 -48.333 -30.5 -87l-68 12c20 102.667 83 154 189 154c44.667 0 79 -5.66699 103 -17s41.5 -24.833 52.5 -40.5s17.5 -32 19.5 -49s3 -31.5 3 -43.5v-235c0 -15.333 1.66699 -27.333 5 -36s8 -15 14 -19
s13.333 -6.33301 22 -7s18 -1 28 -1v-50z" />
    <glyph glyph-name="b" unicode="b" 
d="M63 712h60v-306h2c10.667 27.333 28.834 48.5 54.501 63.5s54.5 22.5 86.5 22.5c27.333 0 53.166 -5.5 77.499 -16.5s45.666 -27.5 63.999 -49.5s32.833 -49 43.5 -81s16 -69 16 -111c0 -44.667 -6.66699 -82.5 -20 -113.5s-30 -56.333 -50 -76s-42 -34 -66 -43
s-46.667 -13.5 -68 -13.5c-30 0 -57.667 6.83301 -83 20.5s-43.666 35.5 -54.999 65.5h-2v-74h-60v712zM407 240c0 60.667 -13.5 108.5 -40.5 143.5s-63.167 52.5 -108.5 52.5c-28.667 0 -52 -5.83301 -70 -17.5s-32 -26.834 -42 -45.501s-16.833 -39.667 -20.5 -63
s-5.5 -46.666 -5.5 -69.999s2.16699 -46.666 6.5 -69.999s11.833 -44.333 22.5 -63s25.167 -33.834 43.5 -45.501s41.5 -17.5 69.5 -17.5c43.333 0 78.333 17.5 105 52.5s40 82.833 40 143.5z" />
    <glyph glyph-name="c" unicode="c" horiz-adv-x="463" 
d="M388 361c-12 26.667 -29.8379 45.832 -53.5049 57.499s-49.834 17.5 -78.501 17.5c-20.667 0 -40.667 -4 -60 -12s-36.666 -20.167 -51.999 -36.5s-27.666 -36.833 -36.999 -61.5s-14 -53.334 -14 -86.001c0 -33.333 4.66699 -62.166 14 -86.499
s21.333 -44.666 36 -60.999s31.334 -28.5 50.001 -36.5s37.667 -12 57 -12c32 0 59.333 7.5 82 22.5s39.334 33.5 50.001 55.5l61 -15c-17.333 -40 -42.833 -69.833 -76.5 -89.5s-72.5 -29.5 -116.5 -29.5c-30 0 -58.167 6 -84.5 18s-49.166 29 -68.499 51
s-34.666 48.5 -45.999 79.5s-17.333 65.5 -18 103.5c0.666992 38 6.5 72.5 17.5 103.5s26.667 57.5 47 79.5s44.5 39 72.5 51s59.333 18 94 18c14.667 0 30.667 -1.66699 48 -5s34.333 -9.5 51 -18.5s32.5 -21.167 47.5 -36.5s27.833 -35 38.5 -59z" />
    <glyph glyph-name="d" unicode="d" 
d="M377 65l-1.99609 -0.000976562c-14 -28.667 -33.833 -48.667 -59.5 -60s-52.5 -17 -80.5 -17c-22.667 0 -45.834 4.5 -69.501 13.5s-45.334 23.333 -65.001 43s-35.834 45 -48.501 76s-19 68.833 -19 113.5c0 42 5.33301 79 16 111s25.167 59 43.5 81
s39.666 38.5 63.999 49.5s50.166 16.5 77.499 16.5c34 0 62.333 -6.66699 85 -20s41.334 -31.666 56.001 -54.999h2v295h60v-712h-60v65zM93.0039 239.999c0 -60.667 13.333 -108.5 40 -143.5s61.667 -52.5 105 -52.5c28 0 51.167 5.83301 69.5 17.5
s32.833 26.834 43.5 45.501s18.167 39.667 22.5 63s6.5 46.666 6.5 69.999s-1.83301 46.666 -5.5 69.999s-10.5 44.333 -20.5 63s-24 33.834 -42 45.501s-41.333 17.5 -70 17.5c-45.333 0 -81.5 -17.5 -108.5 -52.5s-40.5 -82.833 -40.5 -143.5z" />
    <glyph glyph-name="e" unicode="e" 
d="M399 292c-3.33301 17.333 -8.33105 34.667 -14.998 52s-15.667 32.833 -27 46.5s-25.833 24.667 -43.5 33s-38.834 12.5 -63.501 12.5c-21.333 0 -40.666 -3.83301 -57.999 -11.5s-32.333 -18 -45 -31s-22.834 -28.167 -30.501 -45.5s-12.834 -36 -15.501 -56h298z
M101.002 242.001v-13c0 -26.667 3 -51.334 9 -74.001s15.333 -42.167 28 -58.5s28.667 -29.166 48 -38.499s42.333 -14 69 -14c42 0 74.833 9 98.5 27s42.834 43 57.501 75l56 -15c-18 -44.667 -45.333 -79.667 -82 -105s-81.667 -38 -135 -38c-30 0 -58.167 5.5 -84.5 16.5
s-49.333 27 -69 48s-35.167 47.167 -46.5 78.5s-17 67.666 -17 108.999c0 40.667 5.66699 76.834 17 108.501s26.833 58 46.5 79s42.667 37 69 48s54.5 16.5 84.5 16.5c35.333 0 66.333 -6.33301 93 -19s49 -30.167 67 -52.5s31.667 -48.833 41 -79.5
s14.666 -63.667 15.999 -99h-366z" />
    <glyph glyph-name="f" unicode="f" horiz-adv-x="296" 
d="M118 430h-104.998v50h105v152c0 36 11 61.333 33 76s50.333 22 85 22c5.33301 0 13.666 -0.666992 24.999 -2s20.666 -4 27.999 -8v-57c-6 3.33301 -13.333 6 -22 8s-19.667 3 -33 3c-20.667 0 -35.167 -5.83301 -43.5 -17.5s-12.5 -29.5 -12.5 -53.5v-123h105v-50h-105
v-430h-60v430z" />
    <glyph glyph-name="g" unicode="g" horiz-adv-x="519" 
d="M96 -63c5.33301 -46.667 21.333 -79.833 48 -99.5s60.334 -29.5 101.001 -29.5c20.667 0 40.334 1.83301 59.001 5.5s34.667 11.334 48 23.001s24 28.5 32 50.5s12 51 12 87v99l-1 2c-18 -30.667 -40.667 -52.834 -68 -66.501s-57.333 -20.5 -90 -20.5
c-21.333 0 -44 4.5 -68 13.5s-46 23.333 -66 43s-36.667 45 -50 76s-20 68.833 -20 113.5c0 42 5.33301 79 16 111s25.167 59 43.5 81s39.666 38.5 63.999 49.5s50.166 16.5 77.499 16.5c38 0 70.833 -7.66699 98.5 -23s48.167 -38 61.5 -68h2v79h60v-501
c0 -24.667 -1.83301 -50.334 -5.5 -77.001s-12.667 -51.167 -27 -73.5s-35.5 -40.666 -63.5 -54.999s-66.333 -21.5 -115 -21.5c-61.333 0 -110 12.833 -146 38.5s-57.333 70.167 -64 133.5zM394 231.001c0 26 -2.00195 51.165 -6.00195 75.498s-11.5 46.166 -22.5 65.499
s-26.5 34.833 -46.5 46.5s-45.667 17.5 -77 17.5c-45.333 0 -81.5 -17.5 -108.5 -52.5s-40.5 -82.833 -40.5 -143.5s13.5 -108.5 40.5 -143.5s63.167 -52.5 108.5 -52.5c28.667 0 52.834 4.83301 72.501 14.5s35.334 22.834 47.001 39.501s20 36.334 25 59.001
s7.5 47.334 7.5 74.001z" />
    <glyph glyph-name="h" unicode="h" 
d="M63 712l60 0.00195312v-303h2c15.333 30.667 36 52.167 62 64.5s53 18.5 81 18.5c29.333 0 54.666 -4 75.999 -12s38.833 -19.333 52.5 -34s23.834 -32.334 30.501 -53.001s10 -43.334 10 -68.001v-325h-60v307c0 48.667 -10 82.334 -30 101.001s-49 28 -87 28
c-18 0 -35.333 -3 -52 -9s-31.167 -15.5 -43.5 -28.5s-22.333 -29.333 -30 -49s-11.5 -42.834 -11.5 -69.501v-280h-60v712z" />
    <glyph glyph-name="i" unicode="i" horiz-adv-x="186" 
d="M63 480h60v-480h-60v480zM63 678h60v-94h-60v94z" />
    <glyph glyph-name="j" unicode="j" horiz-adv-x="186" 
d="M63 480l60.0039 -0.00195312v-617c0 -41.333 -9.5 -70.166 -28.5 -86.499s-43.167 -24.5 -72.5 -24.5c-12 0 -25.333 1.33301 -40 4s-27.334 7 -38.001 13v63c7.33301 -6 18.166 -11.5 32.499 -16.5s28.166 -7.5 41.499 -7.5c21.333 0 34.166 6.83301 38.499 20.5
s6.5 31.834 6.5 54.501v597zM63.0039 677.998h60v-94h-60v94z" />
    <glyph glyph-name="k" unicode="k" horiz-adv-x="481" 
d="M63 712h60v-485l262 253h76l-195 -189l214 -291h-73l-184 250l-100 -97v-153h-60v712z" />
    <glyph glyph-name="l" unicode="l" horiz-adv-x="186" 
d="M63 712h60v-712h-60v712z" />
    <glyph glyph-name="m" unicode="m" horiz-adv-x="760" 
d="M68 480l59.999 -0.00292969v-77h2c10.667 25.333 27 46.5 49 63.5s50 25.5 84 25.5c36 0 66.667 -8.5 92 -25.5s40.666 -43.5 45.999 -79.5h2c12.667 32.667 30.834 58.334 54.501 77.001s55.5 28 95.5 28c34.667 0 61.5 -6.33301 80.5 -19s32.833 -28.167 41.5 -46.5
s13.667 -37.5 15 -57.5s2 -37.333 2 -52v-317h-60v310c0 13.333 -0.5 27.5 -1.5 42.5s-4.5 28.667 -10.5 41s-15.167 22.5 -27.5 30.5s-29.833 12 -52.5 12c-21.333 0 -40 -4.5 -56 -13.5s-29.5 -21.167 -40.5 -36.5s-19.333 -33.166 -25 -53.499s-8.5 -42.166 -8.5 -65.499
v-267h-60v302c0 15.333 -0.833008 31 -2.5 47s-5.5 30.5 -11.5 43.5s-15.167 23.5 -27.5 31.5s-29.166 12 -50.499 12c-37.333 0 -68.333 -15.333 -93 -46s-37 -72.667 -37 -126v-264h-60v480z" />
    <glyph glyph-name="n" unicode="n" 
d="M63 480l60 0.00195312v-70h2c15.333 30 36 51.167 62 63.5s53 18.5 81 18.5c29.333 0 54.666 -4 75.999 -12s38.833 -19.333 52.5 -34s23.834 -32.334 30.501 -53.001s10 -43.334 10 -68.001v-325h-60v307c0 48.667 -10 82.334 -30 101.001s-49 28 -87 28
c-18 0 -35.333 -3 -52 -9s-31.167 -15.5 -43.5 -28.5s-22.333 -29.333 -30 -49s-11.5 -42.834 -11.5 -69.501v-280h-60v480z" />
    <glyph glyph-name="o" unicode="o" 
d="M33 240c0 40.667 5.66699 76.834 17 108.501s26.833 58 46.5 79s42.667 37 69 48s54.5 16.5 84.5 16.5s58.167 -5.5 84.5 -16.5s49.333 -27 69 -48s35.167 -47.333 46.5 -79s17 -67.834 17 -108.501c0 -41.333 -5.66699 -77.666 -17 -108.999s-26.833 -57.5 -46.5 -78.5
s-42.667 -37 -69 -48s-54.5 -16.5 -84.5 -16.5s-58.167 5.5 -84.5 16.5s-49.333 27 -69 48s-35.167 47.167 -46.5 78.5s-17 67.666 -17 108.999zM250 436c-22 0 -42.667 -4.5 -62 -13.5s-36 -21.833 -50 -38.5s-25 -37.167 -33 -61.5s-12 -51.833 -12 -82.5
c0 -31.333 4 -59 12 -83s19 -44.5 33 -61.5s30.667 -29.833 50 -38.5s40 -13 62 -13s42.667 4.33301 62 13s36 21.5 50 38.5s25 37.5 33 61.5s12 51.667 12 83c0 30.667 -4 58.167 -12 82.5s-19 44.833 -33 61.5s-30.667 29.5 -50 38.5s-40 13.5 -62 13.5z" />
    <glyph glyph-name="p" unicode="p" 
d="M63 480h60.002v-72h2c9.33301 23.333 26.666 43.166 51.999 59.499s55 24.5 89 24.5c26 0 51.167 -5.16699 75.5 -15.5s45.833 -25.666 64.5 -45.999s33.5 -45.833 44.5 -76.5s16.5 -66 16.5 -106c0 -50 -5.83301 -91.667 -17.5 -125s-26.834 -60 -45.501 -80
s-39.667 -34.167 -63 -42.5s-47 -12.5 -71 -12.5c-35.333 0 -65.5 6.5 -90.5 19.5s-43.167 33.167 -54.5 60.5h-2v-316h-60v728zM407.002 240c0 60.667 -13.3311 108.5 -39.998 143.5s-61.334 52.5 -104.001 52.5c-30 0 -54.167 -5.83301 -72.5 -17.5s-32.833 -27 -43.5 -46
s-17.834 -40.167 -21.501 -63.5s-5.5 -46.333 -5.5 -69c0 -23.333 1.83301 -46.666 5.5 -69.999s10.667 -44.333 21 -63s24.833 -33.834 43.5 -45.501s42.667 -17.5 72 -17.5c43.333 0 78.333 17.5 105 52.5s40 82.833 40 143.5z" />
    <glyph glyph-name="q" unicode="q" 
d="M377 -248l0.000976562 322h-2c-13.333 -30.667 -32.666 -52.667 -57.999 -66s-54.333 -20 -87 -20c-24 0 -47.667 4.16699 -71 12.5s-44.333 22.5 -63 42.5s-33.834 46.667 -45.501 80s-17.5 75 -17.5 125c0 40 5.5 75.333 16.5 106s25.833 56.167 44.5 76.5
s40.167 35.666 64.5 45.999s49.5 15.5 75.5 15.5c34 0 63.667 -8.16699 89 -24.5s42.666 -36.166 51.999 -59.499h2v72h60v-728h-60zM93.001 240c0 -60.667 13.335 -108.5 40.002 -143.5s61.667 -52.5 105 -52.5c29.333 0 53.333 5.83301 72 17.5s33.167 26.834 43.5 45.501
s17.333 39.667 21 63s5.5 46.666 5.5 69.999c0 22.667 -1.83301 45.667 -5.5 69s-10.834 44.5 -21.501 63.5s-25.167 34.333 -43.5 46s-42.5 17.5 -72.5 17.5c-42.667 0 -77.334 -17.5 -104.001 -52.5s-40 -82.833 -40 -143.5z" />
    <glyph glyph-name="r" unicode="r" horiz-adv-x="296" 
d="M72 480h60.002v-67h2c16.667 25.333 34.667 44.833 54 58.5s44.666 20.5 75.999 20.5c8 0 15.333 -0.166992 22 -0.5s13.667 -0.833008 21 -1.5v-52c-12.667 2.66699 -26 4 -40 4c-46.667 0 -80.834 -15.333 -102.501 -46s-32.5 -70.667 -32.5 -120v-276h-60v480z" />
    <glyph glyph-name="s" unicode="s" horiz-adv-x="444" 
d="M83 133c13.333 -34.667 30.332 -59.1699 50.999 -73.5029s50 -21.5 88 -21.5c12 0 25 1.33301 39 4s26.667 7.66699 38 15s20.833 17.333 28.5 30s11.5 29 11.5 49c0 24 -7 41.667 -21 53s-31.5 20 -52.5 26s-43.833 11 -68.5 15s-47.5 10.333 -68.5 19
s-38.5 21.334 -52.5 38.001s-21 41 -21 73c0 17.333 3.5 34 10.5 50s17.5 30 31.5 42s31.167 21.667 51.5 29s43.833 11 70.5 11c47.333 0 86.5 -8 117.5 -24s52.167 -44.333 63.5 -85l-57 -14c-10.667 30 -25.5 49.667 -44.5 59s-42.5 14 -70.5 14
c-22.667 0 -41.334 -2.16699 -56.001 -6.5s-26.167 -10.166 -34.5 -17.499s-14.166 -16.166 -17.499 -26.499s-5 -21.5 -5 -33.5c0 -20.667 7 -36 21 -46s31.5 -18 52.5 -24s43.833 -11.333 68.5 -16s47.5 -11.834 68.5 -21.501s38.5 -23.5 52.5 -41.5s21 -43 21 -75
c0 -20 -4 -38.833 -12 -56.5s-20 -33.167 -36 -46.5s-35.5 -23.833 -58.5 -31.5s-49.5 -11.5 -79.5 -11.5c-18 0 -35.833 1.66699 -53.5 5s-34.5 9.5 -50.5 18.5s-31.167 21.833 -45.5 38.5s-27.166 38.334 -38.499 65.001z" />
    <glyph glyph-name="t" unicode="t" horiz-adv-x="278" 
d="M8 480l98 -0.000976562v205h60v-205h104v-50h-104v-317c0 -9.33301 0.166992 -18 0.5 -26s1.66602 -15.333 3.99902 -22s5.83301 -11.834 10.5 -15.501s11.334 -5.5 20.001 -5.5c14 0 26 2.33301 36 7s20 10.334 30 17.001v-60c-30 -13.333 -56.333 -20 -79 -20
c-10.667 0 -21 1.5 -31 4.5s-18.667 7.83301 -26 14.5s-13.333 15.334 -18 26.001s-7 24 -7 40v357h-98v50z" />
    <glyph glyph-name="u" unicode="u" 
d="M377 70l-2 0.00195312c-15.333 -30 -36 -51.167 -62 -63.5s-53 -18.5 -81 -18.5c-59.333 0 -102.333 15.5 -129 46.5s-40 71.167 -40 120.5v325h60v-307c0 -48.667 10 -82.334 30 -101.001s49 -28 87 -28c18 0 35.333 3 52 9s31.167 15.5 43.5 28.5
s22.333 29.167 30 48.5s11.5 42.666 11.5 69.999v280h60v-480h-60v70z" />
    <glyph glyph-name="v" unicode="v" horiz-adv-x="407" 
d="M2 480h59l131 -385h2l149 385h62l-191 -480h-47z" />
    <glyph glyph-name="w" unicode="w" horiz-adv-x="667" 
d="M-1 480h62l126 -377h2l120 377h49l120 -377h2l126 377h62l-164 -480h-50l-120 387h-2l-119 -387h-50z" />
    <glyph glyph-name="x" unicode="x" horiz-adv-x="426" 
d="M181 252l-158 228h67l125 -181l127 181h67l-160 -228l173 -252h-66l-141 205l-144 -205h-67z" />
    <glyph glyph-name="y" unicode="y" horiz-adv-x="426" 
d="M10 480l56 -0.00390625l139 -404h2l158 404h57l-237 -609c-5.33301 -14 -11 -28 -17 -42s-13.333 -26.667 -22 -38s-19.167 -20.666 -31.5 -27.999s-27.833 -11 -46.5 -11c-11.333 0 -22.333 1.83301 -33 5.5s-21 7.83398 -31 12.501v62
c9.33301 -5.33301 19.166 -10.666 29.499 -15.999s21.166 -8 32.499 -8c8.66699 0 16.334 2.33301 23.001 7s12.334 10.334 17.001 17.001s8.66699 13.667 12 21s6 14 8 20l49 126z" />
    <glyph glyph-name="z" unicode="z" horiz-adv-x="370" 
d="M272 430h-240v50h324v-33l-267 -397h271v-50h-350v41z" />
    <glyph glyph-name="braceleft" unicode="{" horiz-adv-x="333" 
d="M83 313c17.333 -0.666992 30.834 4.99609 40.501 16.9961s16.834 26.5 21.501 43.5s7.5 34.5 8.5 52.5s1.5 32.667 1.5 44v167c0 14 1.33301 28.5 4 43.5s7.5 28.667 14.5 41s16 22.5 27 30.5s25.167 12 42.5 12h50v-50h-38c-16.667 0 -27.5 -8.33301 -32.5 -25
s-7.5 -42 -7.5 -76v-160c0 -13.333 -1.33301 -28.166 -4 -44.499s-6.83398 -32.166 -12.501 -47.499s-13 -29.5 -22 -42.5s-20.167 -22.833 -33.5 -29.5v-2c13.333 -6.66699 24.5 -16.5 33.5 -29.5s16.333 -27.167 22 -42.5s9.83398 -31.166 12.501 -47.499
s4 -31.166 4 -44.499v-160c0 -34 2.5 -59.333 7.5 -76s15.833 -25 32.5 -25h38v-50h-50c-17.333 0 -31.5 4 -42.5 12s-20 18.167 -27 30.5s-11.833 26 -14.5 41s-4 29.5 -4 43.5v167c0 10.667 -0.333008 25.167 -1 43.5s-3.33398 36 -8.00098 53s-11.834 31.5 -21.501 43.5
s-23.5 17.667 -41.5 17v50z" />
    <glyph glyph-name="bar" unicode="|" horiz-adv-x="222" 
d="M86 786h50v-1000h-50v1000z" />
    <glyph glyph-name="braceright" unicode="}" horiz-adv-x="333" 
d="M250 263c-18 0.666992 -31.832 -4.99609 -41.499 -16.9961s-16.834 -26.5 -21.501 -43.5s-7.33398 -34.667 -8.00098 -53s-1 -32.833 -1 -43.5v-167c0 -14 -1.33301 -28.5 -4 -43.5s-7.5 -28.667 -14.5 -41s-16.167 -22.5 -27.5 -30.5s-25.333 -12 -42 -12h-50v50h38
c16.667 0 27.5 8.33301 32.5 25s7.5 42 7.5 76v160c0 13.333 1.33301 28.166 4 44.499s6.83398 32.166 12.501 47.499s13 29.5 22 42.5s20.167 22.833 33.5 29.5v2c-13.333 6.66699 -24.5 16.5 -33.5 29.5s-16.333 27.167 -22 42.5s-9.83398 31.166 -12.501 47.499
s-4 31.166 -4 44.499v160c0 34 -2.5 59.333 -7.5 76s-15.833 25 -32.5 25h-38v50h50c16.667 0 30.667 -4 42 -12s20.5 -18.167 27.5 -30.5s11.833 -26 14.5 -41s4 -29.5 4 -43.5v-167c0 -11.333 0.5 -26 1.5 -44s3.83301 -35.5 8.5 -52.5s11.834 -31.5 21.501 -43.5
s23.167 -17.667 40.5 -17v-50z" />
    <glyph glyph-name="asciitilde" unicode="~" horiz-adv-x="600" 
d="M531 280c-8 -11.333 -16.1689 -22.166 -24.502 -32.499s-17.333 -19.5 -27 -27.5s-20.5 -14.333 -32.5 -19s-25.667 -7 -41 -7c-19.333 0 -37.166 3.5 -53.499 10.5s-32.833 14.833 -49.5 23.5s-34 16.5 -52 23.5s-38.667 10.5 -62 10.5c-22 0 -39.167 -7 -51.5 -21
s-23.166 -31 -32.499 -51l-36 36c5.33301 10.667 11.833 21.167 19.5 31.5s16.5 19.5 26.5 27.5s21.167 14.5 33.5 19.5s25.833 7.5 40.5 7.5c20 0 40.333 -3.5 61 -10.5s40.667 -14.833 60 -23.5l54 -23.5c16.667 -7 30.667 -10.5 42 -10.5c10.667 0 20 2 28 6
s15.5 9.5 22.5 16.5s13.667 14.667 20 23s12.5 17.166 18.5 26.499z" />
    <glyph glyph-name="exclamdown" unicode="&#xa1;" horiz-adv-x="278" 
d="M105 163l9 160h50l9 -160v-383h-68v383zM101 492h76v-116h-76v116z" />
    <glyph glyph-name="cent" unicode="&#xa2;" horiz-adv-x="556" 
d="M260 434c-17.333 -3.33301 -33.834 -10.001 -49.501 -20.001s-29.5 -23.167 -41.5 -39.5s-21.5 -35.666 -28.5 -57.999s-10.5 -47.833 -10.5 -76.5c0 -29.333 3.66699 -55.333 11 -78s17 -42.167 29 -58.5s25.833 -29.333 41.5 -39s31.834 -16.167 48.501 -19.5v389z
M259.999 -10.001c-26.667 2.66699 -51.502 10.668 -74.502 24.001s-43 31 -60 53s-30.333 47.5 -40 76.5s-14.834 61.167 -15.501 96.5c1.33301 68.667 18.5 125.5 51.5 170.5s79.167 71.5 138.5 79.5v110h50v-108c15.333 -0.666992 31.333 -3.16699 48 -7.5
s32.834 -11 48.501 -20s30.334 -21 44.001 -36s25.5 -33.5 35.5 -55.5l-61 -12c-10.667 23.333 -26.167 41.333 -46.5 54s-43.166 19.667 -68.499 21v-392c26 4 48.333 13.167 67 27.5s32.667 31.166 42 50.499l61 -15c-16 -36 -38.5 -64 -67.5 -84
s-63.167 -31.667 -102.5 -35v-108h-50v110z" />
    <glyph glyph-name="sterling" unicode="&#xa3;" horiz-adv-x="556" 
d="M117 38c16.667 0 32.333 2.49902 47 7.49902s26 13.167 34 24.5c-11.333 6.66699 -25 12.167 -41 16.5s-30.333 6.5 -43 6.5c-10 0 -19.167 -1.66699 -27.5 -5s-12.5 -11.666 -12.5 -24.999c0 -9.33301 4.83301 -15.833 14.5 -19.5s19.167 -5.5 28.5 -5.5z
M403.999 282.999l-119.004 -0.00585938c8 -14 14.5 -28.667 19.5 -44s7.5 -30.666 7.5 -45.999c0 -17.333 -2.16699 -33.666 -6.5 -48.999s-12.166 -31.333 -23.499 -48l24.5 -12.5c9.66699 -5 20.167 -10 31.5 -15s23.166 -9.33301 35.499 -13s24.166 -5.5 35.499 -5.5
c14 0 25.333 2.83301 34 8.5s15.334 13.667 20.001 24s7.66699 22.5 9 36.5s2 29.333 2 46v22l68 -7c0 -26.667 -2.16699 -51.667 -6.5 -75s-11.833 -43.666 -22.5 -60.999s-24.5 -31 -41.5 -41s-38.5 -15 -64.5 -15c-28 0 -55.167 6 -81.5 18s-50.833 24 -73.5 36
c-5.33301 -7.33301 -12.5 -14.166 -21.5 -20.499s-19 -12 -30 -17s-22.833 -9 -35.5 -12s-25.334 -4.5 -38.001 -4.5c-14.667 0 -28.834 1.16699 -42.501 3.5s-25.667 6.66602 -36 12.999s-18.666 14.833 -24.999 25.5s-9.5 24 -9.5 40c0 12 2.83301 22.667 8.5 32
s13 17 22 23s19.333 10.5 31 13.5s23.167 4.5 34.5 4.5c20 0 39.333 -2 58 -6s38.334 -10.667 59.001 -20c6.66699 11.333 11.167 23.833 13.5 37.5s3.5 27.167 3.5 40.5c-0.666992 17.333 -4.33398 32.5 -11.001 45.5s-15 27.167 -25 42.5h-138v56h92l-41 41.5
c-14 14.333 -26.667 29.666 -38 45.999s-20.666 34 -27.999 53s-11 39.833 -11 62.5c0 36 7.83301 65.833 23.5 89.5s35.334 42.334 59.001 56.001s48.834 23.167 75.501 28.5s51 8 73 8c28.667 0 56.5 -4.16699 83.5 -12.5s51 -20.666 72 -36.999s37.833 -37 50.5 -62
s19 -54.5 19 -88.5l-68 -11c0 24.667 -4.33301 46.167 -13 64.5s-20.334 33.833 -35.001 46.5s-31.667 22.167 -51 28.5s-39.666 9.5 -60.999 9.5c-22.667 0 -43.667 -2.5 -63 -7.5s-36.166 -12.5 -50.499 -22.5s-25.666 -23 -33.999 -39s-12.5 -35 -12.5 -57
c0 -20.667 5.16699 -40 15.5 -58s22.833 -35.167 37.5 -51.5s30 -31.666 46 -45.999s29.333 -28.166 40 -41.499h153v-56z" />
    <glyph glyph-name="currency" unicode="&#xa4;" horiz-adv-x="556" 
d="M84 197c-17.333 21.333 -30.667 44.835 -40 70.502s-14 53.167 -14 82.5c0 30 4.83301 58 14.5 84s23.167 49.667 40.5 71l-55 55l38 38l56 -55c21.333 17.333 45 30.833 71 40.5s53.667 14.5 83 14.5c30 0 58 -4.83301 84 -14.5s49.667 -22.834 71 -39.501l55 54l38 -38
l-53 -58c17.333 -21.333 30.5 -44.833 39.5 -70.5s13.5 -52.834 13.5 -81.501s-4.66699 -56 -14 -82s-22.333 -50 -39 -72l53 -56l-38 -38l-53 58c-21.333 -18.667 -45.333 -33 -72 -43s-55 -15 -85 -15s-58.333 5 -85 15s-50.667 24.333 -72 43l-53 -58l-38 38z
M79.999 350.002c0 -27.333 5.16699 -53 15.5 -77s24.5 -45 42.5 -63s39 -32.167 63 -42.5s49.667 -15.5 77 -15.5s53 5.16699 77 15.5s45 24.5 63 42.5s32.167 39 42.5 63s15.5 49.667 15.5 77s-5.16699 53 -15.5 77s-24.5 45 -42.5 63s-39 32.167 -63 42.5
s-49.667 15.5 -77 15.5s-53 -5.16699 -77 -15.5s-45 -24.5 -63 -42.5s-32.167 -39 -42.5 -63s-15.5 -49.667 -15.5 -77z" />
    <glyph glyph-name="yen" unicode="&#xa5;" horiz-adv-x="556" 
d="M244 161h-163v50h163v81l-9 16h-154v50h126l-200 354h77l194 -350l197 350h74l-200 -354h126v-50h-154l-9 -16v-81h163v-50h-163v-161h-68v161z" />
    <glyph glyph-name="brokenbar" unicode="&#xa6;" horiz-adv-x="222" 
d="M86 161h50v-250h-50v250zM86 661h50v-250h-50v250z" />
    <glyph glyph-name="section" unicode="&#xa7;" horiz-adv-x="556" 
d="M413 602c-23.333 20 -45.8301 35.9951 -67.4971 47.9951s-48.167 18 -79.5 18c-10.667 0 -21.334 -1.33301 -32.001 -4s-20.334 -6.66699 -29.001 -12s-15.834 -12.333 -21.501 -21s-8.5 -19 -8.5 -31c0 -34.667 15.667 -59 47 -73l182 -85
c28 -13.333 50.333 -29.666 67 -48.999s25 -45 25 -77c0 -33.333 -9.66699 -64.333 -29 -93s-46 -48.334 -80 -59.001c25.333 -12 45.666 -27.333 60.999 -46s23 -42.667 23 -72c0 -25.333 -5.5 -47.5 -16.5 -66.5s-25.167 -35 -42.5 -48s-37.166 -22.833 -59.499 -29.5
s-44.833 -10 -67.5 -10c-24 0 -46.167 2 -66.5 6s-39.666 10 -57.999 18s-36.333 17.833 -54 29.5s-35.834 24.834 -54.501 39.501l48 47c24.667 -22 52.334 -40.5 83.001 -55.5s63 -22.5 97 -22.5c14 0 28.333 1.66699 43 5s27.834 8.83301 39.501 16.5
s21.334 17.334 29.001 29.001s11.5 25.5 11.5 41.5c0 17.333 -7.83301 33.166 -23.5 47.499s-42.5 30.166 -80.5 47.499l-128 58c-18 8 -33.833 16.333 -47.5 25s-25 18.334 -34 29.001s-15.833 22.834 -20.5 36.501s-7 29.5 -7 47.5c0 17.333 3.16699 33.833 9.5 49.5
s14.666 29.834 24.999 42.501s22.666 23.834 36.999 33.501s29.5 17.167 45.5 22.5c-24 15.333 -42 31 -54 47s-18 37 -18 63c0 21.333 4.5 40.333 13.5 57s21 30.834 36 42.501s32 20.5 51 26.5s38.5 9 58.5 9c36 0 70.667 -7.66699 104 -23s62.666 -35.333 87.999 -60z
M338.003 192.995c10.667 6 21.333 13.3359 32 22.0029s20.334 18.167 29.001 28.5s15.667 21.5 21 33.5s8 24.667 8 38c0 20 -6.33301 36.167 -19 48.5s-26.667 22.166 -42 29.499l-137 63c-10 -6 -20.833 -13.167 -32.5 -21.5s-22.5 -17.5 -32.5 -27.5
s-18.333 -20.833 -25 -32.5s-10 -23.834 -10 -36.501c0 -13.333 3.16699 -24.833 9.5 -34.5s14.166 -18.334 23.499 -26.001s19.833 -14.167 31.5 -19.5l32.5 -15z" />
    <glyph glyph-name="dieresis" unicode="&#xa8;" horiz-adv-x="185" 
d="M-20 670h60v-102h-60v102zM145 670h60v-102h-60v102z" />
    <glyph glyph-name="copyright" unicode="&#xa9;" horiz-adv-x="800" 
d="M400 -18c-51.333 0 -99.666 9.83105 -144.999 29.498s-85 46.5 -119 80.5s-60.833 73.667 -80.5 119s-29.5 93.666 -29.5 144.999c0 52 9.83301 100.667 29.5 146s46.5 84.833 80.5 118.5s73.667 60.334 119 80.001s93.666 29.5 144.999 29.5
c52 0 100.667 -9.83301 146 -29.5s84.833 -46.5 118.5 -80.5s60.334 -73.667 80.001 -119s29.5 -93.666 29.5 -144.999s-9.83301 -99.666 -29.5 -144.999s-46.334 -85 -80.001 -119s-73.167 -60.833 -118.5 -80.5s-94 -29.5 -146 -29.5zM714 355.998
c0 44.667 -8.00098 86.834 -24.001 126.501s-38 74 -66 103s-61.167 52 -99.5 69s-79.833 25.5 -124.5 25.5c-44 0 -85.167 -8.5 -123.5 -25.5s-71.666 -40 -99.999 -69s-50.5 -63.333 -66.5 -103s-24 -81.834 -24 -126.501c0 -45.333 8 -87.666 24 -126.999
s38 -73.666 66 -102.999s61.167 -52.333 99.5 -69s79.833 -25 124.5 -25s86.167 8.33301 124.5 25s71.5 39.667 99.5 69s50 63.666 66 102.999s24 81.666 24 126.999zM605.999 277.998c-5.33301 -24 -13.833 -46.168 -25.5 -66.501s-25.834 -37.666 -42.501 -51.999
s-35.667 -25.5 -57 -33.5s-44 -12 -68 -12c-35.333 0 -67.333 6.16699 -96 18.5s-53.167 29.5 -73.5 51.5s-36 47.667 -47 77s-16.5 61 -16.5 95c0 34.667 5.16699 66.667 15.5 96s25.5 54.833 45.5 76.5s44.167 38.5 72.5 50.5s60.5 18 96.5 18
c24.667 0 48.167 -3.5 70.5 -10.5s42.166 -17.333 59.499 -31s31.833 -30.334 43.5 -50.001s19.167 -42.167 22.5 -67.5h-56c-6.66699 30 -22 55.667 -46 77s-55 32 -93 32c-27.333 0 -51.666 -5 -72.999 -15s-39.166 -23.667 -53.499 -41s-25.333 -37.666 -33 -60.999
s-11.5 -48 -11.5 -74c0 -24.667 4 -48.5 12 -71.5s19.5 -43.5 34.5 -61.5s33.167 -32.333 54.5 -43s45.333 -16 72 -16c37.333 0 68 11 92 33s39 49 45 81h56z" />
    <glyph glyph-name="ordfeminine" unicode="&#xaa;" horiz-adv-x="313" 
d="M216 578l-110 -29.0029c-14 -3.33301 -26 -8.66602 -36 -15.999s-15 -18.666 -15 -33.999s6.16699 -25.666 18.5 -30.999s25.833 -8 40.5 -8c12 0 24 2 36 6s22.833 9.5 32.5 16.5s17.667 15 24 24s9.5 18.5 9.5 28.5v43zM302 421.997
c-12 0 -22.834 0.336914 -32.501 1.00391s-18 2.66699 -25 6s-12.667 8.66602 -17 15.999s-7.16602 17.666 -8.49902 30.999h-2c-12 -19.333 -26.833 -33.166 -44.5 -41.499s-38.5 -12.5 -62.5 -12.5c-12.667 0 -24.834 1.5 -36.501 4.5s-22.167 7.5 -31.5 13.5
s-16.833 13.833 -22.5 23.5s-8.5 21.167 -8.5 34.5c0 16 3.33301 29.333 10 40s15.334 19.5 26.001 26.5s22.667 12.667 36 17s26.666 8.16602 39.999 11.499l93 23v20c0 6 -0.5 12 -1.5 18s-4 11.333 -9 16s-12.667 8.5 -23 11.5s-25.166 4.5 -44.499 4.5
c-48 0 -73 -20.333 -75 -61l-44 7c12.667 61.333 53 92 121 92c29.333 0 52 -3.33301 68 -10s27.833 -14.834 35.5 -24.501s12.334 -19.667 14.001 -30s2.5 -18.833 2.5 -25.5v-141c0 -16.667 3.66699 -26.334 11 -29.001s17.666 -4 30.999 -4v-38z" />
    <glyph glyph-name="guillemotleft" unicode="&#xab;" horiz-adv-x="352" 
d="M143 450l48 -32l-103 -155l103 -155l-48 -32l-122 187zM283 450l48 -32l-103 -155l103 -155l-48 -32l-122 187z" />
    <glyph glyph-name="logicalnot" unicode="&#xac;" horiz-adv-x="600" 
d="M503 325h-456v50h506v-267h-50v217z" />
    <glyph glyph-name="minus" unicode="&#xad;" horiz-adv-x="600" 
d="M47 228v50h506v-50h-506z" />
    <glyph glyph-name="registered" unicode="&#xae;" horiz-adv-x="800" 
d="M314 129h-49.998v456h165c20 0 38.5 -2.5 55.5 -7.5s31.667 -12.667 44 -23s22.166 -23.5 29.499 -39.5s11 -34.667 11 -56c0 -36 -9.33301 -65.333 -28 -88s-45.334 -35.667 -80.001 -39l128 -203h-62l-121 203h-92v-203zM314.002 376h103c14.667 0 28.334 1 41.001 3
s23.5 6 32.5 12s16 14.5 21 25.5s7.5 25.167 7.5 42.5c0 29.333 -9.83301 50.333 -29.5 63s-43.834 19 -72.501 19h-103v-165zM400.002 -18c-51.333 0 -99.666 9.83105 -144.999 29.498s-85 46.5 -119 80.5s-60.833 73.667 -80.5 119s-29.5 93.666 -29.5 144.999
c0 52 9.83301 100.667 29.5 146s46.5 84.833 80.5 118.5s73.667 60.334 119 80.001s93.666 29.5 144.999 29.5c52 0 100.667 -9.83301 146 -29.5s84.833 -46.5 118.5 -80.5s60.334 -73.667 80.001 -119s29.5 -93.666 29.5 -144.999s-9.83301 -99.666 -29.5 -144.999
s-46.334 -85 -80.001 -119s-73.167 -60.833 -118.5 -80.5s-94 -29.5 -146 -29.5zM714.002 355.998c0 44.667 -8.00098 86.834 -24.001 126.501s-38 74 -66 103s-61.167 52 -99.5 69s-79.833 25.5 -124.5 25.5c-44 0 -85.167 -8.5 -123.5 -25.5s-71.666 -40 -99.999 -69
s-50.5 -63.333 -66.5 -103s-24 -81.834 -24 -126.501c0 -45.333 8 -87.666 24 -126.999s38 -73.666 66 -102.999s61.167 -52.333 99.5 -69s79.833 -25 124.5 -25s86.167 8.33301 124.5 25s71.5 39.667 99.5 69s50 63.666 66 102.999s24 81.666 24 126.999z" />
    <glyph glyph-name="macron" unicode="&#xaf;" horiz-adv-x="185" 
d="M-36 597v44h257v-44h-257z" />
    <glyph glyph-name="degree" unicode="&#xb0;" horiz-adv-x="400" 
d="M57 581c0 20 3.66699 38.667 11 56s17.5 32.5 30.5 45.5s28.167 23.167 45.5 30.5s36 11 56 11s38.667 -3.66699 56 -11s32.5 -17.5 45.5 -30.5s23.167 -28.167 30.5 -45.5s11 -36 11 -56s-3.66699 -38.667 -11 -56s-17.5 -32.5 -30.5 -45.5s-28.167 -23.167 -45.5 -30.5
s-36 -11 -56 -11s-38.667 3.66699 -56 11s-32.5 17.5 -45.5 30.5s-23.167 28.167 -30.5 45.5s-11 36 -11 56zM95 581c0 -14.667 2.66699 -28.334 8 -41.001s12.833 -23.834 22.5 -33.501s20.834 -17.167 33.501 -22.5s26.334 -8 41.001 -8s28.334 2.66699 41.001 8
s23.667 12.833 33 22.5s16.833 20.834 22.5 33.501s8.5 26.334 8.5 41.001s-2.83301 28.334 -8.5 41.001s-13.167 23.667 -22.5 33s-20.333 16.833 -33 22.5s-26.334 8.5 -41.001 8.5s-28.334 -2.83301 -41.001 -8.5s-23.834 -13.167 -33.501 -22.5
s-17.167 -20.333 -22.5 -33s-8 -26.334 -8 -41.001z" />
    <glyph glyph-name="plusminus" unicode="&#xb1;" horiz-adv-x="600" 
d="M275 506h50v-183h228v-50h-228v-183h-50v183h-228v50h228v183zM47 50h506v-50h-506v50z" />
    <glyph glyph-name="twosuperior" unicode="&#xb2;" horiz-adv-x="361" 
d="M33 334l42 26.998l53.5 35c19 12.667 38 26.334 57 41.001s36 30.167 51 46.5s27.333 33.333 37 51s14.5 35.834 14.5 54.501c0 28 -9.5 50.167 -28.5 66.5s-43.833 24.5 -74.5 24.5c-30 0 -54.833 -7 -74.5 -21s-29.5 -35.667 -29.5 -65
c0 -13.333 2.33301 -26.166 7 -38.499s11.667 -23.5 21 -33.5l-62 5c-5.33301 11.333 -9.33301 23 -12 35s-4 24 -4 36c0 22 4.33301 40.833 13 56.5s20.167 28.667 34.5 39s30.5 18 48.5 23s36.667 7.5 56 7.5c14 0 30 -1.66699 48 -5s34.833 -10.166 50.5 -20.499
s29 -24.833 40 -43.5s16.5 -43 16.5 -73c0 -26.667 -8.33301 -52.834 -25 -78.501s-37 -49.334 -61 -71.001s-48.833 -41 -74.5 -58s-47.5 -30.167 -65.5 -39.5v1v-2h210v-44h-289v44z" />
    <glyph glyph-name="threesuperior" unicode="&#xb3;" horiz-adv-x="361" 
d="M70 426c0 -22 3.83496 -39.499 11.502 -52.499s17.167 -23 28.5 -30s23.666 -11.5 36.999 -13.5s25.666 -3 36.999 -3c12.667 0 25.167 1.5 37.5 4.5s23.5 7.83301 33.5 14.5s18 15 24 25s9 21.667 9 35c0 20 -3.66699 35.667 -11 47s-16.833 19.666 -28.5 24.999
s-24.667 8.66602 -39 9.99902s-28.833 2 -43.5 2h-22h-18.5c-5.66699 0 -12.167 -0.333008 -19.5 -1v46c6.66699 -0.666992 13 -1 19 -1h19h20c36 0 64.167 6.33301 84.5 19s30.5 29.667 30.5 51c0 28.667 -9.33301 48.5 -28 59.5s-41.334 16.5 -68.001 16.5
c-33.333 0 -58.166 -6.33301 -74.499 -19s-26.166 -34 -29.499 -64l-50 11c11.333 41.333 30 71 56 89s60.333 27 103 27c26 0 48 -3.66699 66 -11s32.5 -16.5 43.5 -27.5s19 -23.167 24 -36.5s7.5 -26 7.5 -38c0 -26 -8.16699 -48 -24.5 -66s-40.5 -27.667 -72.5 -29v-2
c3.33301 0 10.833 -0.666992 22.5 -2s23.667 -5.5 36 -12.5s23.333 -17.667 33 -32s14.5 -34.166 14.5 -59.499c0 -20.667 -4 -38.834 -12 -54.501s-19 -28.667 -33 -39s-30.333 -18.166 -49 -23.499s-38.334 -8 -59.001 -8c-47.333 0 -85.5 11 -114.5 33
s-45.833 54.333 -50.5 97z" />
    <glyph glyph-name="acute" unicode="&#xb4;" horiz-adv-x="185" 
d="M142 697h77l-137 -139h-51z" />
    <glyph glyph-name="mu" unicode="&#xb5;" 
d="M63 480l60 0.00195312v-307c0 -48.667 10 -82.334 30 -101.001s49 -28 87 -28c18 0 35.333 3 52 9s31.167 15.5 43.5 28.5s22.333 29.167 30 48.5s11.5 42.666 11.5 69.999v280h60v-480h-60v76h-2c-15.333 -33.333 -36 -56.333 -62 -69s-53 -19 -81 -19
c-25.333 0 -47 4.66699 -65 14s-32.667 19.333 -44 30v-280h-60v728z" />
    <glyph glyph-name="paragraph" unicode="&#xb6;" horiz-adv-x="600" 
d="M273 326c-27.333 0 -53.5 4.83301 -78.5 14.5s-47 23 -66 40s-34.167 37.333 -45.5 61s-17 49.5 -17 77.5c0 58.667 19 105.5 57 140.5s93.333 52.5 166 52.5h217v-802h-50v758h-133v-758h-50v416z" />
    <glyph glyph-name="periodcentered" unicode="&#xb7;" horiz-adv-x="278" 
d="M85 313c0 15.333 5.16699 28.166 15.5 38.499s23.166 15.5 38.499 15.5s28.166 -5.16699 38.499 -15.5s15.5 -23.166 15.5 -38.499s-5.16699 -28.166 -15.5 -38.499s-23.166 -15.5 -38.499 -15.5s-28.166 5.16699 -38.499 15.5s-15.5 23.166 -15.5 38.499z" />
    <glyph glyph-name="periodcentered" unicode="&#x2219;" horiz-adv-x="278" 
d="M85 313c0 15.333 5.16699 28.166 15.5 38.499s23.166 15.5 38.499 15.5s28.166 -5.16699 38.499 -15.5s15.5 -23.166 15.5 -38.499s-5.16699 -28.166 -15.5 -38.499s-23.166 -15.5 -38.499 -15.5s-28.166 5.16699 -38.499 15.5s-15.5 23.166 -15.5 38.499z" />
    <glyph glyph-name="cedilla" unicode="&#xb8;" horiz-adv-x="185" 
d="M37 -159c7.33301 -4 16.832 -8.00195 28.499 -12.002s23.834 -6 36.501 -6c8 0 15.833 0.833008 23.5 2.5s14.667 4.5 21 8.5s11.5 9 15.5 15s6 13.667 6 23c0 8.66699 -1.83301 15.667 -5.5 21s-8.16699 9.5 -13.5 12.5s-11.166 5.16699 -17.499 6.5s-11.833 2 -16.5 2
c-9.33301 0 -17.666 -1.16699 -24.999 -3.5s-13.333 -4.5 -18 -6.5l-15 13l60 83h38l-46 -58l2 -2c5.33301 2.66699 10.666 4.33398 15.999 5.00098s12.666 1 21.999 1c6 0 13.333 -1 22 -3s16.834 -5.66699 24.501 -11s14.334 -12.666 20.001 -21.999s8.5 -21.333 8.5 -36
c0 -7.33301 -1.5 -15.833 -4.5 -25.5s-8.83301 -18.667 -17.5 -27s-20.334 -15.5 -35.001 -21.5s-33.334 -9 -56.001 -9c-18 0 -34.5 2.16699 -49.5 6.5s-28.167 8.83301 -39.5 13.5z" />
    <glyph glyph-name="onesuperior" unicode="&#xb9;" horiz-adv-x="361" 
d="M90 652c9.33301 0 19.166 0.665039 29.499 1.99805s19.666 4.33301 27.999 9s15.333 11.334 21 20.001s8.5 20 8.5 34h49v-427h-50v336c-13.333 -7.33301 -27.166 -12.166 -41.499 -14.499s-29.166 -3.5 -44.499 -3.5v44z" />
    <glyph glyph-name="ordmasculine" unicode="&#xba;" horiz-adv-x="325" 
d="M22 574c0 20 3.00391 39 9.00391 57s14.833 34 26.5 48s26.167 25 43.5 33s37.666 12 60.999 12s43.833 -4 61.5 -12s32.334 -19 44.001 -33s20.5 -30 26.5 -48s9 -37 9 -57c0.666992 -20.667 -1.83301 -40.167 -7.5 -58.5s-14.334 -34.5 -26.001 -48.5
s-26.334 -25 -44.001 -33s-38.5 -12 -62.5 -12s-44.833 4 -62.5 12s-32.334 19 -44.001 33s-20.334 30.167 -26.001 48.5s-8.5 37.833 -8.5 58.5zM66.0039 572c0 -14 1.66699 -27.667 5 -41s8.83301 -25.333 16.5 -36s17.5 -19.167 29.5 -25.5s27 -9.5 45 -9.5
s33.167 3.16699 45.5 9.5s22.333 14.833 30 25.5s13.167 22.667 16.5 36s5 27 5 41s-1.66699 27.833 -5 41.5s-8.83301 25.834 -16.5 36.501s-17.667 19.334 -30 26.001s-27.5 10 -45.5 10s-33 -3.33301 -45 -10s-21.833 -15.334 -29.5 -26.001
s-13.167 -22.834 -16.5 -36.501s-5 -27.5 -5 -41.5z" />
    <glyph glyph-name="guillemotright" unicode="&#xbb;" horiz-adv-x="352" 
d="M264 263l-103 155l48 32l122 -187l-122 -187l-48 32zM124 263l-103 155l48 32l122 -187l-122 -187l-48 32z" />
    <glyph glyph-name="onequarter" unicode="&#xbc;" horiz-adv-x="834" 
d="M432 140l202 287h54v-281h62v-44h-62v-102h-50v102h-206v38zM638 146v213h-2l-149 -213h151zM140 -18l441 748h55l-442 -748h-54zM90 652c9.33301 0 19.166 0.665039 29.499 1.99805s19.666 4.33301 27.999 9s15.333 11.334 21 20.001s8.5 20 8.5 34h49v-427h-50v336
c-13.333 -7.33301 -27.166 -12.166 -41.499 -14.499s-29.166 -3.5 -44.499 -3.5v44z" />
    <glyph glyph-name="onehalf" unicode="&#xbd;" horiz-adv-x="834" 
d="M110 -18l441 748h55l-442 -748h-54zM90 652c9.33301 0 19.166 0.665039 29.499 1.99805s19.666 4.33301 27.999 9s15.333 11.334 21 20.001s8.5 20 8.5 34h49v-427h-50v336c-13.333 -7.33301 -27.166 -12.166 -41.499 -14.499s-29.166 -3.5 -44.499 -3.5v44zM446 43.998
c10.667 7.33301 24.5 16.3311 41.5 26.998l54 35c19 12.667 38 26.334 57 41.001s36 30.167 51 46.5s27.333 33.333 37 51s14.5 35.834 14.5 54.501c0 28 -9.5 50.167 -28.5 66.5s-43.833 24.5 -74.5 24.5c-30 0 -54.833 -7 -74.5 -21s-29.5 -35.667 -29.5 -65
c0 -13.333 2.33301 -26.166 7 -38.499s11.667 -23.5 21 -33.5l-62 5c-5.33301 11.333 -9.33301 23 -12 35s-4 24 -4 36c0 22 4.33301 40.833 13 56.5s20.167 28.667 34.5 39s30.5 18 48.5 23s36.667 7.5 56 7.5c14 0 30 -1.66699 48 -5s34.833 -10.166 50.5 -20.499
s29 -24.833 40 -43.5s16.5 -43 16.5 -73c0 -26.667 -8.33301 -52.834 -25 -78.501s-37 -49.334 -61 -71.001s-48.833 -41 -74.5 -58s-47.5 -30.167 -65.5 -39.5v1v-2h210v-44h-289v44z" />
    <glyph glyph-name="threequarters" unicode="&#xbe;" horiz-adv-x="834" 
d="M475 140l202 287h54v-281h62v-44h-62v-102h-50v102h-206v38zM681 146v213h-2l-149 -213h151zM200 -18l441 748h55l-442 -748h-54zM66 426c0 -21.333 3.83398 -38.5029 11.501 -51.5029s17.334 -23 29.001 -30s24.167 -11.667 37.5 -14s25.666 -3.5 36.999 -3.5
c14 0 27.167 1.66699 39.5 5s23.333 8.33301 33 15s17.334 14.834 23.001 24.501s8.5 21.167 8.5 34.5c0 20 -4.16699 35.667 -12.5 47s-18.833 20 -31.5 26c-11.333 6 -23.5 9.5 -36.5 10.5s-26.833 1.5 -41.5 1.5h-22h-18.5c-5.66699 0 -12.167 -0.333008 -19.5 -1v46
c6.66699 -0.666992 13 -1 19 -1h19h20c36 0 64.167 6.33301 84.5 19s30.5 29.334 30.5 50.001c0 26.667 -8.83301 46 -26.5 58s-40.834 18 -69.501 18c-62.667 0 -97.667 -27.667 -105 -83l-50 11c11.333 41.333 30 71 56 89s60.667 27 104 27c26 0 48 -3.66699 66 -11
s32.5 -16.5 43.5 -27.5s19 -23.167 24 -36.5s7.5 -26 7.5 -38c0 -26 -8.16699 -48 -24.5 -66s-40.5 -27.667 -72.5 -29v-2c3.33301 0 10.666 -0.666992 21.999 -2s23.333 -5.5 36 -12.5s23.834 -17.667 33.501 -32s14.5 -34.166 14.5 -59.499
c0 -20.667 -4.16699 -38.834 -12.5 -54.501s-19.5 -28.667 -33.5 -39s-30.333 -18.166 -49 -23.499s-38.334 -8 -59.001 -8c-46.667 0 -84.667 11 -114 33s-46.333 54.333 -51 97z" />
    <glyph glyph-name="questiondown" unicode="&#xbf;" horiz-adv-x="481" 
d="M288 318l-0.00195312 -59.9961c0 -21.333 -4.33301 -40.166 -13 -56.499s-19.667 -31.333 -33 -45s-27.666 -27 -42.999 -40s-29.666 -27 -42.999 -42s-24.333 -31.833 -33 -50.5s-13 -40.667 -13 -66c0 -20 3.33301 -38.167 10 -54.5s16 -30.333 28 -42
s26 -20.834 42 -27.501s33.667 -10 53 -10s37.333 3.33301 54 10s31 15.667 43 27s21.5 24.666 28.5 39.999s10.5 32 10.5 50c0 11.333 -0.666992 21.333 -2 30s-3.16602 17 -5.49902 25s-5.16602 16.167 -8.49902 24.5l-11 27.5l75 -22
c5.33301 -15.333 8.66602 -30.833 9.99902 -46.5s2 -31.167 2 -46.5c0 -19.333 -3.33301 -39.5 -10 -60.5s-17.5 -40.5 -32.5 -58.5s-35.167 -32.833 -60.5 -44.5s-56.333 -17.5 -93 -17.5c-29.333 0 -56.333 4.66699 -81 14s-45.834 22.5 -63.501 39.5
s-31.5 37.667 -41.5 62s-15 51.166 -15 80.499c0 31.333 4.66699 58.166 14 80.499s20.833 42.166 34.5 59.499s28.5 32.833 44.5 46.5s30.833 27.334 44.5 41.001s25.167 28.167 34.5 43.5s14 33.666 14 54.999v34h60zM295.998 492.004v-116h-76v116h76z" />
    <glyph glyph-name="Agrave" unicode="&#xc0;" horiz-adv-x="611" 
d="M340 712l276 -712h-73l-80 214h-313l-85 -214h-70l290 712h55zM441 270l-132 351l-136 -351h268zM179 894h77l111 -139h-51z" />
    <glyph glyph-name="Aacute" unicode="&#xc1;" horiz-adv-x="611" 
d="M340 712l276 -712h-73l-80 214h-313l-85 -214h-70l290 712h55zM441 270l-132 351l-136 -351h268zM355 894h77l-137 -139h-51z" />
    <glyph glyph-name="Acircumflex" unicode="&#xc2;" horiz-adv-x="611" 
d="M340 712l276 -712h-73l-80 214h-313l-85 -214h-70l290 712h55zM441 270l-132 351l-136 -351h268zM222 755h-63l112 139h67l114 -139h-65l-82 102z" />
    <glyph glyph-name="Atilde" unicode="&#xc3;" horiz-adv-x="611" 
d="M340 712l276 -712h-73l-80 214h-313l-85 -214h-70l290 712h55zM441 270l-132 351l-136 -351h268zM149 766c2.66699 20.667 7.83594 37.498 15.5029 50.498s16.167 23 25.5 30s18.166 11.667 26.499 14s14.166 3.5 17.499 3.5c13.333 0 26.5 -2.33301 39.5 -7
s25.5 -9.66699 37.5 -15s23.667 -10.166 35 -14.499s22.666 -6.5 33.999 -6.5c14.667 0 24.667 4.33301 30 13s10 20 14 34h38c-1.33301 -11.333 -3.83301 -22.833 -7.5 -34.5s-9 -22.167 -16 -31.5s-15.333 -16.833 -25 -22.5s-20.834 -8.5 -33.501 -8.5
c-13.333 0 -26.333 2.33301 -39 7s-25 10 -37 16c-12.667 5.33301 -24.667 10 -36 14s-22.666 6 -33.999 6c-14.667 0 -25.5 -5.16699 -32.5 -15.5s-12.167 -21.166 -15.5 -32.499h-37z" />
    <glyph glyph-name="Adieresis" unicode="&#xc4;" horiz-adv-x="611" 
d="M340 712l276 -712h-73l-80 214h-313l-85 -214h-70l290 712h55zM441 270l-132 351l-136 -351h268zM193 867h60v-102h-60v102zM358 867h60v-102h-60v102z" />
    <glyph glyph-name="Aring" unicode="&#xc5;" horiz-adv-x="611" 
d="M340 712l276 -712h-73l-80 214h-313l-85 -214h-70l290 712h55zM441 270l-132 351l-136 -351h268zM245 831c0 -18.667 6.5 -34.5 19.5 -47.5s28.833 -19.5 47.5 -19.5s34.667 6.5 48 19.5s20 28.833 20 47.5c0 19.333 -6.66699 35.5 -20 48.5s-29.333 19.5 -48 19.5
s-34.5 -6.5 -47.5 -19.5s-19.5 -29.167 -19.5 -48.5zM213 831c0 28 9.5 51.667 28.5 71s42.5 29 70.5 29s51.667 -9.66699 71 -29s29 -43 29 -71c0 -13.333 -2.66699 -26 -8 -38s-12.5 -22.5 -21.5 -31.5s-19.5 -16.167 -31.5 -21.5s-25 -8 -39 -8s-27 2.66699 -39 8
s-22.5 12.5 -31.5 21.5s-16 19.5 -21 31.5s-7.5 24.667 -7.5 38z" />
    <glyph glyph-name="AE" unicode="&#xc6;" horiz-adv-x="1000" 
d="M234 268h228v364h-2zM442 712h499v-62h-411v-252h370v-62h-370v-274h429v-62h-497v206h-270l-128 -206h-79z" />
    <glyph glyph-name="Ccedilla" unicode="&#xc7;" horiz-adv-x="648" 
d="M336 -17c-40.667 0.666992 -78.832 8.33496 -114.499 23.002s-66.667 37 -93 67s-47 68.333 -62 115s-22.5 102.667 -22.5 168c0 67.333 8.33301 124.666 25 171.999s38.834 86 66.501 116s59.5 51.833 95.5 65.5s73.333 20.5 112 20.5c35.333 0 67.333 -3.33301 96 -10
s54.5 -17.334 77.5 -32.001s43.5 -33.667 61.5 -57s34 -51.666 48 -84.999l-68 -34c-7.33301 24.667 -16.333 46.667 -27 66s-24 35.666 -40 48.999s-35.5 23.5 -58.5 30.5s-50.5 10.5 -82.5 10.5c-40 0 -74.833 -7.5 -104.5 -22.5s-54.334 -36.167 -74.001 -63.5
s-34.5 -60.166 -44.5 -98.499s-15 -80.833 -15 -127.5c0 -56.667 6.16699 -104.834 18.5 -144.501s29.666 -71.834 51.999 -96.501s48.666 -42.667 78.999 -54s63.5 -17 99.5 -17c56 0 99.333 13.5 130 40.5s54 63.833 70 110.5l65 -35
c-23.333 -60 -56.5 -103.833 -99.5 -131.5s-94.167 -42.834 -153.5 -45.501l-32 -41l2 -2c5.33301 2.66699 10.666 4.33398 15.999 5.00098s12.666 1 21.999 1c6 0 13.333 -1 22 -3s16.834 -5.66699 24.501 -11s14.334 -12.666 20.001 -21.999s8.5 -21.333 8.5 -36
c0 -7.33301 -1.5 -15.833 -4.5 -25.5s-8.83301 -18.667 -17.5 -27s-20.334 -15.5 -35.001 -21.5s-33.334 -9 -56.001 -9c-18 0 -34.5 2.16699 -49.5 6.5s-28.167 8.83301 -39.5 13.5l15 30c7.33301 -4 16.833 -8 28.5 -12s23.834 -6 36.501 -6c8 0 15.833 0.833008 23.5 2.5
s14.667 4.5 21 8.5s11.5 9 15.5 15s6 13.667 6 23c0 8.66699 -1.83301 15.667 -5.5 21s-8.16699 9.5 -13.5 12.5s-11.166 5.16699 -17.499 6.5s-11.833 2 -16.5 2c-9.33301 0 -17.666 -1.16699 -24.999 -3.5s-13.333 -4.5 -18 -6.5l-15 13z" />
    <glyph glyph-name="Egrave" unicode="&#xc8;" horiz-adv-x="593" 
d="M65 712h466v-62h-398v-252h359v-62h-359v-274h419v-62h-487v712zM170 894h77l111 -139h-51z" />
    <glyph glyph-name="Eacute" unicode="&#xc9;" horiz-adv-x="593" 
d="M65 712h466v-62h-398v-252h359v-62h-359v-274h419v-62h-487v712zM346 894h77l-137 -139h-51z" />
    <glyph glyph-name="Ecircumflex" unicode="&#xca;" horiz-adv-x="593" 
d="M65 712h466v-62h-398v-252h359v-62h-359v-274h419v-62h-487v712zM213 755h-63l112 139h67l114 -139h-65l-82 102z" />
    <glyph glyph-name="Edieresis" unicode="&#xcb;" horiz-adv-x="593" 
d="M65 712h466v-62h-398v-252h359v-62h-359v-274h419v-62h-487v712zM184 867h60v-102h-60v102zM349 867h60v-102h-60v102z" />
    <glyph glyph-name="Igrave" unicode="&#xcc;" horiz-adv-x="222" 
d="M77 712h68v-712h-68v712zM-15 894h77l111 -139h-51z" />
    <glyph glyph-name="Iacute" unicode="&#xcd;" horiz-adv-x="222" 
d="M77 712h68v-712h-68v712zM161 894h77l-137 -139h-51z" />
    <glyph glyph-name="Icircumflex" unicode="&#xce;" horiz-adv-x="222" 
d="M77 712h68v-712h-68v712zM28 755h-63l112 139h67l114 -139h-65l-82 102z" />
    <glyph glyph-name="Idieresis" unicode="&#xcf;" horiz-adv-x="222" 
d="M77 712h68v-712h-68v712zM-1 867h60v-102h-60v102zM164 867h60v-102h-60v102z" />
    <glyph glyph-name="Eth" unicode="&#xd0;" horiz-adv-x="685" 
d="M148 412l202 0.00195312v-44h-202v-306h217c37.333 0 69.166 9.16699 95.499 27.5s47.833 41.666 64.5 69.999s28.834 59.833 36.501 94.5s11.5 68.667 11.5 102c0 32.667 -3.83301 66.5 -11.5 101.5s-19.834 66.667 -36.501 95s-38.167 51.666 -64.5 69.999
s-58.166 27.5 -95.499 27.5h-217v-238zM80 712.002l291.998 0.000976562c32.667 0 62 -5.16699 88 -15.5s49 -24.333 69 -42s37 -38.334 51 -62.001s25.5 -48.667 34.5 -75s15.667 -53.333 20 -81s6.5 -54.5 6.5 -80.5c0 -36 -4.83301 -74.833 -14.5 -116.5
s-26.167 -80.167 -49.5 -115.5s-54.166 -64.833 -92.499 -88.5s-86.166 -35.5 -143.499 -35.5h-261v368h-55v44h55v300z" />
    <glyph glyph-name="Ntilde" unicode="&#xd1;" horiz-adv-x="704" 
d="M80 712h67l407 -598h2v598h68v-712h-67l-407 598h-2v-598h-68v712zM196 766c2.66699 20.667 7.83594 37.498 15.5029 50.498s16.167 23 25.5 30s18.166 11.667 26.499 14s14.166 3.5 17.499 3.5c13.333 0 26.5 -2.33301 39.5 -7s25.5 -9.66699 37.5 -15
s23.667 -10.166 35 -14.499s22.666 -6.5 33.999 -6.5c14.667 0 24.667 4.33301 30 13s10 20 14 34h38c-1.33301 -11.333 -3.83301 -22.833 -7.5 -34.5s-9 -22.167 -16 -31.5s-15.333 -16.833 -25 -22.5s-20.834 -8.5 -33.501 -8.5c-13.333 0 -26.333 2.33301 -39 7
s-25 10 -37 16c-12.667 5.33301 -24.667 10 -36 14s-22.666 6 -33.999 6c-14.667 0 -25.5 -5.16699 -32.5 -15.5s-12.167 -21.166 -15.5 -32.499h-37z" />
    <glyph glyph-name="Ograve" unicode="&#xd2;" horiz-adv-x="704" 
d="M44 356c0 47.333 6.16699 93.333 18.5 138s31.166 84.5 56.499 119.5s57.333 63.167 96 84.5s84.334 32 137.001 32s98.334 -10.667 137.001 -32s70.667 -49.5 96 -84.5s44.166 -74.833 56.499 -119.5s18.5 -90.667 18.5 -138s-6.16699 -93.333 -18.5 -138
s-31.166 -84.5 -56.499 -119.5s-57.333 -63.167 -96 -84.5s-84.334 -32 -137.001 -32s-98.334 10.667 -137.001 32s-70.667 49.5 -96 84.5s-44.166 74.833 -56.499 119.5s-18.5 90.667 -18.5 138zM112 356c0 -37.333 4.5 -74.5 13.5 -111.5s23.333 -70.333 43 -100
s44.667 -53.834 75 -72.501s66.5 -28 108.5 -28s78.167 9.33301 108.5 28s55.333 42.834 75 72.501s34 63 43 100s13.5 74.167 13.5 111.5c0 36.667 -4.5 73.667 -13.5 111s-23.333 70.833 -43 100.5s-44.667 53.834 -75 72.501s-66.5 28 -108.5 28
s-78.167 -9.33301 -108.5 -28s-55.333 -42.834 -75 -72.501s-34 -63.167 -43 -100.5s-13.5 -74.333 -13.5 -111zM226 894h77l111 -139h-51z" />
    <glyph glyph-name="Oacute" unicode="&#xd3;" horiz-adv-x="704" 
d="M44 356c0 47.333 6.16699 93.333 18.5 138s31.166 84.5 56.499 119.5s57.333 63.167 96 84.5s84.334 32 137.001 32s98.334 -10.667 137.001 -32s70.667 -49.5 96 -84.5s44.166 -74.833 56.499 -119.5s18.5 -90.667 18.5 -138s-6.16699 -93.333 -18.5 -138
s-31.166 -84.5 -56.499 -119.5s-57.333 -63.167 -96 -84.5s-84.334 -32 -137.001 -32s-98.334 10.667 -137.001 32s-70.667 49.5 -96 84.5s-44.166 74.833 -56.499 119.5s-18.5 90.667 -18.5 138zM112 356c0 -37.333 4.5 -74.5 13.5 -111.5s23.333 -70.333 43 -100
s44.667 -53.834 75 -72.501s66.5 -28 108.5 -28s78.167 9.33301 108.5 28s55.333 42.834 75 72.501s34 63 43 100s13.5 74.167 13.5 111.5c0 36.667 -4.5 73.667 -13.5 111s-23.333 70.833 -43 100.5s-44.667 53.834 -75 72.501s-66.5 28 -108.5 28
s-78.167 -9.33301 -108.5 -28s-55.333 -42.834 -75 -72.501s-34 -63.167 -43 -100.5s-13.5 -74.333 -13.5 -111zM402 894h77l-137 -139h-51z" />
    <glyph glyph-name="Ocircumflex" unicode="&#xd4;" horiz-adv-x="704" 
d="M44 356c0 47.333 6.16699 93.333 18.5 138s31.166 84.5 56.499 119.5s57.333 63.167 96 84.5s84.334 32 137.001 32s98.334 -10.667 137.001 -32s70.667 -49.5 96 -84.5s44.166 -74.833 56.499 -119.5s18.5 -90.667 18.5 -138s-6.16699 -93.333 -18.5 -138
s-31.166 -84.5 -56.499 -119.5s-57.333 -63.167 -96 -84.5s-84.334 -32 -137.001 -32s-98.334 10.667 -137.001 32s-70.667 49.5 -96 84.5s-44.166 74.833 -56.499 119.5s-18.5 90.667 -18.5 138zM112 356c0 -37.333 4.5 -74.5 13.5 -111.5s23.333 -70.333 43 -100
s44.667 -53.834 75 -72.501s66.5 -28 108.5 -28s78.167 9.33301 108.5 28s55.333 42.834 75 72.501s34 63 43 100s13.5 74.167 13.5 111.5c0 36.667 -4.5 73.667 -13.5 111s-23.333 70.833 -43 100.5s-44.667 53.834 -75 72.501s-66.5 28 -108.5 28
s-78.167 -9.33301 -108.5 -28s-55.333 -42.834 -75 -72.501s-34 -63.167 -43 -100.5s-13.5 -74.333 -13.5 -111zM269 755h-63l112 139h67l114 -139h-65l-82 102z" />
    <glyph glyph-name="Otilde" unicode="&#xd5;" horiz-adv-x="704" 
d="M44 356c0 47.333 6.16699 93.333 18.5 138s31.166 84.5 56.499 119.5s57.333 63.167 96 84.5s84.334 32 137.001 32s98.334 -10.667 137.001 -32s70.667 -49.5 96 -84.5s44.166 -74.833 56.499 -119.5s18.5 -90.667 18.5 -138s-6.16699 -93.333 -18.5 -138
s-31.166 -84.5 -56.499 -119.5s-57.333 -63.167 -96 -84.5s-84.334 -32 -137.001 -32s-98.334 10.667 -137.001 32s-70.667 49.5 -96 84.5s-44.166 74.833 -56.499 119.5s-18.5 90.667 -18.5 138zM112 356c0 -37.333 4.5 -74.5 13.5 -111.5s23.333 -70.333 43 -100
s44.667 -53.834 75 -72.501s66.5 -28 108.5 -28s78.167 9.33301 108.5 28s55.333 42.834 75 72.501s34 63 43 100s13.5 74.167 13.5 111.5c0 36.667 -4.5 73.667 -13.5 111s-23.333 70.833 -43 100.5s-44.667 53.834 -75 72.501s-66.5 28 -108.5 28
s-78.167 -9.33301 -108.5 -28s-55.333 -42.834 -75 -72.501s-34 -63.167 -43 -100.5s-13.5 -74.333 -13.5 -111zM196 766c2.66699 20.667 7.83594 37.498 15.5029 50.498s16.167 23 25.5 30s18.166 11.667 26.499 14s14.166 3.5 17.499 3.5c13.333 0 26.5 -2.33301 39.5 -7
s25.5 -9.66699 37.5 -15s23.667 -10.166 35 -14.499s22.666 -6.5 33.999 -6.5c14.667 0 24.667 4.33301 30 13s10 20 14 34h38c-1.33301 -11.333 -3.83301 -22.833 -7.5 -34.5s-9 -22.167 -16 -31.5s-15.333 -16.833 -25 -22.5s-20.834 -8.5 -33.501 -8.5
c-13.333 0 -26.333 2.33301 -39 7s-25 10 -37 16c-12.667 5.33301 -24.667 10 -36 14s-22.666 6 -33.999 6c-14.667 0 -25.5 -5.16699 -32.5 -15.5s-12.167 -21.166 -15.5 -32.499h-37z" />
    <glyph glyph-name="Odieresis" unicode="&#xd6;" horiz-adv-x="704" 
d="M44 356c0 47.333 6.16699 93.333 18.5 138s31.166 84.5 56.499 119.5s57.333 63.167 96 84.5s84.334 32 137.001 32s98.334 -10.667 137.001 -32s70.667 -49.5 96 -84.5s44.166 -74.833 56.499 -119.5s18.5 -90.667 18.5 -138s-6.16699 -93.333 -18.5 -138
s-31.166 -84.5 -56.499 -119.5s-57.333 -63.167 -96 -84.5s-84.334 -32 -137.001 -32s-98.334 10.667 -137.001 32s-70.667 49.5 -96 84.5s-44.166 74.833 -56.499 119.5s-18.5 90.667 -18.5 138zM112 356c0 -37.333 4.5 -74.5 13.5 -111.5s23.333 -70.333 43 -100
s44.667 -53.834 75 -72.501s66.5 -28 108.5 -28s78.167 9.33301 108.5 28s55.333 42.834 75 72.501s34 63 43 100s13.5 74.167 13.5 111.5c0 36.667 -4.5 73.667 -13.5 111s-23.333 70.833 -43 100.5s-44.667 53.834 -75 72.501s-66.5 28 -108.5 28
s-78.167 -9.33301 -108.5 -28s-55.333 -42.834 -75 -72.501s-34 -63.167 -43 -100.5s-13.5 -74.333 -13.5 -111zM240 867h60v-102h-60v102zM405 867h60v-102h-60v102z" />
    <glyph glyph-name="multiply" unicode="&#xd7;" horiz-adv-x="600" 
d="M300 290l190 189l36 -36l-191 -190l191 -190l-36 -36l-190 191l-190 -191l-36 36l191 190l-191 190l36 36z" />
    <glyph glyph-name="Oslash" unicode="&#xd8;" horiz-adv-x="704" 
d="M516 593c-19.333 22.667 -42.5 40.834 -69.5 54.501s-58.5 20.5 -94.5 20.5c-42 0 -78.167 -9.33301 -108.5 -28s-55.333 -42.834 -75 -72.501s-34 -63.167 -43 -100.5s-13.5 -74.333 -13.5 -111c0 -34 3.83301 -67.667 11.5 -101s19.5 -64.333 35.5 -93zM190 117
c18.667 -22 41.333 -39.667 68 -53s58 -20 94 -20c42 0 78.167 9.33301 108.5 28s55.333 42.834 75 72.501s34 63 43 100s13.5 74.167 13.5 111.5c0 33.333 -3.66699 66.666 -11 99.999s-19 64 -35 92zM113.999 108c-24 34 -41.666 72.5 -52.999 115.5s-17 87.167 -17 132.5
c0 47.333 6.16699 93.333 18.5 138s31.166 84.5 56.499 119.5s57.333 63.167 96 84.5s84.334 32 137.001 32c45.333 0 85.166 -7.83301 119.499 -23.5s63.5 -36.5 87.5 -62.5l61 74l40 -33l-68 -82c23.333 -34 40.5 -72.333 51.5 -115s16.5 -86.667 16.5 -132
c0 -47.333 -6.16699 -93.333 -18.5 -138s-31.166 -84.5 -56.499 -119.5s-57.333 -63.167 -96 -84.5s-84.334 -32 -137.001 -32c-44 0 -83 7.5 -117 22.5s-63.333 35.5 -88 61.5l-60 -72l-41 32z" />
    <glyph glyph-name="Ugrave" unicode="&#xd9;" horiz-adv-x="666" 
d="M595 231c0 -40.667 -6.16895 -76.5 -18.502 -107.5s-30 -57 -53 -78s-50.667 -36.833 -83 -47.5s-68.166 -16 -107.499 -16s-75.166 5.33301 -107.499 16s-60 26.5 -83 47.5s-40.667 47 -53 78s-18.5 66.833 -18.5 107.5v481h68v-479c0 -34.667 5.16699 -64 15.5 -88
s24.166 -43.5 41.499 -58.5s37.833 -25.833 61.5 -32.5s48.834 -10 75.501 -10s51.834 3.33301 75.501 10s44.167 17.5 61.5 32.5s31.166 34.5 41.499 58.5s15.5 53.333 15.5 88v479h68v-481zM206.998 894h77l111 -139h-51z" />
    <glyph glyph-name="Uacute" unicode="&#xda;" horiz-adv-x="666" 
d="M595 231c0 -40.667 -6.16895 -76.5 -18.502 -107.5s-30 -57 -53 -78s-50.667 -36.833 -83 -47.5s-68.166 -16 -107.499 -16s-75.166 5.33301 -107.499 16s-60 26.5 -83 47.5s-40.667 47 -53 78s-18.5 66.833 -18.5 107.5v481h68v-479c0 -34.667 5.16699 -64 15.5 -88
s24.166 -43.5 41.499 -58.5s37.833 -25.833 61.5 -32.5s48.834 -10 75.501 -10s51.834 3.33301 75.501 10s44.167 17.5 61.5 32.5s31.166 34.5 41.499 58.5s15.5 53.333 15.5 88v479h68v-481zM382.998 894h77l-137 -139h-51z" />
    <glyph glyph-name="Ucircumflex" unicode="&#xdb;" horiz-adv-x="666" 
d="M595 231c0 -40.667 -6.16895 -76.5 -18.502 -107.5s-30 -57 -53 -78s-50.667 -36.833 -83 -47.5s-68.166 -16 -107.499 -16s-75.166 5.33301 -107.499 16s-60 26.5 -83 47.5s-40.667 47 -53 78s-18.5 66.833 -18.5 107.5v481h68v-479c0 -34.667 5.16699 -64 15.5 -88
s24.166 -43.5 41.499 -58.5s37.833 -25.833 61.5 -32.5s48.834 -10 75.501 -10s51.834 3.33301 75.501 10s44.167 17.5 61.5 32.5s31.166 34.5 41.499 58.5s15.5 53.333 15.5 88v479h68v-481zM249.998 755h-63l112 139h67l114 -139h-65l-82 102z" />
    <glyph glyph-name="Udieresis" unicode="&#xdc;" horiz-adv-x="666" 
d="M595 231c0 -40.667 -6.16895 -76.5 -18.502 -107.5s-30 -57 -53 -78s-50.667 -36.833 -83 -47.5s-68.166 -16 -107.499 -16s-75.166 5.33301 -107.499 16s-60 26.5 -83 47.5s-40.667 47 -53 78s-18.5 66.833 -18.5 107.5v481h68v-479c0 -34.667 5.16699 -64 15.5 -88
s24.166 -43.5 41.499 -58.5s37.833 -25.833 61.5 -32.5s48.834 -10 75.501 -10s51.834 3.33301 75.501 10s44.167 17.5 61.5 32.5s31.166 34.5 41.499 58.5s15.5 53.333 15.5 88v479h68v-481zM220.998 867h60v-102h-60v102zM385.998 867h60v-102h-60v102z" />
    <glyph glyph-name="Yacute" unicode="&#xdd;" horiz-adv-x="610" 
d="M271 297l-268 415h82l222 -352l222 352h78l-268 -415v-297h-68v297zM355 894h77l-137 -139h-51z" />
    <glyph glyph-name="Thorn" unicode="&#xde;" horiz-adv-x="630" 
d="M80 712h67.998v-113h296c28.667 0 53.834 -5.5 75.501 -16.5s39.667 -25.5 54 -43.5s25 -38.667 32 -62s10.5 -47.333 10.5 -72c0 -33.333 -5.83301 -62.333 -17.5 -87s-26.5 -45 -44.5 -61s-38.167 -27.833 -60.5 -35.5s-44.166 -11.5 -65.499 -11.5h-280v-210h-68v712z
M147.998 272h274.001c12.667 0 26.5 2.5 41.5 7.5s28.667 12.833 41 23.5s22.666 24.5 30.999 41.5s12.5 37.167 12.5 60.5c0 10.667 -1 23.5 -3 38.5s-7 29.5 -15 43.5s-19.667 25.833 -35 35.5s-36.333 14.5 -63 14.5h-284v-265z" />
    <glyph glyph-name="germandbls" unicode="&#xdf;" horiz-adv-x="464" 
d="M52 526c0 63.333 14.498 113.165 43.498 149.498s73.833 54.5 134.5 54.5c28.667 0 53.5 -4.16699 74.5 -12.5s38.333 -20 52 -35s23.834 -32.667 30.501 -53s10 -42.166 10 -65.499c0 -40 -8.5 -72.167 -25.5 -96.5s-45.5 -43.166 -85.5 -56.499v-2
c30 -6 54.833 -16.167 74.5 -30.5s35.334 -31.5 47.001 -51.5s20 -42.333 25 -67s7.5 -50.334 7.5 -77.001c0 -26 -3.16699 -51.167 -9.5 -75.5s-16.166 -45.833 -29.499 -64.5s-30.333 -33.5 -51 -44.5s-45.334 -16.5 -74.001 -16.5c-16.667 0 -35 3 -55 9
s-36.667 13 -50 21v69c17.333 -11.333 34.333 -21.333 51 -30s36 -13 58 -13c20 0 36.333 5 49 15s22.834 22.5 30.501 37.5s13 31.5 16 49.5s4.5 34.667 4.5 50c0 64.667 -18 111.5 -54 140.5s-84 43.5 -144 43.5h-25v56h20c19.333 0 38.5 1.83301 57.5 5.5
s36.167 10.334 51.5 20.001s27.666 22.5 36.999 38.5s14 36.667 14 62c0 34.667 -8.83301 63 -26.5 85s-45.167 33 -82.5 33c-34 0 -61.833 -11.333 -83.5 -34s-32.5 -58.667 -32.5 -108v-532h-60v526z" />
    <glyph glyph-name="agrave" unicode="&#xe0;" horiz-adv-x="481" 
d="M93 116c0 -13.333 3 -24.499 9 -33.499s13.667 -16.333 23 -22s19.833 -9.83398 31.5 -12.501s23.167 -4 34.5 -4c14.667 0 31.167 2.66699 49.5 8s35.833 14 52.5 26s30.667 27.833 42 47.5s17 44.167 17 73.5v55l-173 -48c-24 -6.66699 -44.333 -16.5 -61 -29.5
s-25 -33.167 -25 -60.5zM481 -5.99902c-18.667 0 -35.3359 0.503906 -50.0029 1.50391s-27.334 4 -38.001 9s-19.167 13.167 -25.5 24.5s-10.166 27.666 -11.499 48.999h-2c-18.667 -32.667 -42.167 -55.834 -70.5 -69.501s-60.833 -20.5 -97.5 -20.5
c-19.333 0 -38.166 2.5 -56.499 7.5s-34.666 12.667 -48.999 23s-25.833 23.5 -34.5 39.5s-13 35 -13 57c0 25.333 5 46.666 15 63.999s23.167 31.666 39.5 42.999s34.833 20.5 55.5 27.5s41.334 13.167 62.001 18.5l147 38v48c0 31.333 -10.5 53.833 -31.5 67.5
s-50.5 20.5 -88.5 20.5c-40 0 -69.5 -9.66699 -88.5 -29s-29.167 -48.333 -30.5 -87l-68 12c20 102.667 83 154 189 154c44.667 0 79 -5.66699 103 -17s41.5 -24.833 52.5 -40.5s17.5 -32 19.5 -49s3 -31.5 3 -43.5v-235c0 -15.333 1.66699 -27.333 5 -36s8 -15 14 -19
s13.333 -6.33301 22 -7s18 -1 28 -1v-50zM113.998 697.005h77l111 -139h-51z" />
    <glyph glyph-name="aacute" unicode="&#xe1;" horiz-adv-x="481" 
d="M93 116c0 -13.333 3 -24.499 9 -33.499s13.667 -16.333 23 -22s19.833 -9.83398 31.5 -12.501s23.167 -4 34.5 -4c14.667 0 31.167 2.66699 49.5 8s35.833 14 52.5 26s30.667 27.833 42 47.5s17 44.167 17 73.5v55l-173 -48c-24 -6.66699 -44.333 -16.5 -61 -29.5
s-25 -33.167 -25 -60.5zM481 -5.99902c-18.667 0 -35.3359 0.503906 -50.0029 1.50391s-27.334 4 -38.001 9s-19.167 13.167 -25.5 24.5s-10.166 27.666 -11.499 48.999h-2c-18.667 -32.667 -42.167 -55.834 -70.5 -69.501s-60.833 -20.5 -97.5 -20.5
c-19.333 0 -38.166 2.5 -56.499 7.5s-34.666 12.667 -48.999 23s-25.833 23.5 -34.5 39.5s-13 35 -13 57c0 25.333 5 46.666 15 63.999s23.167 31.666 39.5 42.999s34.833 20.5 55.5 27.5s41.334 13.167 62.001 18.5l147 38v48c0 31.333 -10.5 53.833 -31.5 67.5
s-50.5 20.5 -88.5 20.5c-40 0 -69.5 -9.66699 -88.5 -29s-29.167 -48.333 -30.5 -87l-68 12c20 102.667 83 154 189 154c44.667 0 79 -5.66699 103 -17s41.5 -24.833 52.5 -40.5s17.5 -32 19.5 -49s3 -31.5 3 -43.5v-235c0 -15.333 1.66699 -27.333 5 -36s8 -15 14 -19
s13.333 -6.33301 22 -7s18 -1 28 -1v-50zM289.998 697.005h77l-137 -139h-51z" />
    <glyph glyph-name="acircumflex" unicode="&#xe2;" horiz-adv-x="481" 
d="M93 116c0 -13.333 3 -24.499 9 -33.499s13.667 -16.333 23 -22s19.833 -9.83398 31.5 -12.501s23.167 -4 34.5 -4c14.667 0 31.167 2.66699 49.5 8s35.833 14 52.5 26s30.667 27.833 42 47.5s17 44.167 17 73.5v55l-173 -48c-24 -6.66699 -44.333 -16.5 -61 -29.5
s-25 -33.167 -25 -60.5zM481 -5.99902c-18.667 0 -35.3359 0.503906 -50.0029 1.50391s-27.334 4 -38.001 9s-19.167 13.167 -25.5 24.5s-10.166 27.666 -11.499 48.999h-2c-18.667 -32.667 -42.167 -55.834 -70.5 -69.501s-60.833 -20.5 -97.5 -20.5
c-19.333 0 -38.166 2.5 -56.499 7.5s-34.666 12.667 -48.999 23s-25.833 23.5 -34.5 39.5s-13 35 -13 57c0 25.333 5 46.666 15 63.999s23.167 31.666 39.5 42.999s34.833 20.5 55.5 27.5s41.334 13.167 62.001 18.5l147 38v48c0 31.333 -10.5 53.833 -31.5 67.5
s-50.5 20.5 -88.5 20.5c-40 0 -69.5 -9.66699 -88.5 -29s-29.167 -48.333 -30.5 -87l-68 12c20 102.667 83 154 189 154c44.667 0 79 -5.66699 103 -17s41.5 -24.833 52.5 -40.5s17.5 -32 19.5 -49s3 -31.5 3 -43.5v-235c0 -15.333 1.66699 -27.333 5 -36s8 -15 14 -19
s13.333 -6.33301 22 -7s18 -1 28 -1v-50zM156.998 558.005h-63l112 139h67l114 -139h-65l-82 102z" />
    <glyph glyph-name="atilde" unicode="&#xe3;" horiz-adv-x="481" 
d="M93 116c0 -13.333 3 -24.499 9 -33.499s13.667 -16.333 23 -22s19.833 -9.83398 31.5 -12.501s23.167 -4 34.5 -4c14.667 0 31.167 2.66699 49.5 8s35.833 14 52.5 26s30.667 27.833 42 47.5s17 44.167 17 73.5v55l-173 -48c-24 -6.66699 -44.333 -16.5 -61 -29.5
s-25 -33.167 -25 -60.5zM481 -5.99902c-18.667 0 -35.3359 0.503906 -50.0029 1.50391s-27.334 4 -38.001 9s-19.167 13.167 -25.5 24.5s-10.166 27.666 -11.499 48.999h-2c-18.667 -32.667 -42.167 -55.834 -70.5 -69.501s-60.833 -20.5 -97.5 -20.5
c-19.333 0 -38.166 2.5 -56.499 7.5s-34.666 12.667 -48.999 23s-25.833 23.5 -34.5 39.5s-13 35 -13 57c0 25.333 5 46.666 15 63.999s23.167 31.666 39.5 42.999s34.833 20.5 55.5 27.5s41.334 13.167 62.001 18.5l147 38v48c0 31.333 -10.5 53.833 -31.5 67.5
s-50.5 20.5 -88.5 20.5c-40 0 -69.5 -9.66699 -88.5 -29s-29.167 -48.333 -30.5 -87l-68 12c20 102.667 83 154 189 154c44.667 0 79 -5.66699 103 -17s41.5 -24.833 52.5 -40.5s17.5 -32 19.5 -49s3 -31.5 3 -43.5v-235c0 -15.333 1.66699 -27.333 5 -36s8 -15 14 -19
s13.333 -6.33301 22 -7s18 -1 28 -1v-50zM83.998 569.005c2.66699 20.667 7.83594 37.498 15.5029 50.498s16.167 23 25.5 30s18.166 11.667 26.499 14s14.166 3.5 17.499 3.5c13.333 0 26.5 -2.33301 39.5 -7s25.5 -9.66699 37.5 -15s23.667 -10.166 35 -14.499
s22.666 -6.5 33.999 -6.5c14.667 0 24.667 4.33301 30 13s10 20 14 34h38c-1.33301 -11.333 -3.83301 -22.833 -7.5 -34.5s-9 -22.167 -16 -31.5s-15.333 -16.833 -25 -22.5s-20.834 -8.5 -33.501 -8.5c-13.333 0 -26.333 2.33301 -39 7s-25 10 -37 16
c-12.667 5.33301 -24.667 10 -36 14s-22.666 6 -33.999 6c-14.667 0 -25.5 -5.16699 -32.5 -15.5s-12.167 -21.166 -15.5 -32.499h-37z" />
    <glyph glyph-name="adieresis" unicode="&#xe4;" horiz-adv-x="481" 
d="M93 116c0 -13.333 3 -24.499 9 -33.499s13.667 -16.333 23 -22s19.833 -9.83398 31.5 -12.501s23.167 -4 34.5 -4c14.667 0 31.167 2.66699 49.5 8s35.833 14 52.5 26s30.667 27.833 42 47.5s17 44.167 17 73.5v55l-173 -48c-24 -6.66699 -44.333 -16.5 -61 -29.5
s-25 -33.167 -25 -60.5zM481 -5.99902c-18.667 0 -35.3359 0.503906 -50.0029 1.50391s-27.334 4 -38.001 9s-19.167 13.167 -25.5 24.5s-10.166 27.666 -11.499 48.999h-2c-18.667 -32.667 -42.167 -55.834 -70.5 -69.501s-60.833 -20.5 -97.5 -20.5
c-19.333 0 -38.166 2.5 -56.499 7.5s-34.666 12.667 -48.999 23s-25.833 23.5 -34.5 39.5s-13 35 -13 57c0 25.333 5 46.666 15 63.999s23.167 31.666 39.5 42.999s34.833 20.5 55.5 27.5s41.334 13.167 62.001 18.5l147 38v48c0 31.333 -10.5 53.833 -31.5 67.5
s-50.5 20.5 -88.5 20.5c-40 0 -69.5 -9.66699 -88.5 -29s-29.167 -48.333 -30.5 -87l-68 12c20 102.667 83 154 189 154c44.667 0 79 -5.66699 103 -17s41.5 -24.833 52.5 -40.5s17.5 -32 19.5 -49s3 -31.5 3 -43.5v-235c0 -15.333 1.66699 -27.333 5 -36s8 -15 14 -19
s13.333 -6.33301 22 -7s18 -1 28 -1v-50zM127.998 670.005h60v-102h-60v102zM292.998 670.005h60v-102h-60v102z" />
    <glyph glyph-name="aring" unicode="&#xe5;" horiz-adv-x="481" 
d="M93 116c0 -13.333 3 -24.499 9 -33.499s13.667 -16.333 23 -22s19.833 -9.83398 31.5 -12.501s23.167 -4 34.5 -4c14.667 0 31.167 2.66699 49.5 8s35.833 14 52.5 26s30.667 27.833 42 47.5s17 44.167 17 73.5v55l-173 -48c-24 -6.66699 -44.333 -16.5 -61 -29.5
s-25 -33.167 -25 -60.5zM481 -5.99902c-18.667 0 -35.3359 0.503906 -50.0029 1.50391s-27.334 4 -38.001 9s-19.167 13.167 -25.5 24.5s-10.166 27.666 -11.499 48.999h-2c-18.667 -32.667 -42.167 -55.834 -70.5 -69.501s-60.833 -20.5 -97.5 -20.5
c-19.333 0 -38.166 2.5 -56.499 7.5s-34.666 12.667 -48.999 23s-25.833 23.5 -34.5 39.5s-13 35 -13 57c0 25.333 5 46.666 15 63.999s23.167 31.666 39.5 42.999s34.833 20.5 55.5 27.5s41.334 13.167 62.001 18.5l147 38v48c0 31.333 -10.5 53.833 -31.5 67.5
s-50.5 20.5 -88.5 20.5c-40 0 -69.5 -9.66699 -88.5 -29s-29.167 -48.333 -30.5 -87l-68 12c20 102.667 83 154 189 154c44.667 0 79 -5.66699 103 -17s41.5 -24.833 52.5 -40.5s17.5 -32 19.5 -49s3 -31.5 3 -43.5v-235c0 -15.333 1.66699 -27.333 5 -36s8 -15 14 -19
s13.333 -6.33301 22 -7s18 -1 28 -1v-50zM172.998 644.005c0 -18.667 6.5 -34.5 19.5 -47.5s28.833 -19.5 47.5 -19.5s34.667 6.5 48 19.5s20 28.833 20 47.5c0 19.333 -6.66699 35.5 -20 48.5s-29.333 19.5 -48 19.5s-34.5 -6.5 -47.5 -19.5s-19.5 -29.167 -19.5 -48.5z
M140.998 644.005c0 28 9.5 51.667 28.5 71s42.5 29 70.5 29s51.667 -9.66699 71 -29s29 -43 29 -71c0 -13.333 -2.66699 -26 -8 -38s-12.5 -22.5 -21.5 -31.5s-19.5 -16.167 -31.5 -21.5s-25 -8 -39 -8s-27 2.66699 -39 8s-22.5 12.5 -31.5 21.5s-16 19.5 -21 31.5
s-7.5 24.667 -7.5 38z" />
    <glyph glyph-name="ae" unicode="&#xe6;" horiz-adv-x="815" 
d="M93 116c0 -13.333 3.00098 -24.499 9.00098 -33.499s13.333 -16.333 22 -22s18.167 -9.83398 28.5 -12.501s20.166 -4 29.499 -4c22 0 43.667 3.16699 65 9.5s40.5 16 57.5 29s30.667 29.333 41 49s15.5 42.5 15.5 68.5v54l-182 -48
c-24 -6.66699 -44.333 -16.5 -61 -29.5s-25 -33.167 -25 -60.5zM722.001 292.001c-3.33301 17.333 -7.83203 34.667 -13.499 52s-14 32.833 -25 46.5s-25.5 24.667 -43.5 33s-40.333 12.5 -67 12.5c-22 0 -41.833 -3.83301 -59.5 -11.5s-33 -18 -46 -31
s-23.333 -28.167 -31 -45.5s-12.834 -36 -15.501 -56h301zM421.002 242.002l-0.00292969 -13c0 -26.667 3 -51.334 9 -74.001s15.333 -42.167 28 -58.5s28.667 -29.166 48 -38.499s42.333 -14 69 -14c43.333 0 77 9 101 27s43.333 43 58 75l56 -15
c-18 -44.667 -45.167 -79.667 -81.5 -105s-79.833 -38 -130.5 -38c-42 0 -80.5 9.16699 -115.5 27.5s-60.167 45.5 -75.5 81.5c-23.333 -39.333 -52.166 -67.333 -86.499 -84s-72.5 -25 -114.5 -25c-19.333 0 -38.166 2.5 -56.499 7.5s-34.666 12.667 -48.999 23
s-25.833 23.5 -34.5 39.5s-13 35 -13 57c0 25.333 5 46.5 15 63.5s23.167 31.167 39.5 42.5s34.833 20.5 55.5 27.5s41.334 13.5 62.001 19.5l156 38v48c0 33.333 -11.167 56.333 -33.5 69s-52.833 19 -91.5 19c-42 0 -72.667 -9.66699 -92 -29s-29.666 -48.333 -30.999 -87
l-68 12c20 102.667 83 154 189 154c38.667 0 72.667 -5 102 -15s53.666 -30.667 72.999 -62c19.333 25.333 43.5 44.5 72.5 57.5s59.5 19.5 91.5 19.5c35.333 0 66.333 -6.33301 93 -19s49 -30.167 67 -52.5s31.667 -48.833 41 -79.5s14.666 -63.667 15.999 -99h-369z" />
    <glyph glyph-name="ccedilla" unicode="&#xe7;" horiz-adv-x="463" 
d="M242 -11c-29.333 0.666992 -56.5039 7.32812 -81.5039 19.9951s-46.833 29.834 -65.5 51.501s-33.5 47.667 -44.5 78s-16.833 64.166 -17.5 101.499c0.666992 38 6.5 72.5 17.5 103.5s26.667 57.5 47 79.5s44.5 39 72.5 51s59.333 18 94 18
c14.667 0 30.667 -1.66699 48 -5s34.333 -9.5 51 -18.5s32.5 -21.167 47.5 -36.5s27.833 -35 38.5 -59l-61 -12c-12 26.667 -29.833 45.834 -53.5 57.501s-49.834 17.5 -78.501 17.5c-20.667 0 -40.667 -4 -60 -12s-36.666 -20.167 -51.999 -36.5
s-27.666 -36.833 -36.999 -61.5s-14 -53.334 -14 -86.001c0 -33.333 4.66699 -62.166 14 -86.499s21.333 -44.666 36 -60.999s31.334 -28.5 50.001 -36.5s37.667 -12 57 -12c32 0 59.333 7.5 82 22.5s39.334 33.5 50.001 55.5l61 -15
c-15.333 -35.333 -37 -62.666 -65 -81.999s-60.667 -31 -98 -35l-38 -48l2 -2c5.33301 2.66699 10.666 4.33398 15.999 5.00098s12.666 1 21.999 1c6 0 13.333 -1 22 -3s16.834 -5.66699 24.501 -11s14.334 -12.666 20.001 -21.999s8.5 -21.333 8.5 -36
c0 -7.33301 -1.5 -15.833 -4.5 -25.5s-8.83301 -18.667 -17.5 -27s-20.334 -15.5 -35.001 -21.5s-33.334 -9 -56.001 -9c-18 0 -34.5 2.16699 -49.5 6.5s-28.167 8.83301 -39.5 13.5l15 30c7.33301 -4 16.833 -8 28.5 -12s23.834 -6 36.501 -6c8 0 15.833 0.833008 23.5 2.5
s14.667 4.5 21 8.5s11.5 9 15.5 15s6 13.667 6 23c0 8.66699 -1.83301 15.667 -5.5 21s-8.16699 9.5 -13.5 12.5s-11.166 5.16699 -17.499 6.5s-11.833 2 -16.5 2c-9.33301 0 -17.666 -1.16699 -24.999 -3.5s-13.333 -4.5 -18 -6.5l-15 13z" />
    <glyph glyph-name="egrave" unicode="&#xe8;" 
d="M399 292c-3.33301 17.333 -8.33105 34.667 -14.998 52s-15.667 32.833 -27 46.5s-25.833 24.667 -43.5 33s-38.834 12.5 -63.501 12.5c-21.333 0 -40.666 -3.83301 -57.999 -11.5s-32.333 -18 -45 -31s-22.834 -28.167 -30.501 -45.5s-12.834 -36 -15.501 -56h298z
M101.002 242.001v-13c0 -26.667 3 -51.334 9 -74.001s15.333 -42.167 28 -58.5s28.667 -29.166 48 -38.499s42.333 -14 69 -14c42 0 74.833 9 98.5 27s42.834 43 57.501 75l56 -15c-18 -44.667 -45.333 -79.667 -82 -105s-81.667 -38 -135 -38c-30 0 -58.167 5.5 -84.5 16.5
s-49.333 27 -69 48s-35.167 47.167 -46.5 78.5s-17 67.666 -17 108.999c0 40.667 5.66699 76.834 17 108.501s26.833 58 46.5 79s42.667 37 69 48s54.5 16.5 84.5 16.5c35.333 0 66.333 -6.33301 93 -19s49 -30.167 67 -52.5s31.667 -48.833 41 -79.5
s14.666 -63.667 15.999 -99h-366zM124.002 697.001h77l111 -139h-51z" />
    <glyph glyph-name="eacute" unicode="&#xe9;" 
d="M399 292c-3.33301 17.333 -8.33105 34.667 -14.998 52s-15.667 32.833 -27 46.5s-25.833 24.667 -43.5 33s-38.834 12.5 -63.501 12.5c-21.333 0 -40.666 -3.83301 -57.999 -11.5s-32.333 -18 -45 -31s-22.834 -28.167 -30.501 -45.5s-12.834 -36 -15.501 -56h298z
M101.002 242.001v-13c0 -26.667 3 -51.334 9 -74.001s15.333 -42.167 28 -58.5s28.667 -29.166 48 -38.499s42.333 -14 69 -14c42 0 74.833 9 98.5 27s42.834 43 57.501 75l56 -15c-18 -44.667 -45.333 -79.667 -82 -105s-81.667 -38 -135 -38c-30 0 -58.167 5.5 -84.5 16.5
s-49.333 27 -69 48s-35.167 47.167 -46.5 78.5s-17 67.666 -17 108.999c0 40.667 5.66699 76.834 17 108.501s26.833 58 46.5 79s42.667 37 69 48s54.5 16.5 84.5 16.5c35.333 0 66.333 -6.33301 93 -19s49 -30.167 67 -52.5s31.667 -48.833 41 -79.5
s14.666 -63.667 15.999 -99h-366zM300.002 697.001h77l-137 -139h-51z" />
    <glyph glyph-name="ecircumflex" unicode="&#xea;" 
d="M399 292c-3.33301 17.333 -8.33105 34.667 -14.998 52s-15.667 32.833 -27 46.5s-25.833 24.667 -43.5 33s-38.834 12.5 -63.501 12.5c-21.333 0 -40.666 -3.83301 -57.999 -11.5s-32.333 -18 -45 -31s-22.834 -28.167 -30.501 -45.5s-12.834 -36 -15.501 -56h298z
M101.002 242.001v-13c0 -26.667 3 -51.334 9 -74.001s15.333 -42.167 28 -58.5s28.667 -29.166 48 -38.499s42.333 -14 69 -14c42 0 74.833 9 98.5 27s42.834 43 57.501 75l56 -15c-18 -44.667 -45.333 -79.667 -82 -105s-81.667 -38 -135 -38c-30 0 -58.167 5.5 -84.5 16.5
s-49.333 27 -69 48s-35.167 47.167 -46.5 78.5s-17 67.666 -17 108.999c0 40.667 5.66699 76.834 17 108.501s26.833 58 46.5 79s42.667 37 69 48s54.5 16.5 84.5 16.5c35.333 0 66.333 -6.33301 93 -19s49 -30.167 67 -52.5s31.667 -48.833 41 -79.5
s14.666 -63.667 15.999 -99h-366zM167.002 558.001h-63l112 139h67l114 -139h-65l-82 102z" />
    <glyph glyph-name="edieresis" unicode="&#xeb;" 
d="M399 292c-3.33301 17.333 -8.33105 34.667 -14.998 52s-15.667 32.833 -27 46.5s-25.833 24.667 -43.5 33s-38.834 12.5 -63.501 12.5c-21.333 0 -40.666 -3.83301 -57.999 -11.5s-32.333 -18 -45 -31s-22.834 -28.167 -30.501 -45.5s-12.834 -36 -15.501 -56h298z
M101.002 242.001v-13c0 -26.667 3 -51.334 9 -74.001s15.333 -42.167 28 -58.5s28.667 -29.166 48 -38.499s42.333 -14 69 -14c42 0 74.833 9 98.5 27s42.834 43 57.501 75l56 -15c-18 -44.667 -45.333 -79.667 -82 -105s-81.667 -38 -135 -38c-30 0 -58.167 5.5 -84.5 16.5
s-49.333 27 -69 48s-35.167 47.167 -46.5 78.5s-17 67.666 -17 108.999c0 40.667 5.66699 76.834 17 108.501s26.833 58 46.5 79s42.667 37 69 48s54.5 16.5 84.5 16.5c35.333 0 66.333 -6.33301 93 -19s49 -30.167 67 -52.5s31.667 -48.833 41 -79.5
s14.666 -63.667 15.999 -99h-366zM138.002 670.001h60v-102h-60v102zM303.002 670.001h60v-102h-60v102z" />
    <glyph glyph-name="igrave" unicode="&#xec;" horiz-adv-x="186" 
d="M63 480h60v-480h-60v480zM-33 697h77l111 -139h-51z" />
    <glyph glyph-name="iacute" unicode="&#xed;" horiz-adv-x="186" 
d="M63 480h60v-480h-60v480zM143 697h77l-137 -139h-51z" />
    <glyph glyph-name="icircumflex" unicode="&#xee;" horiz-adv-x="186" 
d="M63 480h60v-480h-60v480zM10 558h-63l112 139h67l114 -139h-65l-82 102z" />
    <glyph glyph-name="idieresis" unicode="&#xef;" horiz-adv-x="186" 
d="M63 480h60v-480h-60v480zM-19 670h60v-102h-60v102zM146 670h60v-102h-60v102z" />
    <glyph glyph-name="eth" unicode="&#xf0;" 
d="M92 595l80.9971 53.999c-9.33301 8 -19.166 15.5 -29.499 22.5l-30.5 21.5l37 37c12.667 -7.33301 24.834 -15 36.501 -23s23.167 -16.333 34.5 -25l81 54l29 -26l-79 -54c30.667 -25.333 59 -52 85 -80s48.667 -58.167 68 -90.5s34.5 -67.166 45.5 -104.499
s16.5 -78 16.5 -122c0 -89.333 -19 -156.833 -57 -202.5s-91.333 -68.5 -160 -68.5c-30 0 -58.167 5.5 -84.5 16.5s-49.333 27 -69 48s-35.167 47.167 -46.5 78.5s-17 67.666 -17 108.999c0 40.667 5.66699 76.834 17 108.501s26.833 58 46.5 79s42.667 37 69 48
s54.5 16.5 84.5 16.5c28 0 50.333 -4.66699 67 -14s33.334 -21 50.001 -35h2c-20 34 -44.167 66.167 -72.5 96.5s-58.5 58.833 -90.5 85.5l-85 -58zM406.997 239.999c0 34.667 -4 64.334 -12 89.001s-19 45 -33 61s-30.5 27.667 -49.5 35s-39.833 11 -62.5 11
c-22 0 -42.667 -3.66699 -62 -11s-36 -19 -50 -35s-25 -36.333 -33 -61s-12 -54.334 -12 -89.001s4 -64.334 12 -89.001s19 -45 33 -61s30.667 -27.667 50 -35s40 -11 62 -11c22.667 0 43.5 3.66699 62.5 11s35.5 19 49.5 35s25 36.333 33 61s12 54.334 12 89.001z" />
    <glyph glyph-name="ntilde" unicode="&#xf1;" 
d="M63 480l60 0.00195312v-70h2c15.333 30 36 51.167 62 63.5s53 18.5 81 18.5c29.333 0 54.666 -4 75.999 -12s38.833 -19.333 52.5 -34s23.834 -32.334 30.501 -53.001s10 -43.334 10 -68.001v-325h-60v307c0 48.667 -10 82.334 -30 101.001s-49 28 -87 28
c-18 0 -35.333 -3 -52 -9s-31.167 -15.5 -43.5 -28.5s-22.333 -29.333 -30 -49s-11.5 -42.834 -11.5 -69.501v-280h-60v480zM94 569.002c2.66699 20.667 7.83594 37.498 15.5029 50.498s16.167 23 25.5 30s18.166 11.667 26.499 14s14.166 3.5 17.499 3.5
c13.333 0 26.5 -2.33301 39.5 -7s25.5 -9.66699 37.5 -15s23.667 -10.166 35 -14.499s22.666 -6.5 33.999 -6.5c14.667 0 24.667 4.33301 30 13s10 20 14 34h38c-1.33301 -11.333 -3.83301 -22.833 -7.5 -34.5s-9 -22.167 -16 -31.5s-15.333 -16.833 -25 -22.5
s-20.834 -8.5 -33.501 -8.5c-13.333 0 -26.333 2.33301 -39 7s-25 10 -37 16c-12.667 5.33301 -24.667 10 -36 14s-22.666 6 -33.999 6c-14.667 0 -25.5 -5.16699 -32.5 -15.5s-12.167 -21.166 -15.5 -32.499h-37z" />
    <glyph glyph-name="ograve" unicode="&#xf2;" 
d="M33 240c0 40.667 5.66699 76.834 17 108.501s26.833 58 46.5 79s42.667 37 69 48s54.5 16.5 84.5 16.5s58.167 -5.5 84.5 -16.5s49.333 -27 69 -48s35.167 -47.333 46.5 -79s17 -67.834 17 -108.501c0 -41.333 -5.66699 -77.666 -17 -108.999s-26.833 -57.5 -46.5 -78.5
s-42.667 -37 -69 -48s-54.5 -16.5 -84.5 -16.5s-58.167 5.5 -84.5 16.5s-49.333 27 -69 48s-35.167 47.167 -46.5 78.5s-17 67.666 -17 108.999zM250 436c-22 0 -42.667 -4.5 -62 -13.5s-36 -21.833 -50 -38.5s-25 -37.167 -33 -61.5s-12 -51.833 -12 -82.5
c0 -31.333 4 -59 12 -83s19 -44.5 33 -61.5s30.667 -29.833 50 -38.5s40 -13 62 -13s42.667 4.33301 62 13s36 21.5 50 38.5s25 37.5 33 61.5s12 51.667 12 83c0 30.667 -4 58.167 -12 82.5s-19 44.833 -33 61.5s-30.667 29.5 -50 38.5s-40 13.5 -62 13.5zM124 697h77
l111 -139h-51z" />
    <glyph glyph-name="oacute" unicode="&#xf3;" 
d="M33 240c0 40.667 5.66699 76.834 17 108.501s26.833 58 46.5 79s42.667 37 69 48s54.5 16.5 84.5 16.5s58.167 -5.5 84.5 -16.5s49.333 -27 69 -48s35.167 -47.333 46.5 -79s17 -67.834 17 -108.501c0 -41.333 -5.66699 -77.666 -17 -108.999s-26.833 -57.5 -46.5 -78.5
s-42.667 -37 -69 -48s-54.5 -16.5 -84.5 -16.5s-58.167 5.5 -84.5 16.5s-49.333 27 -69 48s-35.167 47.167 -46.5 78.5s-17 67.666 -17 108.999zM250 436c-22 0 -42.667 -4.5 -62 -13.5s-36 -21.833 -50 -38.5s-25 -37.167 -33 -61.5s-12 -51.833 -12 -82.5
c0 -31.333 4 -59 12 -83s19 -44.5 33 -61.5s30.667 -29.833 50 -38.5s40 -13 62 -13s42.667 4.33301 62 13s36 21.5 50 38.5s25 37.5 33 61.5s12 51.667 12 83c0 30.667 -4 58.167 -12 82.5s-19 44.833 -33 61.5s-30.667 29.5 -50 38.5s-40 13.5 -62 13.5zM300 697h77
l-137 -139h-51z" />
    <glyph glyph-name="ocircumflex" unicode="&#xf4;" 
d="M33 240c0 40.667 5.66699 76.834 17 108.501s26.833 58 46.5 79s42.667 37 69 48s54.5 16.5 84.5 16.5s58.167 -5.5 84.5 -16.5s49.333 -27 69 -48s35.167 -47.333 46.5 -79s17 -67.834 17 -108.501c0 -41.333 -5.66699 -77.666 -17 -108.999s-26.833 -57.5 -46.5 -78.5
s-42.667 -37 -69 -48s-54.5 -16.5 -84.5 -16.5s-58.167 5.5 -84.5 16.5s-49.333 27 -69 48s-35.167 47.167 -46.5 78.5s-17 67.666 -17 108.999zM250 436c-22 0 -42.667 -4.5 -62 -13.5s-36 -21.833 -50 -38.5s-25 -37.167 -33 -61.5s-12 -51.833 -12 -82.5
c0 -31.333 4 -59 12 -83s19 -44.5 33 -61.5s30.667 -29.833 50 -38.5s40 -13 62 -13s42.667 4.33301 62 13s36 21.5 50 38.5s25 37.5 33 61.5s12 51.667 12 83c0 30.667 -4 58.167 -12 82.5s-19 44.833 -33 61.5s-30.667 29.5 -50 38.5s-40 13.5 -62 13.5zM167 558h-63
l112 139h67l114 -139h-65l-82 102z" />
    <glyph glyph-name="otilde" unicode="&#xf5;" 
d="M33 240c0 40.667 5.66699 76.834 17 108.501s26.833 58 46.5 79s42.667 37 69 48s54.5 16.5 84.5 16.5s58.167 -5.5 84.5 -16.5s49.333 -27 69 -48s35.167 -47.333 46.5 -79s17 -67.834 17 -108.501c0 -41.333 -5.66699 -77.666 -17 -108.999s-26.833 -57.5 -46.5 -78.5
s-42.667 -37 -69 -48s-54.5 -16.5 -84.5 -16.5s-58.167 5.5 -84.5 16.5s-49.333 27 -69 48s-35.167 47.167 -46.5 78.5s-17 67.666 -17 108.999zM250 436c-22 0 -42.667 -4.5 -62 -13.5s-36 -21.833 -50 -38.5s-25 -37.167 -33 -61.5s-12 -51.833 -12 -82.5
c0 -31.333 4 -59 12 -83s19 -44.5 33 -61.5s30.667 -29.833 50 -38.5s40 -13 62 -13s42.667 4.33301 62 13s36 21.5 50 38.5s25 37.5 33 61.5s12 51.667 12 83c0 30.667 -4 58.167 -12 82.5s-19 44.833 -33 61.5s-30.667 29.5 -50 38.5s-40 13.5 -62 13.5zM94 569
c2.66699 20.667 7.83594 37.498 15.5029 50.498s16.167 23 25.5 30s18.166 11.667 26.499 14s14.166 3.5 17.499 3.5c13.333 0 26.5 -2.33301 39.5 -7s25.5 -9.66699 37.5 -15s23.667 -10.166 35 -14.499s22.666 -6.5 33.999 -6.5c14.667 0 24.667 4.33301 30 13
s10 20 14 34h38c-1.33301 -11.333 -3.83301 -22.833 -7.5 -34.5s-9 -22.167 -16 -31.5s-15.333 -16.833 -25 -22.5s-20.834 -8.5 -33.501 -8.5c-13.333 0 -26.333 2.33301 -39 7s-25 10 -37 16c-12.667 5.33301 -24.667 10 -36 14s-22.666 6 -33.999 6
c-14.667 0 -25.5 -5.16699 -32.5 -15.5s-12.167 -21.166 -15.5 -32.499h-37z" />
    <glyph glyph-name="odieresis" unicode="&#xf6;" 
d="M33 240c0 40.667 5.66699 76.834 17 108.501s26.833 58 46.5 79s42.667 37 69 48s54.5 16.5 84.5 16.5s58.167 -5.5 84.5 -16.5s49.333 -27 69 -48s35.167 -47.333 46.5 -79s17 -67.834 17 -108.501c0 -41.333 -5.66699 -77.666 -17 -108.999s-26.833 -57.5 -46.5 -78.5
s-42.667 -37 -69 -48s-54.5 -16.5 -84.5 -16.5s-58.167 5.5 -84.5 16.5s-49.333 27 -69 48s-35.167 47.167 -46.5 78.5s-17 67.666 -17 108.999zM250 436c-22 0 -42.667 -4.5 -62 -13.5s-36 -21.833 -50 -38.5s-25 -37.167 -33 -61.5s-12 -51.833 -12 -82.5
c0 -31.333 4 -59 12 -83s19 -44.5 33 -61.5s30.667 -29.833 50 -38.5s40 -13 62 -13s42.667 4.33301 62 13s36 21.5 50 38.5s25 37.5 33 61.5s12 51.667 12 83c0 30.667 -4 58.167 -12 82.5s-19 44.833 -33 61.5s-30.667 29.5 -50 38.5s-40 13.5 -62 13.5zM138 670h60v-102
h-60v102zM303 670h60v-102h-60v102z" />
    <glyph glyph-name="divide" unicode="&#xf7;" horiz-adv-x="600" 
d="M47 228v50h506v-50h-506zM244 460c0 15.333 5.49902 28.5 16.499 39.5s24.167 16.5 39.5 16.5s28.5 -5.5 39.5 -16.5s16.5 -24.167 16.5 -39.5c0 -14 -5.5 -26.833 -16.5 -38.5s-23.833 -17.5 -38.5 -17.5c-15.333 0 -28.666 5.5 -39.999 16.5s-17 24.167 -17 39.5z
M243.999 46c0 15.333 5.49902 28.5 16.499 39.5s24.167 16.5 39.5 16.5s28.5 -5.5 39.5 -16.5s16.5 -24.167 16.5 -39.5c0 -14 -5.5 -26.833 -16.5 -38.5s-23.833 -17.5 -38.5 -17.5c-15.333 0 -28.666 5.5 -39.999 16.5s-17 24.167 -17 39.5z" />
    <glyph glyph-name="oslash" unicode="&#xf8;" 
d="M328 413c-22.667 15.333 -48.667 23.001 -78 23.001c-22 0 -42.667 -4.5 -62 -13.5s-36 -21.833 -50 -38.5s-25 -37.167 -33 -61.5s-12 -51.833 -12 -82.5c0 -32.667 4.5 -61.334 13.5 -86.001s21.167 -45.667 36.5 -63zM172 67.001c11.333 -8 23.667 -13.833 37 -17.5
s27 -5.5 41 -5.5c22 0 42.667 4.33301 62 13s36 21.5 50 38.5s25 37.5 33 61.5s12 51.667 12 83c0 32.667 -4.5 61.667 -13.5 87s-21.167 46 -36.5 62zM113.001 39.001c-24.667 20 -44.166 46.999 -58.499 80.999s-21.5 74 -21.5 120c0 40.667 5.66699 76.834 17 108.501
s26.833 58 46.5 79s42.667 37 69 48s54.5 16.5 84.5 16.5c20 0 39.167 -2.33301 57.5 -7s35.166 -11.334 50.499 -20.001l25 44l32 -20l-27 -46c24 -21.333 43.167 -49 57.5 -83s21.5 -74 21.5 -120c0 -41.333 -5.66699 -77.666 -17 -108.999s-26.833 -57.5 -46.5 -78.5
s-42.667 -37 -69 -48s-54.5 -16.5 -84.5 -16.5c-40 0 -75.667 9.66699 -107 29l-25 -44l-33 18z" />
    <glyph glyph-name="ugrave" unicode="&#xf9;" 
d="M377 70l-2 0.00195312c-15.333 -30 -36 -51.167 -62 -63.5s-53 -18.5 -81 -18.5c-59.333 0 -102.333 15.5 -129 46.5s-40 71.167 -40 120.5v325h60v-307c0 -48.667 10 -82.334 30 -101.001s49 -28 87 -28c18 0 35.333 3 52 9s31.167 15.5 43.5 28.5
s22.333 29.167 30 48.5s11.5 42.666 11.5 69.999v280h60v-480h-60v70zM124 697.002h77l111 -139h-51z" />
    <glyph glyph-name="uacute" unicode="&#xfa;" 
d="M377 70l-2 0.00195312c-15.333 -30 -36 -51.167 -62 -63.5s-53 -18.5 -81 -18.5c-59.333 0 -102.333 15.5 -129 46.5s-40 71.167 -40 120.5v325h60v-307c0 -48.667 10 -82.334 30 -101.001s49 -28 87 -28c18 0 35.333 3 52 9s31.167 15.5 43.5 28.5
s22.333 29.167 30 48.5s11.5 42.666 11.5 69.999v280h60v-480h-60v70zM300 697.002h77l-137 -139h-51z" />
    <glyph glyph-name="ucircumflex" unicode="&#xfb;" 
d="M377 70l-2 0.00195312c-15.333 -30 -36 -51.167 -62 -63.5s-53 -18.5 -81 -18.5c-59.333 0 -102.333 15.5 -129 46.5s-40 71.167 -40 120.5v325h60v-307c0 -48.667 10 -82.334 30 -101.001s49 -28 87 -28c18 0 35.333 3 52 9s31.167 15.5 43.5 28.5
s22.333 29.167 30 48.5s11.5 42.666 11.5 69.999v280h60v-480h-60v70zM167 558.002h-63l112 139h67l114 -139h-65l-82 102z" />
    <glyph glyph-name="udieresis" unicode="&#xfc;" 
d="M377 70l-2 0.00195312c-15.333 -30 -36 -51.167 -62 -63.5s-53 -18.5 -81 -18.5c-59.333 0 -102.333 15.5 -129 46.5s-40 71.167 -40 120.5v325h60v-307c0 -48.667 10 -82.334 30 -101.001s49 -28 87 -28c18 0 35.333 3 52 9s31.167 15.5 43.5 28.5
s22.333 29.167 30 48.5s11.5 42.666 11.5 69.999v280h60v-480h-60v70zM138 670.002h60v-102h-60v102zM303 670.002h60v-102h-60v102z" />
    <glyph glyph-name="yacute" unicode="&#xfd;" horiz-adv-x="426" 
d="M10 480l56 -0.00390625l139 -404h2l158 404h57l-237 -609c-5.33301 -14 -11 -28 -17 -42s-13.333 -26.667 -22 -38s-19.167 -20.666 -31.5 -27.999s-27.833 -11 -46.5 -11c-11.333 0 -22.333 1.83301 -33 5.5s-21 7.83398 -31 12.501v62
c9.33301 -5.33301 19.166 -10.666 29.499 -15.999s21.166 -8 32.499 -8c8.66699 0 16.334 2.33301 23.001 7s12.334 10.334 17.001 17.001s8.66699 13.667 12 21s6 14 8 20l49 126zM263 696.996h77l-137 -139h-51z" />
    <glyph glyph-name="thorn" unicode="&#xfe;" 
d="M63 712h60.002v-310h2c9.33301 26 26.666 47.5 51.999 64.5s55 25.5 89 25.5c27.333 0 53.166 -5.5 77.499 -16.5s45.666 -27.5 63.999 -49.5s32.833 -49 43.5 -81s16 -69 16 -111c0 -44.667 -6.66699 -82.5 -20 -113.5s-30 -56.333 -50 -76s-42 -34 -66 -43
s-46.667 -13.5 -68 -13.5c-30 0 -57.667 6.83301 -83 20.5s-43.666 35.5 -54.999 65.5h-2v-322h-60v960zM407.002 240c0 60.667 -13.5 108.5 -40.5 143.5s-63.167 52.5 -108.5 52.5c-28.667 0 -52 -5.83301 -70 -17.5s-32 -26.834 -42 -45.501s-16.833 -39.667 -20.5 -63
s-5.5 -46.666 -5.5 -69.999s1.83301 -46.666 5.5 -69.999s10.5 -44.333 20.5 -63s24 -33.834 42 -45.501s41.333 -17.5 70 -17.5c45.333 0 81.5 17.5 108.5 52.5s40.5 82.833 40.5 143.5z" />
    <glyph glyph-name="ydieresis" unicode="&#xff;" horiz-adv-x="426" 
d="M10 480l56 -0.00390625l139 -404h2l158 404h57l-237 -609c-5.33301 -14 -11 -28 -17 -42s-13.333 -26.667 -22 -38s-19.167 -20.666 -31.5 -27.999s-27.833 -11 -46.5 -11c-11.333 0 -22.333 1.83301 -33 5.5s-21 7.83398 -31 12.501v62
c9.33301 -5.33301 19.166 -10.666 29.499 -15.999s21.166 -8 32.499 -8c8.66699 0 16.334 2.33301 23.001 7s12.334 10.334 17.001 17.001s8.66699 13.667 12 21s6 14 8 20l49 126zM101 669.996h60v-102h-60v102zM266 669.996h60v-102h-60v102z" />
    <glyph glyph-name="OE" unicode="&#x152;" horiz-adv-x="1056" 
d="M523 652c-18.667 4 -38 7.66504 -58 10.998s-38.667 5 -56 5c-49.333 0 -92.666 -7.5 -129.999 -22.5s-68.333 -36.167 -93 -63.5s-43.167 -60.166 -55.5 -98.499s-18.5 -80.833 -18.5 -127.5s6.16699 -89.167 18.5 -127.5s30.833 -71.166 55.5 -98.499
s55.667 -48.5 93 -63.5s80.666 -22.5 129.999 -22.5c19.333 0 39.333 1.5 60 4.5s38.667 6.83301 54 11.5v592zM591 61.998h440.003v-62h-493l-29 -6c-10 -2 -20.667 -4 -32 -6l-35 -4c-12 -1.33301 -25 -2 -39 -2c-58 0 -109.167 9 -153.5 27s-81.833 43.333 -112.5 76
s-53.834 72 -69.501 118s-23.5 97 -23.5 153s7.66699 107 23 153s37.666 85.333 66.999 118s65.666 58 108.999 76s93 27 149 27c30 0 58 -2 84 -6s49 -8 69 -12h463v-62h-417v-252h376v-62h-376v-274z" />
    <glyph glyph-name="oe" unicode="&#x153;" horiz-adv-x="889" 
d="M780 292c-3.33301 17.333 -7.99805 34.667 -13.998 52s-14.667 32.833 -26 46.5s-26.5 24.667 -45.5 33s-43.167 12.5 -72.5 12.5c-20.667 0 -39.5 -3.83301 -56.5 -11.5s-31.833 -18 -44.5 -31s-22.834 -28.167 -30.501 -45.5s-12.834 -36 -15.501 -56h305z
M475.002 242.001l0.00195312 -13c0 -26.667 3 -51.334 9 -74.001s15.333 -42.167 28 -58.5s28.667 -29.166 48 -38.499s42.333 -14 69 -14c45.333 0 80.166 9 104.499 27s43.833 43 58.5 75l56 -15c-18 -44.667 -45.167 -79.667 -81.5 -105s-79.833 -38 -130.5 -38
c-54 0 -96.5 10.167 -127.5 30.5s-54.5 47.5 -70.5 81.5c-8.66699 -20.667 -19.834 -38 -33.501 -52s-29 -25.5 -46 -34.5s-34.833 -15.5 -53.5 -19.5s-37 -6 -55 -6c-30 0 -58.167 5.5 -84.5 16.5s-49.333 27 -69 48s-35.167 47.167 -46.5 78.5s-17 67.666 -17 108.999
c0 40.667 5.66699 76.834 17 108.501s26.833 58 46.5 79s42.667 37 69 48s54.5 16.5 84.5 16.5c40.667 0 76.834 -8.16699 108.501 -24.5s58.167 -45.5 79.5 -87.5c20 35.333 47 62.833 81 82.5s71.333 29.5 112 29.5c35.333 0 66.333 -6.33301 93 -19s49 -30.167 67 -52.5
s31.667 -48.833 41 -79.5s14.666 -63.667 15.999 -99h-373zM254.004 436.001c-22 0 -42.833 -4.16699 -62.5 -12.5s-36.667 -20.833 -51 -37.5s-25.833 -37.167 -34.5 -61.5s-13 -52.5 -13 -84.5s4.33301 -60.167 13 -84.5s20.167 -44.833 34.5 -61.5
s31.333 -29.167 51 -37.5s40.5 -12.5 62.5 -12.5s42.833 4.16699 62.5 12.5s36.667 20.833 51 37.5s25.833 37.167 34.5 61.5s13 52.5 13 84.5s-4.33301 60.167 -13 84.5s-20.167 44.833 -34.5 61.5s-31.333 29.167 -51 37.5s-40.5 12.5 -62.5 12.5z" />
    <glyph glyph-name="Scaron" unicode="&#x160;" horiz-adv-x="611" 
d="M108 214c1.33301 -30 6.99805 -55.6699 16.998 -77.0029s23.667 -39 41 -53s38 -24.167 62 -30.5s50.667 -9.5 80 -9.5c28 0 53.833 3.5 77.5 10.5s44.334 16.833 62.001 29.5s31.334 27.834 41.001 45.501s14.5 37.5 14.5 59.5c0 27.333 -6.16699 49.5 -18.5 66.5
s-28.333 31.167 -48 42.5s-42.334 20.5 -68.001 27.5l-78 21c-26.333 7 -52.333 15 -78 24s-48.334 20.833 -68.001 35.5s-35.667 33.5 -48 56.5s-18.5 51.833 -18.5 86.5c0 32.667 7.16699 60.334 21.5 83.001s32.5 41.334 54.5 56.001s46.333 25.334 73 32.001
s52.667 10 78 10c60.667 0 113 -11.667 157 -35s76.333 -64.666 97 -123.999l-63 -34c-14.667 46.667 -39 80.167 -73 100.5s-73.333 30.5 -118 30.5c-18 0 -36.5 -2.5 -55.5 -7.5s-36.167 -12.5 -51.5 -22.5s-27.833 -22.5 -37.5 -37.5s-14.5 -32.167 -14.5 -51.5
c0 -26.667 6.16699 -48.167 18.5 -64.5s28.333 -29.833 48 -40.5s42.334 -19.334 68.001 -26.001l78 -20c26.333 -6.66699 52.333 -14.334 78 -23.001s48.334 -20.167 68.001 -34.5s35.667 -32.833 48 -55.5s18.5 -51 18.5 -85c0 -70.667 -23 -124.667 -69 -162
s-110.667 -56 -194 -56c-36 0 -68.833 3.5 -98.5 10.5s-56 18.333 -79 34s-42.167 36 -57.5 61s-26.333 55.5 -33 91.5zM386.998 893.997h65l-114 -139h-67l-112 139h64l82 -102z" />
    <glyph glyph-name="scaron" unicode="&#x161;" horiz-adv-x="444" 
d="M83 133c13.333 -34.667 30.332 -59.1699 50.999 -73.5029s50 -21.5 88 -21.5c12 0 25 1.33301 39 4s26.667 7.66699 38 15s20.833 17.333 28.5 30s11.5 29 11.5 49c0 24 -7 41.667 -21 53s-31.5 20 -52.5 26s-43.833 11 -68.5 15s-47.5 10.333 -68.5 19
s-38.5 21.334 -52.5 38.001s-21 41 -21 73c0 17.333 3.5 34 10.5 50s17.5 30 31.5 42s31.167 21.667 51.5 29s43.833 11 70.5 11c47.333 0 86.5 -8 117.5 -24s52.167 -44.333 63.5 -85l-57 -14c-10.667 30 -25.5 49.667 -44.5 59s-42.5 14 -70.5 14
c-22.667 0 -41.334 -2.16699 -56.001 -6.5s-26.167 -10.166 -34.5 -17.499s-14.166 -16.166 -17.499 -26.499s-5 -21.5 -5 -33.5c0 -20.667 7 -36 21 -46s31.5 -18 52.5 -24s43.833 -11.333 68.5 -16s47.5 -11.834 68.5 -21.501s38.5 -23.5 52.5 -41.5s21 -43 21 -75
c0 -20 -4 -38.833 -12 -56.5s-20 -33.167 -36 -46.5s-35.5 -23.833 -58.5 -31.5s-49.5 -11.5 -79.5 -11.5c-18 0 -35.833 1.66699 -53.5 5s-34.5 9.5 -50.5 18.5s-31.167 21.833 -45.5 38.5s-27.166 38.334 -38.499 65.001zM303.999 696.997h65l-114 -139h-67l-112 139h64
l82 -102z" />
    <glyph glyph-name="Ydieresis" unicode="&#x178;" horiz-adv-x="610" 
d="M271 297l-268 415h82l222 -352l222 352h78l-268 -415v-297h-68v297zM193 867h60v-102h-60v102zM358 867h60v-102h-60v102z" />
    <glyph glyph-name="florin" unicode="&#x192;" horiz-adv-x="556" 
d="M412 283l-117.002 0.00195312l-43 -376c-1.33301 -11.333 -3.16602 -25.833 -5.49902 -43.5s-7.5 -34.834 -15.5 -51.501s-19.833 -30.834 -35.5 -42.501s-36.834 -17.5 -63.501 -17.5c-20.667 0 -40.667 2.66699 -60 8l-5 2l7 56c8.66699 -2.66699 17.5 -5 26.5 -7
s17.167 -3 24.5 -3c21.333 0 37.333 6.83301 48 20.5s17 30.167 19 49.5l46 405h-113l6 50h112l29 236c2.66699 19.333 6 38.333 10 57s10.333 35.167 19 49.5s20.334 26 35.001 35s33.667 13.5 57 13.5c12 0 23.5 -1.33301 34.5 -4l33.5 -8l-6 -53l-14 4
c-13.333 3.33301 -26 5 -38 5c-14 0 -25.333 -2.5 -34 -7.5s-15.5 -11.5 -20.5 -19.5s-8.66699 -17.333 -11 -28s-4.16602 -22 -5.49902 -34l-30 -246h114z" />
    <glyph glyph-name="circumflex" unicode="&#x2c6;" horiz-adv-x="185" 
d="M9 558h-63l112 139h67l114 -139h-65l-82 102z" />
    <glyph glyph-name="tilde" unicode="&#x2dc;" horiz-adv-x="185" 
d="M-64 569c2.66699 20.667 7.83594 37.498 15.5029 50.498s16.167 23 25.5 30s18.166 11.667 26.499 14s14.166 3.5 17.499 3.5c13.333 0 26.5 -2.33301 39.5 -7s25.5 -9.66699 37.5 -15s23.667 -10.166 35 -14.499s22.666 -6.5 33.999 -6.5c14.667 0 24.667 4.33301 30 13
s10 20 14 34h38c-1.33301 -11.333 -3.83301 -22.833 -7.5 -34.5s-9 -22.167 -16 -31.5s-15.333 -16.833 -25 -22.5s-20.834 -8.5 -33.501 -8.5c-13.333 0 -26.333 2.33301 -39 7s-25 10 -37 16c-12.667 5.33301 -24.667 10 -36 14s-22.666 6 -33.999 6
c-14.667 0 -25.5 -5.16699 -32.5 -15.5s-12.167 -21.166 -15.5 -32.499h-37z" />
    <glyph glyph-name="endash" unicode="&#x2013;" 
d="M0 291h500v-56h-500v56z" />
    <glyph glyph-name="emdash" unicode="&#x2014;" horiz-adv-x="1000" 
d="M130 291h740v-56h-740v56z" />
    <glyph glyph-name="quoteleft" unicode="&#x2018;" horiz-adv-x="278" 
d="M172 438h-76v108c0 34.667 5.16699 66.667 15.5 96s22.5 52.666 36.5 69.999l34 -25c-16 -18.667 -27.333 -39.667 -34 -63s-9.66699 -46.666 -9 -69.999h33v-116z" />
    <glyph glyph-name="quoteright" unicode="&#x2019;" horiz-adv-x="278" 
d="M106 712l76 0.000976562v-108c0 -6 -0.333008 -14.333 -1 -25s-2.66699 -23.167 -6 -37.5s-8.5 -30.333 -15.5 -48s-16.833 -36.167 -29.5 -55.5l-34 25c16 18.667 27.333 39.667 34 63s9.66699 46.666 9 69.999h-33v116z" />
    <glyph glyph-name="quotesinglbase" unicode="&#x201a;" horiz-adv-x="278" 
d="M106 116h76v-108c0 -34.667 -5.16699 -66.667 -15.5 -96s-22.5 -52.666 -36.5 -69.999l-34 25c16 18.667 27.333 39.667 34 63s9.66699 46.666 9 69.999h-33v116z" />
    <glyph glyph-name="quotedblleft" unicode="&#x201c;" horiz-adv-x="315" 
d="M129 438h-76v108c0 34.667 5.16699 66.667 15.5 96s22.5 52.666 36.5 69.999l34 -25c-16 -18.667 -27.333 -39.667 -34 -63s-9.66699 -46.666 -9 -69.999h33v-116zM252 438h-76v108c0 34.667 5.16699 66.667 15.5 96s22.5 52.666 36.5 69.999l34 -25
c-16 -18.667 -27.333 -39.667 -34 -63s-9.66699 -46.666 -9 -69.999h33v-116z" />
    <glyph glyph-name="quotedblright" unicode="&#x201d;" horiz-adv-x="315" 
d="M186 712l76 0.000976562v-108c0 -6 -0.333008 -14.333 -1 -25s-2.66699 -23.167 -6 -37.5s-8.5 -30.333 -15.5 -48s-16.833 -36.167 -29.5 -55.5l-34 25c16 18.667 27.333 39.667 34 63s9.66699 46.666 9 69.999h-33v116zM63 712.001l76 0.000976562v-108
c0 -6 -0.333008 -14.333 -1 -25s-2.66699 -23.167 -6 -37.5s-8.5 -30.333 -15.5 -48s-16.833 -36.167 -29.5 -55.5l-34 25c16 18.667 27.333 39.667 34 63s9.66699 46.666 9 69.999h-33v116z" />
    <glyph glyph-name="quotedblbase" unicode="&#x201e;" horiz-adv-x="315" 
d="M186 116h76v-108c0 -34.667 -5.16699 -66.667 -15.5 -96s-22.5 -52.666 -36.5 -69.999l-34 25c16 18.667 27.333 39.667 34 63s9.66699 46.666 9 69.999h-33v116zM63 116h76v-108c0 -34.667 -5.16699 -66.667 -15.5 -96s-22.5 -52.666 -36.5 -69.999l-34 25
c16 18.667 27.333 39.667 34 63s9.66699 46.666 9 69.999h-33v116z" />
    <glyph glyph-name="dagger" unicode="&#x2020;" horiz-adv-x="554" 
d="M247 712h60v-240h173v-56h-173v-506h-60v506h-173v56h173v240z" />
    <glyph glyph-name="daggerdbl" unicode="&#x2021;" horiz-adv-x="554" 
d="M247 712h60v-220h173v-56h-173v-243h173v-56h-173v-227h-60v227h-173v56h173v243h-173v56h173v220z" />
    <glyph glyph-name="bullet" unicode="&#x2022;" 
d="M72 356c0 24.667 4.66699 47.834 14 69.501s22 40.5 38 56.5s34.833 28.667 56.5 38s44.834 14 69.501 14s47.834 -4.66699 69.501 -14s40.5 -22 56.5 -38s28.667 -34.833 38 -56.5s14 -44.834 14 -69.501s-4.66699 -47.834 -14 -69.501s-22 -40.5 -38 -56.5
s-34.833 -28.667 -56.5 -38s-44.834 -14 -69.501 -14s-47.834 4.66699 -69.501 14s-40.5 22 -56.5 38s-28.667 34.833 -38 56.5s-14 44.834 -14 69.501z" />
    <glyph glyph-name="ellipsis" unicode="&#x2026;" horiz-adv-x="1000" 
d="M205 0h-76v116h76v-116zM538 0h-76v116h76v-116zM871 0h-76v116h76v-116z" />
    <glyph glyph-name="perthousand" unicode="&#x2030;" horiz-adv-x="1000" 
d="M169 366c-24 0 -43.833 5.83301 -59.5 17.5s-28 26.167 -37 43.5s-15.333 36.5 -19 57.5s-5.5 41.167 -5.5 60.5c0 18.667 1.83301 38.667 5.5 60s10 40.666 19 57.999s21.333 31.833 37 43.5s35.5 17.5 59.5 17.5c24.667 0 44.834 -5.83301 60.501 -17.5
s28 -26.167 37 -43.5s15.167 -36.666 18.5 -57.999s5 -41.333 5 -60c0 -19.333 -1.66699 -39.5 -5 -60.5s-9.5 -40.167 -18.5 -57.5s-21.333 -31.833 -37 -43.5s-35.834 -17.5 -60.501 -17.5zM169 416c14.667 0 26.667 4.5 36 13.5s16.5 20 21.5 33s8.5 27 10.5 42
s3 28.5 3 40.5s-1 25.5 -3 40.5s-5.5 29 -10.5 42s-12.167 24 -21.5 33s-21.333 13.5 -36 13.5s-26.5 -4.5 -35.5 -13.5s-16.167 -20 -21.5 -33s-9 -27 -11 -42s-3 -28.5 -3 -40.5s1 -25.5 3 -40.5s5.66699 -29 11 -42s12.5 -24 21.5 -33s20.833 -13.5 35.5 -13.5zM531 -12
c-24 0 -43.833 5.83301 -59.5 17.5s-28 26.167 -37 43.5s-15.333 36.5 -19 57.5s-5.5 41.167 -5.5 60.5c0 18.667 1.83301 38.667 5.5 60s10 40.666 19 57.999s21.333 31.833 37 43.5s35.5 17.5 59.5 17.5c24.667 0 44.834 -5.83301 60.501 -17.5s28 -26.167 37 -43.5
s15.167 -36.666 18.5 -57.999s5 -41.333 5 -60c0 -19.333 -1.66699 -39.5 -5 -60.5s-9.5 -40.167 -18.5 -57.5s-21.333 -31.833 -37 -43.5s-35.834 -17.5 -60.501 -17.5zM531 38c14.667 0 26.667 4.5 36 13.5s16.5 20 21.5 33s8.5 27 10.5 42s3 28.5 3 40.5s-1 25.5 -3 40.5
s-5.5 29 -10.5 42s-12.167 24 -21.5 33s-21.333 13.5 -36 13.5s-26.5 -4.5 -35.5 -13.5s-16.167 -20 -21.5 -33s-9 -27 -11 -42s-3 -28.5 -3 -40.5s1 -25.5 3 -40.5s5.66699 -29 11 -42s12.5 -24 21.5 -33s20.833 -13.5 35.5 -13.5zM831 -12
c-24 0 -43.833 5.83301 -59.5 17.5s-28 26.167 -37 43.5s-15.333 36.5 -19 57.5s-5.5 41.167 -5.5 60.5c0 18.667 1.83301 38.667 5.5 60s10 40.666 19 57.999s21.333 31.833 37 43.5s35.5 17.5 59.5 17.5c24.667 0 44.834 -5.83301 60.501 -17.5s28 -26.167 37 -43.5
s15.167 -36.666 18.5 -57.999s5 -41.333 5 -60c0 -19.333 -1.66699 -39.5 -5 -60.5s-9.5 -40.167 -18.5 -57.5s-21.333 -31.833 -37 -43.5s-35.834 -17.5 -60.501 -17.5zM831 38c14.667 0 26.667 4.5 36 13.5s16.5 20 21.5 33s8.5 27 10.5 42s3 28.5 3 40.5s-1 25.5 -3 40.5
s-5.5 29 -10.5 42s-12.167 24 -21.5 33s-21.333 13.5 -36 13.5s-26.5 -4.5 -35.5 -13.5s-16.167 -20 -21.5 -33s-9 -27 -11 -42s-3 -28.5 -3 -40.5s1 -25.5 3 -40.5s5.66699 -29 11 -42s12.5 -24 21.5 -33s20.833 -13.5 35.5 -13.5zM163 -37l-39 21l392 756l41 -18z" />
    <glyph glyph-name="guilsinglleft" unicode="&#x2039;" horiz-adv-x="278" 
d="M224 418l-103 -155l103 -155l-48 -32l-122 187l122 187z" />
    <glyph glyph-name="guilsinglright" unicode="&#x203a;" horiz-adv-x="278" 
d="M102 450l122 -187l-122 -187l-48 32l103 155l-103 155z" />
    <glyph glyph-name="trademark" unicode="&#x2122;" horiz-adv-x="990" 
d="M207 668h-135v44h320v-44h-135v-368h-50v368zM848 668h-2l-149 -368h-30l-149 368h-2v-368h-50v412h85l133 -334l129 334h85v-412h-50v368z" />
    <glyph glyph-name=".null" horiz-adv-x="0" 
 />
    <glyph glyph-name="nonmarkingreturn" horiz-adv-x="278" 
 />
    </font>
</defs>
</svg>
