<?xml version="1.0" standalone="no"?>
<!DOCTYPE svg PUBLIC "-//W3C//DTD SVG 1.1//EN" "http://www.w3.org/Graphics/SVG/1.1/DTD/svg11.dtd" >
<svg>
<metadata>
Created by FontForge 20090914 at Fri Aug  5 18:53:43 2022
 By www-data
Copyright (c) 1989, 1993 Adobe Systems Incorporated.  All Rights Reserved.Akzidenz Grotesk is a registered trademark of Berthold.
</metadata>
<defs>
<font id="AkzidenzGrotesk-Roman" horiz-adv-x="556" >
  <font-face 
    font-family="AkzidenzGrotesk"
    font-weight="400"
    font-stretch="normal"
    units-per-em="1000"
    panose-1="2 0 5 3 5 0 0 2 0 3"
    ascent="800"
    descent="-200"
    x-height="478"
    cap-height="712"
    bbox="-166 -236.001 1131 937.998"
    underline-thickness="50"
    underline-position="-50"
    unicode-range="U+0005-U+2122"
  />
<missing-glyph horiz-adv-x="278" 
 />
    <glyph glyph-name=".notdef" horiz-adv-x="278" 
 />
    <glyph glyph-name="breve" horiz-adv-x="204" 
d="M0 723c3.33301 -28 14.833 -47.832 34.5 -59.499s42.167 -17.5 67.5 -17.5c28.667 0 51.167 5.66699 67.5 17s27.833 31.333 34.5 60h52c-5.33301 -42.667 -21 -75.834 -47 -99.501s-60.667 -35.5 -104 -35.5c-46 0 -82.667 10.5 -110 31.5s-43 55.5 -47 103.5h52z" />
    <glyph glyph-name="dotaccent" horiz-adv-x="204" 
d="M58 696h88v-100h-88v100z" />
    <glyph glyph-name="ring" horiz-adv-x="204" 
d="M0 667c0 14 2.66699 27.167 8 39.5s12.666 23.166 21.999 32.499s20.166 16.666 32.499 21.999s25.5 8 39.5 8s27.167 -2.66699 39.5 -8s23.166 -12.666 32.499 -21.999s16.666 -20.166 21.999 -32.499s8 -25.5 8 -39.5s-2.66699 -27.167 -8 -39.5
s-12.666 -23.166 -21.999 -32.499s-20.166 -16.666 -32.499 -21.999s-25.5 -8 -39.5 -8s-27.167 2.66699 -39.5 8s-23.166 12.666 -32.499 21.999s-16.666 20.166 -21.999 32.499s-8 25.5 -8 39.5zM40 667c0 -16 6.16699 -30.333 18.5 -43s26.833 -19 43.5 -19
s31.167 6.33301 43.5 19s18.5 27 18.5 43s-6.16699 30.333 -18.5 43s-26.833 19 -43.5 19s-31.167 -6.33301 -43.5 -19s-18.5 -27 -18.5 -43z" />
    <glyph glyph-name="hungarumlaut" unicode="&#xa;" horiz-adv-x="204" 
d="M38 723h109l-131 -141h-67zM220 723h109l-133 -141h-65z" />
    <glyph glyph-name="ogonek" horiz-adv-x="204" 
d="M156 -215c-16 -6 -32.999 -8.99707 -50.999 -8.99707c-14 0 -27.333 2.16699 -40 6.5s-23.834 10.666 -33.501 18.999s-17.334 18.5 -23.001 30.5s-8.5 25.667 -8.5 41c0 12.667 3.16699 25 9.5 37s14.5 23.5 24.5 34.5s20.833 21.167 32.5 30.5
s22.834 17.666 33.501 24.999h64l-25 -27c-10 -10.667 -19.667 -22 -29 -34s-17.333 -24 -24 -36s-10 -23.333 -10 -34c0 -15.333 3.83301 -27 11.5 -35s17.167 -12 28.5 -12c8 0 14.833 0.666992 20.5 2s12.167 3.66602 19.5 6.99902v-46z" />
    <glyph glyph-name="caron" horiz-adv-x="204" 
d="M-44 723h80l65 -95l66 95h81l-101 -141h-92z" />
    <glyph glyph-name="dotlessi" unicode="&#xd;" horiz-adv-x="204" 
d="M61 478h82v-478h-82v478z" />
    <glyph glyph-name="fraction" horiz-adv-x="167" 
d="M264 712h69l-430 -744h-69z" />
    <glyph glyph-name="fi" horiz-adv-x="463" 
d="M86 408h-78.9961v70h79v85c0 52.667 10.667 90.667 32 114s55 35 101 35c9.33301 0 18.333 -0.666992 27 -2l25 -4v-62c-6.66699 1.33301 -13.334 2.33301 -20.001 3s-15 1 -25 1c-6.66699 0 -13.334 -0.666992 -20.001 -2s-12.834 -4.33301 -18.501 -9
s-10.334 -11.5 -14.001 -20.5s-5.5 -20.833 -5.5 -35.5v-103h89v-70h-89v-408h-82v408zM320.004 478h82v-478h-82v478zM320.004 712h82v-94h-82v94z" />
    <glyph glyph-name="fl" horiz-adv-x="463" 
d="M86 408h-78.9961v70h79v85c0 52.667 10.667 90.667 32 114s55 35 101 35c9.33301 0 18.333 -0.666992 27 -2l25 -4v-62c-6.66699 1.33301 -13.334 2.33301 -20.001 3s-15 1 -25 1c-6.66699 0 -13.334 -0.666992 -20.001 -2s-12.834 -4.33301 -18.501 -9
s-10.334 -11.5 -14.001 -20.5s-5.5 -20.833 -5.5 -35.5v-103h89v-70h-89v-408h-82v408zM320.004 712h82v-712h-82v712z" />
    <glyph glyph-name="Lslash" 
d="M71 287l-54 -32v74l54 32v351h94v-296l181 107v-74l-181 -107v-260h355v-82h-449v287z" />
    <glyph glyph-name="lslash" horiz-adv-x="204" 
d="M61 344l-64 -47v67l64 47v301h82v-242l64 46v-67l-64 -46v-403h-82v344z" />
    <glyph glyph-name="Zcaron" horiz-adv-x="611" 
d="M22 90l445 540h-410v82h513v-88l-447 -542h466v-82h-567v90zM160 902h80l65 -95l66 95h81l-101 -141h-92z" />
    <glyph glyph-name="zcaron" horiz-adv-x="426" 
d="M23 70l273 338h-248v70h349v-68l-277 -340h283v-70h-380v70zM67 714h80l65 -95l66 95h81l-101 -141h-92z" />
    <glyph glyph-name="space" unicode=" " horiz-adv-x="278" 
 />
    <glyph glyph-name="space" unicode="&#xa0;" horiz-adv-x="278" 
 />
    <glyph glyph-name="exclam" unicode="!" horiz-adv-x="296" 
d="M107 417v295h82v-295l-25 -270h-32zM104 94h88v-94h-88v94z" />
    <glyph glyph-name="quotedbl" unicode="&#x22;" horiz-adv-x="389" 
d="M100 712h64v-268h-64v268zM225 712h64v-268h-64v268z" />
    <glyph glyph-name="numbersign" unicode="#" 
d="M322 213h-124l-31 -213h-68l31 213h-102v58h110l20 138h-102v58h110l31 213h68l-31 -213h124l31 213h68l-31 -213h102v-58h-110l-20 -138h102v-58h-110l-31 -213h-68zM350 409h-124l-20 -138h124z" />
    <glyph glyph-name="dollar" unicode="$" 
d="M318 70c16.667 0.666992 32.834 3.33496 48.501 8.00195s29.667 11.667 42 21s22.166 20.666 29.499 33.999s11 28.666 11 45.999c0 16.667 -4.5 31 -13.5 43s-20 22.167 -33 30.5s-27.167 15.5 -42.5 21.5l-42 16v-220zM254 -5.99902
c-29.333 0.666992 -57.166 5.33203 -83.499 13.999s-50 21 -71 37s-39 35.5 -54 58.5s-25.833 49.167 -32.5 78.5l93 18c9.33301 -36 26.833 -66.167 52.5 -90.5s57.5 -37.5 95.5 -39.5v239c-26.667 9.33301 -51.834 19.5 -75.501 30.5s-44.334 24.333 -62.001 40
s-31.667 34.5 -42 56.5s-15.5 48.667 -15.5 80c0 24.667 5.83301 47.167 17.5 67.5s26.834 38 45.501 53s39.667 26.667 63 35s46.333 13.166 69 14.499v106h64v-106c24 -1.33301 47.333 -5.66602 70 -12.999s43.167 -17.666 61.5 -30.999s34 -29.833 47 -49.5
s21.5 -42.167 25.5 -67.5l-90 -7c-8.66699 26 -22.834 47.333 -42.501 64s-43.5 26 -71.5 28v-218l39 -16c24.667 -10 48.334 -20.333 71.001 -31s42.5 -23.167 59.5 -37.5s30.5 -31 40.5 -50s15 -42.167 15 -69.5c0 -34 -5.83301 -63.167 -17.5 -87.5
s-27.5 -44.333 -47.5 -60s-43.5 -27.167 -70.5 -34.5s-55.833 -11.333 -86.5 -12v-117h-67v117zM254 609.999c-13.333 -0.666992 -25.999 -3.16699 -37.999 -7.5s-22.667 -10.333 -32 -18s-16.833 -17.167 -22.5 -28.5s-8.5 -24 -8.5 -38c0 -15.333 3 -28.5 9 -39.5
s13.667 -20.5 23 -28.5s20.166 -15 32.499 -21s24.5 -11.333 36.5 -16v197z" />
    <glyph glyph-name="percent" unicode="%" horiz-adv-x="1000" 
d="M182 508c0 -15.333 1.66699 -29.833 5 -43.5s8.5 -25.834 15.5 -36.501s16 -19 27 -25s24.167 -9 39.5 -9s28.5 3 39.5 9s20 14.333 27 25s12.167 22.834 15.5 36.501s5 28.167 5 43.5c0 14.667 -1.66699 29 -5 43s-8.5 26.167 -15.5 36.5s-16 18.666 -27 24.999
s-24.167 9.5 -39.5 9.5s-28.5 -3.16699 -39.5 -9.5s-20 -14.666 -27 -24.999s-12.167 -22.5 -15.5 -36.5s-5 -28.333 -5 -43zM106 508c0 27.333 4 52 12 74s19.333 40.667 34 56s31.834 27.166 51.501 35.499s41.5 12.5 65.5 12.5s45.833 -4.16699 65.5 -12.5
s36.834 -20.166 51.501 -35.499s26 -34 34 -56s12 -46.667 12 -74s-4 -52 -12 -74s-19.333 -40.667 -34 -56s-31.834 -27.166 -51.501 -35.499s-41.5 -12.5 -65.5 -12.5s-45.833 4.16699 -65.5 12.5s-36.834 20.166 -51.501 35.499s-26 34 -34 56s-12 46.667 -12 74z
M568 172c0 27.333 4 52 12 74s19.333 40.667 34 56s31.834 27.166 51.501 35.499s41.5 12.5 65.5 12.5s45.833 -4.16699 65.5 -12.5s36.834 -20.166 51.501 -35.499s26 -34 34 -56s12 -46.667 12 -74s-4 -52 -12 -74s-19.333 -40.667 -34 -56
s-31.834 -27.166 -51.501 -35.499s-41.5 -12.5 -65.5 -12.5s-45.833 4.16699 -65.5 12.5s-36.834 20.166 -51.501 35.499s-26 34 -34 56s-12 46.667 -12 74zM644 172c0 -15.333 1.66699 -29.833 5 -43.5s8.5 -25.834 15.5 -36.501s16 -19 27 -25s24.167 -9 39.5 -9
s28.5 3 39.5 9s20 14.333 27 25s12.167 22.834 15.5 36.501s5 28.167 5 43.5c0 14.667 -1.66699 29 -5 43s-8.5 26.167 -15.5 36.5s-16 18.666 -27 24.999s-24.167 9.5 -39.5 9.5s-28.5 -3.16699 -39.5 -9.5s-20 -14.666 -27 -24.999s-12.167 -22.5 -15.5 -36.5
s-5 -28.333 -5 -43zM680 712h69l-430 -744h-69z" />
    <glyph glyph-name="ampersand" unicode="&#x26;" horiz-adv-x="648" 
d="M430 201c10.667 21.333 20.3301 42.8359 28.9971 64.5029s15.667 44.167 21 67.5h78c-6 -36 -16.167 -70.333 -30.5 -103s-31.166 -64 -50.499 -94c26 -36 58 -54 96 -54h15c4.66699 0 9.66699 0.666992 15 2v-84c-4.66699 -2 -11.167 -3.5 -19.5 -4.5
s-16.166 -1.5 -23.499 -1.5c-28 0 -53.333 6.5 -76 19.5s-44.334 31.167 -65.001 54.5c-11.333 -10 -22.666 -19.5 -33.999 -28.5s-24 -16.833 -38 -23.5s-29.333 -12 -46 -16s-35.667 -6 -57 -6c-27.333 0 -53 4.66699 -77 14s-45 22.666 -63 39.999
s-32.333 38.166 -43 62.499s-16 51.833 -16 82.5c0 26 4.5 50.5 13.5 73.5s21.333 43.833 37 62.5s33.667 35.167 54 49.5s41.833 26.5 64.5 36.5c-10 18 -18.333 38.333 -25 61s-10 44.334 -10 65.001c0 24.667 3.66699 47.5 11 68.5s17.833 39.167 31.5 54.5
s30.5 27.166 50.5 35.499s42.667 12.5 68 12.5c20.667 0 39.834 -3.33301 57.501 -10s33 -16.334 46 -29.001s23.333 -27.667 31 -45s11.5 -36.333 11.5 -57c0 -24 -4.66699 -45.667 -14 -65s-21.5 -36.833 -36.5 -52.5s-32 -29.5 -51 -41.5s-38.5 -22.333 -58.5 -31z
M244.996 344.003c-33.333 -13.333 -60.332 -31.6689 -80.999 -55.002s-31 -54 -31 -92c0 -17.333 3 -33.666 9 -48.999s14.5 -28.666 25.5 -39.999s23.667 -20.5 38 -27.5s30.166 -10.5 47.499 -10.5c27.333 0 49.833 5.5 67.5 16.5s34.167 24.833 49.5 41.5zM260.997 569
c0 -8.66699 0.999023 -18.167 2.99902 -28.5s4.66699 -20.833 8 -31.5s7 -21 11 -31l11 -27c14 6 27.667 13.333 41 22s25 18.5 35 29.5s18.167 23.167 24.5 36.5s9.5 28.333 9.5 45c0 19.333 -6 34.833 -18 46.5s-27.667 17.5 -47 17.5
c-23.333 0 -42.166 -7.33301 -56.499 -22s-21.5 -33.667 -21.5 -57z" />
    <glyph glyph-name="quotesingle" unicode="'" horiz-adv-x="278" 
d="M107 712h64v-268h-64v268z" />
    <glyph glyph-name="parenleft" unicode="(" horiz-adv-x="315" 
d="M234 -172c-42.667 67.333 -78.001 139.501 -106.001 216.501s-42 155.833 -42 236.5c0 38.667 3.83301 77.667 11.5 117s18.334 78.166 32.001 116.499s29.5 75.666 47.5 111.999s37.333 70.833 58 103.5h66c-19.333 -31.333 -37 -65.5 -53 -102.5s-30 -75 -42 -114
s-21.333 -78.167 -28 -117.5s-10 -77.333 -10 -114c0 -79.333 12 -157.666 36 -234.999s56 -150.333 96 -219h-66z" />
    <glyph glyph-name="parenright" unicode=")" horiz-adv-x="315" 
d="M81 730c42.667 -67.333 78.001 -139.501 106.001 -216.501s42 -155.833 42 -236.5c0 -38.667 -3.83301 -77.667 -11.5 -117s-18.334 -78.166 -32.001 -116.499s-29.5 -75.666 -47.5 -111.999s-37.333 -70.833 -58 -103.5h-66c18.667 31.333 36.167 65.5 52.5 102.5
s30.5 75 42.5 114s21.333 78.167 28 117.5s10 77.333 10 114c0 79.333 -12 157.666 -36 234.999s-56 150.333 -96 219h66z" />
    <glyph glyph-name="asterisk" unicode="*" horiz-adv-x="389" 
d="M77 430l73 100l-120 35l20 61l114 -36v122h64v-123l112 40l19 -63l-114 -37l73 -91l-49 -43l-71 96l-70 -97z" />
    <glyph glyph-name="plus" unicode="+" horiz-adv-x="600" 
d="M265 218h-218v70h218v218h70v-218h218v-70h-218v-218h-70v218z" />
    <glyph glyph-name="comma" unicode="," horiz-adv-x="278" 
d="M88 113l102.001 -0.00195312v-113c0 -6.66699 -0.833008 -16.167 -2.5 -28.5s-4 -25.666 -7 -39.999s-6.83301 -29.166 -11.5 -44.499s-10 -29.333 -16 -42h-47c9.33301 29.333 15.666 55.5 18.999 78.5s5 48.5 5 76.5h-42v113z" />
    <glyph glyph-name="hyphen" unicode="-" horiz-adv-x="296" 
d="M46 295h204v-82h-204v82z" />
    <glyph glyph-name="period" unicode="." horiz-adv-x="278" 
d="M88 113h102v-113h-102v113z" />
    <glyph glyph-name="slash" unicode="/" horiz-adv-x="333" 
d="M247 730h73l-234 -748h-73z" />
    <glyph glyph-name="zero" unicode="0" 
d="M125 340c0 -53.333 4.83301 -97 14.5 -131s21.834 -60.833 36.501 -80.5s31 -33.334 49 -41.001s35.667 -11.5 53 -11.5c16.667 0 34.167 3.83301 52.5 11.5s34.833 21.334 49.5 41.001s26.834 46.5 36.501 80.5s14.5 77.667 14.5 131
c0 52.667 -4.83301 96.167 -14.5 130.5s-21.834 61.333 -36.501 81s-31.167 33.334 -49.5 41.001s-35.833 11.5 -52.5 11.5c-17.333 0 -35 -3.83301 -53 -11.5s-34.333 -21.334 -49 -41.001s-26.834 -46.667 -36.501 -81s-14.5 -77.833 -14.5 -130.5zM31 340
c0 38.667 4.33301 78.5 13 119.5s22.667 78.333 42 112s44.833 61.167 76.5 82.5s70.167 32 115.5 32s83.666 -10.667 114.999 -32s56.833 -48.833 76.5 -82.5s33.834 -71 42.501 -112s13 -80.833 13 -119.5c0 -39.333 -4.33301 -79.333 -13 -120
s-22.834 -77.834 -42.501 -111.501s-45.167 -61.167 -76.5 -82.5s-69.666 -32 -114.999 -32s-83.833 10.667 -115.5 32s-57.167 48.833 -76.5 82.5s-33.333 70.834 -42 111.501s-13 80.667 -13 120z" />
    <glyph glyph-name="one" unicode="1" 
d="M271 495l-144.999 0.000976562v64c24 0.666992 45.667 2.66699 65 6s36.166 9.16602 50.499 17.499s26.5 20.333 36.5 36s17.333 36.167 22 61.5h65v-680h-94v495z" />
    <glyph glyph-name="two" unicode="2" 
d="M68 89c20.667 10.667 43.3311 23.998 67.998 39.998s49.667 34 75 54s50 41.5 74 64.5s45.167 47.167 63.5 72.5s33.166 51.166 44.499 77.499s17 52.833 17 79.5c0 84.667 -43.667 127 -131 127c-22 0 -40.833 -3.66699 -56.5 -11s-28.5 -17 -38.5 -29
s-17.167 -25.5 -21.5 -40.5s-6.5 -30.167 -6.5 -45.5c0 -13.333 0.833008 -27.166 2.5 -41.499s3.83398 -28.833 6.50098 -43.5h-88c-6 26.667 -9 52.334 -9 77.001c0 28.667 4.33301 56.167 13 82.5s21.834 49.333 39.501 69s40.167 35.334 67.5 47.001
s59.666 17.5 96.999 17.5c32.667 0 62.334 -5.16699 89.001 -15.5s49.667 -25 69 -44s34.333 -41.833 45 -68.5s16 -56.334 16 -89.001c0 -42.667 -10.333 -83.167 -31 -121.5s-46.667 -73.666 -78 -105.999s-65.166 -61.833 -101.499 -88.5s-70.5 -50 -102.5 -70v1l-1 -2
h321v-82h-443v89z" />
    <glyph glyph-name="three" unicode="3" 
d="M214 389c12.667 0 25.165 -0.336914 37.498 -1.00391s24.833 -1 37.5 -1c4.66699 0 13.667 0.833008 27 2.5s27 6 41 13s26.333 17.333 37 31s16 32.834 16 57.501c0 35.333 -9.5 64 -28.5 86s-52.5 33 -100.5 33c-24.667 0 -45.5 -4.5 -62.5 -13.5
s-30.833 -21 -41.5 -36s-18.667 -32.167 -24 -51.5s-8.33301 -39 -9 -59l-88 5c2 76.667 22.167 134.334 60.5 173.001s93.833 58 166.5 58c39.333 0 73 -5.83301 101 -17.5s50.833 -26.667 68.5 -45s30.667 -39 39 -62s12.5 -45.5 12.5 -67.5
c0 -14 -1.66699 -28.167 -5 -42.5s-8.16602 -27.833 -14.499 -40.5s-14.666 -24.167 -24.999 -34.5s-22.5 -17.833 -36.5 -22.5c32 -14 56.667 -35.667 74 -65s26 -61 26 -95c0 -17.333 -2.83301 -37.5 -8.5 -60.5s-17.167 -44.833 -34.5 -65.5s-41.833 -38.167 -73.5 -52.5
s-73.5 -21.5 -125.5 -21.5c-74.667 0 -134.334 18.833 -179.001 56.5s-67.667 95.834 -69 174.501h88c2.66699 -54.667 17 -93.167 43 -115.5s65.333 -33.5 118 -33.5c18.667 0 36.834 2 54.501 6s33.334 10.5 47.001 19.5s24.667 20.833 33 35.5s12.5 32.667 12.5 54
c0 25.333 -4 45.833 -12 61.5s-18.833 27.834 -32.5 36.501s-29.834 14.5 -48.501 17.5s-38.667 4.5 -60 4.5h-31c-10 0 -20.333 -0.666992 -31 -2v80z" />
    <glyph glyph-name="four" unicode="4" 
d="M338 163h-301v82l323 435h72v-435h95v-82h-95v-163h-94v163zM338 535h-2l-211 -290h213v290z" />
    <glyph glyph-name="five" unicode="5" 
d="M474 598h-317l-11 -176h2c13.333 17.333 33.333 31 60 41s56 15 88 15c38.667 0 72 -7 100 -21s51.167 -32.5 69.5 -55.5s31.833 -49 40.5 -78s13 -58.833 13 -89.5c0 -34.667 -5.66699 -66.667 -17 -96s-27.333 -54.666 -48 -75.999s-45.167 -38 -73.5 -50
s-59.833 -18 -94.5 -18c-40 0 -74 5.16699 -102 15.5s-51.167 23.333 -69.5 39s-32.666 32.667 -42.999 51s-18 35.666 -23 51.999s-8.16699 30.166 -9.5 41.499s-2 18 -2 20l94 5c0 -12 1.83301 -26.167 5.5 -42.5s10.834 -31.833 21.501 -46.5
s25.834 -27.167 45.501 -37.5s45.5 -15.5 77.5 -15.5c25.333 0 47.166 5 65.499 15s33.333 22.667 45 38s20.167 32.333 25.5 51s8 36.667 8 54c0 33.333 -4.66699 60.833 -14 82.5s-20.833 38.834 -34.5 51.501s-28.334 21.5 -44.001 26.5s-29.834 7.5 -42.501 7.5
c-32 0 -59.667 -8.16699 -83 -24.5s-42.333 -38.833 -57 -67.5l-86 6l23 364h387v-82z" />
    <glyph glyph-name="six" unicode="6" 
d="M411 497c-5.33301 35.333 -18.8271 63.002 -40.4941 83.002s-47.5 30 -77.5 30c-34 0 -61.5 -7.66699 -82.5 -23s-37.333 -35 -49 -59s-19.667 -50.333 -24 -79s-7.16602 -56.334 -8.49902 -83.001h2c2.66699 6 8.16699 13.5 16.5 22.5s19.166 18 32.499 27
s29.666 16.667 48.999 23s41.666 9.5 66.999 9.5c32 0 61.5 -5.33301 88.5 -16s50.167 -25.5 69.5 -44.5s34.333 -41.833 45 -68.5s16 -56 16 -88c0 -25.333 -3.83301 -51.833 -11.5 -79.5s-20.834 -53.167 -39.501 -76.5s-43.167 -42.666 -73.5 -57.999
s-68.166 -23 -113.499 -23c-20 0 -43.5 4.16699 -70.5 12.5s-52.833 24.666 -77.5 48.999s-45.5 58.5 -62.5 102.5s-25.5 101.667 -25.5 173c0 26 1.5 52.833 4.5 80.5s8.16699 54.667 15.5 81s17.166 51.166 29.499 74.499s27.666 43.833 45.999 61.5
s40.166 31.667 65.499 42s55 15.5 89 15.5c58.667 0 104.667 -15.667 138 -47s56.666 -75.333 69.999 -132zM143.006 221.002c0 -22 3.66699 -41.833 11 -59.5s17.333 -32.834 30 -45.501s27.667 -22.5 45 -29.5s36 -10.5 56 -10.5s38.667 3.5 56 10.5
s32.333 16.833 45 29.5s22.667 27.834 30 45.501s11 37.5 11 59.5s-3.66699 41.833 -11 59.5s-17.333 32.834 -30 45.501s-27.667 22.5 -45 29.5s-36 10.5 -56 10.5s-38.667 -3.5 -56 -10.5s-32.333 -16.833 -45 -29.5s-22.667 -27.834 -30 -45.501s-11 -37.5 -11 -59.5z
" />
    <glyph glyph-name="seven" unicode="7" 
d="M77 680l415.997 -0.000976562v-85c0 -18.667 -4.5 -39.167 -13.5 -61.5s-22.167 -48.5 -39.5 -78.5l-61 -109c-19.333 -36 -37.166 -72.667 -53.499 -110s-30.666 -75.5 -42.999 -114.5s-21.833 -79.5 -28.5 -121.5h-108c8.66699 44 20.5 87.167 35.5 129.5
s32.333 84 52 125s41.167 80.833 64.5 119.5l71 114c5.33301 8 10.833 16.833 16.5 26.5s10.834 19.334 15.501 29.001s8.5 19.167 11.5 28.5s4.5 18 4.5 26h-270v-127h-70v209z" />
    <glyph glyph-name="eight" unicode="8" 
d="M36 200c0 35.333 7.16309 66.5 21.4961 93.5s37.5 50.833 69.5 71.5c-28 15.333 -47.167 35 -57.5 59s-15.5 50 -15.5 78c0 14.667 2.33301 32.667 7 54s14.834 41.5 30.501 60.5s38.334 35.333 68.001 49s69.167 20.5 118.5 20.5s88.833 -6.83301 118.5 -20.5
s52.334 -30 68.001 -49s25.834 -39.167 30.501 -60.5s7 -39.333 7 -54c0 -28 -5.16699 -54 -15.5 -78s-29.5 -43.667 -57.5 -59c32 -20.667 55.167 -44.5 69.5 -71.5s21.5 -58.167 21.5 -93.5c0 -21.333 -4 -44 -12 -68s-21.333 -46.333 -40 -67s-43.5 -37.667 -74.5 -51
s-69.5 -20 -115.5 -20s-84.5 6.66699 -115.5 20s-55.833 30.333 -74.5 51s-32 43 -40 67s-12 46.667 -12 68zM129.996 205c0 -44.667 13.5 -77.334 40.5 -98.001s62.833 -31 107.5 -31s80.5 10.333 107.5 31s40.5 53.334 40.5 98.001c0 10.667 -1.83301 22.834 -5.5 36.501
s-11 26.5 -22 38.5s-26.167 22 -45.5 30s-44.333 12 -75 12c-31.333 0 -56.5 -4 -75.5 -12s-34 -18 -45 -30s-18.333 -24.833 -22 -38.5s-5.5 -25.834 -5.5 -36.501zM141.996 501c0 -28.667 11.167 -53 33.5 -73s56.5 -30 102.5 -30s80.167 10 102.5 30s33.5 44.333 33.5 73
s-11.167 53 -33.5 73s-56.5 30 -102.5 30s-80.167 -10 -102.5 -30s-33.5 -44.333 -33.5 -73z" />
    <glyph glyph-name="nine" unicode="9" 
d="M129 452c0 -29.333 4.33496 -53.833 13.002 -73.5s20 -35.167 34 -46.5s29.667 -19.333 47 -24s34.666 -7 51.999 -7s34.666 2.66699 51.999 8s33 13.833 47 25.5s25.333 27.167 34 46.5s13 43 13 71c0 16 -2.66699 33 -8 51s-13.833 34.5 -25.5 49.5
s-26.667 27.333 -45 37s-40.833 14.5 -67.5 14.5s-49.334 -4.83301 -68.001 -14.5s-33.667 -22 -45 -37s-19.666 -31.5 -24.999 -49.5s-8 -35 -8 -51zM145.002 183c7.33301 -31.333 20.833 -58.0029 40.5 -80.0029s46.834 -33 81.501 -33c30.667 0 56.334 7.33301 77.001 22
s37.167 33.334 49.5 56.001s21.333 47.5 27 74.5s8.5 53.167 8.5 78.5l-1 2c-24.667 -30.667 -50.5 -52.334 -77.5 -65.001s-60.167 -19 -99.5 -19c-23.333 0 -47.333 4.5 -72 13.5s-47.334 22.833 -68.001 41.5s-37.5 42.5 -50.5 71.5s-19.5 63.833 -19.5 104.5
c0 34.667 6.16699 66.5 18.5 95.5s29 53.833 50 74.5s45.333 36.834 73 48.501s56.5 17.5 86.5 17.5c36 0 69 -5.5 99 -16.5s55.833 -29.667 77.5 -56s38.667 -61.166 51 -104.499s18.5 -97.333 18.5 -162c0 -22 -1.16699 -46 -3.5 -72s-6.83301 -52.167 -13.5 -78.5
s-15.834 -51.666 -27.501 -75.999s-26.5 -45.833 -44.5 -64.5s-39.833 -33.667 -65.5 -45s-55.834 -17 -90.501 -17c-57.333 0 -103.166 15.167 -137.499 45.5s-58.5 72.5 -72.5 126.5z" />
    <glyph glyph-name="colon" unicode=":" horiz-adv-x="278" 
d="M190 0h-102v113h102v-113zM88 377v113h102v-113h-102z" />
    <glyph glyph-name="semicolon" unicode=";" horiz-adv-x="278" 
d="M88 113l102.001 -0.00195312v-113c0 -6.66699 -0.833008 -16.167 -2.5 -28.5s-4 -25.666 -7 -39.999s-6.83301 -29.166 -11.5 -44.499s-10 -29.333 -16 -42h-47c9.33301 29.333 15.666 55.5 18.999 78.5s5 48.5 5 76.5h-42v113zM88.001 489.998h102v-113h-102v113z" />
    <glyph glyph-name="less" unicode="&#x3c;" horiz-adv-x="600" 
d="M553 440l-417 -187l417 -187v-74l-506 232v58l506 232v-74z" />
    <glyph glyph-name="equal" unicode="=" horiz-adv-x="600" 
d="M47 387h506v-70h-506v70zM47 189h506v-70h-506v70z" />
    <glyph glyph-name="greater" unicode="&#x3e;" horiz-adv-x="600" 
d="M47 66l417 187l-417 187v74l506 -232v-58l-506 -232v74z" />
    <glyph glyph-name="question" unicode="?" horiz-adv-x="574" 
d="M242 392l37 0.00195312c28.667 0 52.834 3 72.501 9s35.667 14.667 48 26s21.166 25 26.499 41s8 34 8 54c0 17.333 -3.83301 33.666 -11.5 48.999s-18 28.666 -31 39.999s-27.833 20.333 -44.5 27s-34 10 -52 10c-52 0 -89.5 -14.833 -112.5 -44.5
s-35.167 -70.167 -36.5 -121.5h-88c0 36 5.5 69 16.5 99s26.667 55.5 47 76.5s44.5 37.333 72.5 49s58.667 17.5 92 17.5c31.333 0 60.833 -4.66699 88.5 -14s52 -23 73 -41s37.667 -40.333 50 -67s18.5 -57.667 18.5 -93c0 -29.333 -4.66699 -55.833 -14 -79.5
s-22.5 -44.167 -39.5 -61.5s-37.167 -31 -60.5 -41s-49.333 -15.667 -78 -17v-156h-82v238zM239 94.002h88v-94h-88v94z" />
    <glyph glyph-name="at" unicode="@" horiz-adv-x="800" 
d="M263 291c0 -30 7 -53.332 21 -69.999s33.667 -25 59 -25c22.667 0 44 7.66699 64 23s37.5 34.166 52.5 56.499s26.667 46.5 35 72.5s12.5 50 12.5 72c0 24.667 -6.66699 46 -20 64s-34 27 -62 27c-23.333 0 -45 -7.16699 -65 -21.5s-37.167 -32.333 -51.5 -54
s-25.5 -45.5 -33.5 -71.5s-12 -50.333 -12 -73zM559 556.001l61.9941 0.000976562l-87 -290c-3.33301 -10.667 -6.16602 -20.5 -8.49902 -29.5s-3.5 -16.167 -3.5 -21.5c0 -12.667 8.33301 -19 25 -19c18 0 35.667 6.66699 53 20s32.833 30.666 46.5 51.999
s24.667 45.333 33 72s12.5 53 12.5 79c0 38.667 -7.66699 73.5 -23 104.5s-35.666 57.5 -60.999 79.5s-54.5 39 -87.5 51s-67.5 18 -103.5 18c-44 0 -84.833 -8.5 -122.5 -25.5s-70.334 -40 -98.001 -69s-49.334 -62.667 -65.001 -101s-23.5 -78.5 -23.5 -120.5
c0 -45.333 8.16699 -87.333 24.5 -126s38.666 -72 66.999 -100s61.5 -50 99.5 -66s78.333 -24 121 -24c50 0 98 10.333 144 31s84 51.334 114 92.001h58c-16 -28 -35.333 -53.333 -58 -76s-47.834 -41.667 -75.501 -57s-57 -27.166 -88 -35.499s-62.5 -12.5 -94.5 -12.5
c-56 0 -107.167 9.5 -153.5 28.5s-86 45.167 -119 78.5s-58.5 72.833 -76.5 118.5s-27 95.167 -27 148.5s9.83301 102.833 29.5 148.5s46.334 85.167 80.001 118.5s73 59.5 118 78.5s92.833 28.5 143.5 28.5c46.667 0 90.834 -7.66699 132.501 -23
s77.834 -36.833 108.501 -64.5s55 -60.5 73 -98.5s27 -79.333 27 -124c0 -41.333 -7.33301 -79.5 -22 -114.5s-33.5 -65.333 -56.5 -91s-48.167 -45.834 -75.5 -60.501s-53.666 -22 -78.999 -22c-17.333 0 -32.166 5.5 -44.499 16.5s-19.166 27.833 -20.499 50.5h-2
c-16 -17.333 -35.167 -32.833 -57.5 -46.5s-46.166 -20.5 -71.499 -20.5c-21.333 0 -40.666 4 -57.999 12s-32 19 -44 33s-21.333 30.167 -28 48.5s-10 38.166 -10 59.499c0 34.667 5.83301 69.334 17.5 104.001s28 65.667 49 93s46.167 49.666 75.5 66.999s62 26 98 26
c23.333 0 44.833 -6.33301 64.5 -19s35.167 -34 46.5 -64h2z" />
    <glyph glyph-name="A" unicode="A" horiz-adv-x="648" 
d="M281 712h100l258 -712h-101l-76 218h-270l-82 -218h-101zM331 595h-2l-108 -295h212z" />
    <glyph glyph-name="B" unicode="B" horiz-adv-x="685" 
d="M165 82l253 -0.000976562c38 0.666992 69.333 10.167 94 28.5s37 47.5 37 87.5c0 30.667 -4.83301 54.834 -14.5 72.501s-22.167 30.667 -37.5 39s-33 13.5 -53 15.5s-40 3 -60 3h-219v-246zM165 409.999l217 -0.00195312c19.333 0 37.833 1.5 55.5 4.5
s33.167 8.66699 46.5 17s24 19.833 32 34.5s12 33.667 12 57c0 26.667 -4.33301 47.334 -13 62.001s-20 25.334 -34 32.001s-29.667 10.5 -47 11.5s-35 1.5 -53 1.5h-216v-220zM71 711.997h333.001c43.333 0 79.5 -5.66699 108.5 -17s52.167 -25.833 69.5 -43.5
s29.666 -37.5 36.999 -59.5s11 -43.667 11 -65c0 -36.667 -9.83301 -68.5 -29.5 -95.5s-44.5 -45.167 -74.5 -54.5v-2c44 -10.667 75.833 -32.5 95.5 -65.5s29.5 -71.5 29.5 -115.5c0 -13.333 -2.33301 -31 -7 -53s-14.5 -43.5 -29.5 -64.5s-36.833 -39 -65.5 -54
s-66.667 -22.5 -114 -22.5h-364v712z" />
    <glyph glyph-name="C" unicode="C" horiz-adv-x="778" 
d="M632 492c-6 24 -16.166 45.9961 -30.499 65.9961s-31.5 37.167 -51.5 51.5s-42.167 25.333 -66.5 33s-49.833 11.5 -76.5 11.5c-44 0 -82.167 -8.16699 -114.5 -24.5s-59 -38.166 -80 -65.499s-36.5 -59 -46.5 -95s-15 -73.667 -15 -113s5 -77 15 -113
s25.5 -67.667 46.5 -95s47.667 -49.166 80 -65.499s70.5 -24.5 114.5 -24.5c30.667 0 59.334 5 86.001 15s50.167 24.333 70.5 43s37.166 41 50.499 67s22 54.667 26 86l99 -12c-8 -42 -22.5 -80 -43.5 -114s-46.333 -62.833 -76 -86.5s-62.834 -42 -99.501 -55
s-74.334 -19.5 -113.001 -19.5c-55.333 0 -105.166 9 -149.499 27s-82 43.5 -113 76.5s-54.667 72.5 -71 118.5s-24.5 96.667 -24.5 152s8.16699 106 24.5 152s40 85.5 71 118.5s68.667 58.5 113 76.5s94.166 27 149.499 27c38 0 74.333 -4.66699 109 -14
s66 -23.166 94 -41.499s52.333 -41.166 73 -68.499s36.334 -59.333 47.001 -96z" />
    <glyph glyph-name="D" unicode="D" horiz-adv-x="704" 
d="M71 712l268.999 -0.000976562c54 0 100.833 -8.66699 140.5 -26s72.5 -41.833 98.5 -73.5s45.167 -69.667 57.5 -114s18.5 -93.166 18.5 -146.499c0 -50.667 -6.5 -97.5 -19.5 -140.5s-32.5 -80.167 -58.5 -111.5s-58.667 -55.833 -98 -73.5
s-85.666 -26.5 -138.999 -26.5h-269v712zM164.999 81.999l159 0.00195312c42 0 77.667 6.83301 107 20.5s53 32.667 71 57s31 53.666 39 87.999s12 72.166 12 113.499c0 40.667 -4.16699 77.5 -12.5 110.5s-21.333 61.167 -39 84.5s-40.5 41.5 -68.5 54.5
s-61.667 19.5 -101 19.5h-167v-548z" />
    <glyph glyph-name="E" unicode="E" horiz-adv-x="611" 
d="M71 712h500v-82h-406v-220h353v-82h-353v-246h416v-82h-510v712z" />
    <glyph glyph-name="F" unicode="F" horiz-adv-x="593" 
d="M71 712h456v-82h-362v-212h336v-82h-336v-336h-94v712z" />
    <glyph glyph-name="G" unicode="G" horiz-adv-x="815" 
d="M662 99l-2.00195 -0.000976562c-30 -44.667 -67.167 -75.334 -111.5 -92.001s-91.5 -25 -141.5 -25c-55.333 0 -105.166 9 -149.499 27s-82 43.5 -113 76.5s-54.667 72.5 -71 118.5s-24.5 96.667 -24.5 152c0 46 7.83301 91.333 23.5 136s38.834 84.667 69.501 120
s68.167 63.833 112.5 85.5s95.166 32.5 152.499 32.5c38 0 74.333 -4.5 109 -13.5s66.5 -22.333 95.5 -40s54.667 -39.5 77 -65.5s39.833 -56.333 52.5 -91l-94 -25c-8 22.667 -18.667 43.334 -32 62.001s-29.666 34.667 -48.999 48s-42.166 23.833 -68.499 31.5
s-56.5 11.5 -90.5 11.5c-40 0 -75.833 -7.83301 -107.5 -23.5s-58.5 -36.5 -80.5 -62.5s-38.833 -56.333 -50.5 -91s-17.5 -71 -17.5 -109c0 -39.333 5 -77 15 -113s25.5 -67.667 46.5 -95s47.667 -49.166 80 -65.499s70.5 -24.5 114.5 -24.5
c37.333 0 71.5 4.83301 102.5 14.5s57.667 24 80 43s39.666 42.833 51.999 71.5s18.5 62 18.5 100h-246v82h330v-381h-82v105z" />
    <glyph glyph-name="H" unicode="H" horiz-adv-x="722" 
d="M71 712h94v-302h392v302h94v-712h-94v328h-392v-328h-94v712z" />
    <glyph glyph-name="I" unicode="I" horiz-adv-x="258" 
d="M82 712h94v-712h-94v712z" />
    <glyph glyph-name="J" unicode="J" horiz-adv-x="389" 
d="M213 712l93.998 0.000976562v-558c0 -22 -3.83301 -43.333 -11.5 -64s-19.5 -39 -35.5 -55s-36.167 -28.833 -60.5 -38.5s-53.166 -14.5 -86.499 -14.5c-15.333 0 -31.166 0.833008 -47.499 2.5s-32.5 4.16699 -48.5 7.5v103c13.333 -7.33301 27.5 -12.333 42.5 -15
s28.5 -4 40.5 -4c24 0 43.333 3 58 9s26 14.833 34 26.5s13.5 25.667 16.5 42s4.5 35.166 4.5 56.499v502z" />
    <glyph glyph-name="K" unicode="K" horiz-adv-x="648" 
d="M71 712h94v-345l339 345h116l-286 -294l297 -418h-114l-248 350l-104 -102v-248h-94v712z" />
    <glyph glyph-name="L" unicode="L" 
d="M71 712h94v-630h355v-82h-449v712z" />
    <glyph glyph-name="M" unicode="M" horiz-adv-x="832" 
d="M74 712h124l218 -578l218 578h124v-712h-94v573h-2l-208 -573h-76l-208 573h-2v-573h-94v712z" />
    <glyph glyph-name="N" unicode="N" horiz-adv-x="704" 
d="M71 712h95l377 -562h2v562h88v-712h-94l-378 561h-2v-561h-88v712z" />
    <glyph glyph-name="O" unicode="O" horiz-adv-x="814" 
d="M49 356c0 55.333 8.16699 106 24.5 152s40 85.5 71 118.5s68.667 58.5 113 76.5s94.166 27 149.499 27s105.166 -9 149.499 -27s82 -43.5 113 -76.5s54.667 -72.5 71 -118.5s24.5 -96.667 24.5 -152s-8.16699 -106 -24.5 -152s-40 -85.5 -71 -118.5
s-68.667 -58.5 -113 -76.5s-94.166 -27 -149.499 -27s-105.166 9 -149.499 27s-82 43.5 -113 76.5s-54.667 72.5 -71 118.5s-24.5 96.667 -24.5 152zM151 356c0 -39.333 5 -77 15 -113s25.5 -67.667 46.5 -95s47.667 -49.166 80 -65.499s70.5 -24.5 114.5 -24.5
s82 8.16699 114 24.5s58.5 38.166 79.5 65.499s36.667 59 47 95s15.5 73.667 15.5 113s-5.16699 77 -15.5 113s-26 67.667 -47 95s-47.5 49.166 -79.5 65.499s-70 24.5 -114 24.5s-82.167 -8.16699 -114.5 -24.5s-59 -38.166 -80 -65.499s-36.5 -59 -46.5 -95
s-15 -73.667 -15 -113z" />
    <glyph glyph-name="P" unicode="P" horiz-adv-x="630" 
d="M71 712l355.999 0.00195312c21.333 0 43 -3.33301 65 -10s42 -18 60 -34s32.667 -37.167 44 -63.5s17 -58.833 17 -97.5c0 -34.667 -5.83301 -64.834 -17.5 -90.501s-26.667 -46.834 -45 -63.501s-39.166 -29 -62.499 -37s-46.333 -12 -69 -12h-254v-304h-94v712z
M164.999 386.002h218c40.667 0 73.5 9.5 98.5 28.5s37.5 50.167 37.5 93.5c0 40 -9.5 70.333 -28.5 91s-50.5 31 -94.5 31h-231v-244z" />
    <glyph glyph-name="Q" unicode="Q" horiz-adv-x="814" 
d="M636 56c-30 -24 -64.166 -42.333 -102.499 -55s-80.5 -19 -126.5 -19c-55.333 0 -105.166 9 -149.499 27s-82 43.5 -113 76.5s-54.667 72.5 -71 118.5s-24.5 96.667 -24.5 152s8.16699 106 24.5 152s40 85.5 71 118.5s68.667 58.5 113 76.5s94.166 27 149.499 27
s105.166 -9 149.499 -27s82 -43.5 113 -76.5s54.667 -72.5 71 -118.5s24.5 -96.667 24.5 -152c0 -45.333 -5.5 -87.333 -16.5 -126s-27.167 -73.667 -48.5 -105l106 -88l-59 -71zM151.001 356c0 -39.333 5 -77 15 -113s25.5 -67.667 46.5 -95s47.667 -49.166 80 -65.499
s70.5 -24.5 114.5 -24.5s82 8.16699 114 24.5s58.5 38.166 79.5 65.499s36.667 59 47 95s15.5 73.667 15.5 113s-5.16699 77 -15.5 113s-26 67.667 -47 95s-47.5 49.166 -79.5 65.499s-70 24.5 -114 24.5s-82.167 -8.16699 -114.5 -24.5s-59 -38.166 -80 -65.499
s-36.5 -59 -46.5 -95s-15 -73.667 -15 -113z" />
    <glyph glyph-name="R" unicode="R" horiz-adv-x="667" 
d="M71 712l322.001 -0.000976562c28 0 55.667 -3.16699 83 -9.5s51.833 -17.166 73.5 -32.499s39.167 -36.166 52.5 -62.499s20 -59.833 20 -100.5c0 -22.667 -2.83301 -44.834 -8.5 -66.501s-14.834 -41.5 -27.501 -59.5s-29.667 -33.5 -51 -46.5
s-47.333 -21.833 -78 -26.5l196 -308h-114l-192 302h-182v-302h-94v712zM165.001 383.999l213 -0.000976562c22 0 42.167 2 60.5 6s34.166 10.667 47.499 20s23.666 21.833 30.999 37.5s11 35.5 11 59.5c0 23.333 -3.66699 42.833 -11 58.5s-17.666 28.334 -30.999 38.001
s-29.166 16.5 -47.499 20.5s-38.5 6 -60.5 6h-213v-246z" />
    <glyph glyph-name="S" unicode="S" horiz-adv-x="667" 
d="M519 503c-1.33301 26 -6.99414 48.499 -16.9941 67.499s-23.333 34.667 -40 47s-35.834 21.5 -57.501 27.5s-44.834 9 -69.501 9c-16.667 0 -34.334 -1.66699 -53.001 -5s-35.834 -9 -51.501 -17s-28.667 -19 -39 -33s-15.5 -31.333 -15.5 -52
c0 -23.333 6.5 -42.166 19.5 -56.499s30 -26 51 -35s45.167 -16.333 72.5 -22l83 -18c28 -6.33301 55.667 -14 83 -23s51.5 -21.333 72.5 -37s38 -35.667 51 -60s19.5 -55.166 19.5 -92.499c0 -38 -8 -70.833 -24 -98.5s-36.833 -50.5 -62.5 -68.5
s-54.834 -31.5 -87.501 -40.5s-66 -13.5 -100 -13.5c-42 0 -81.5 4.5 -118.5 13.5s-69.5 23.333 -97.5 43s-50.833 45.334 -68.5 77.001s-27.834 70.167 -30.501 115.5l102 9c2.66699 -64.667 22.667 -111.167 60 -139.5s87 -42.5 149 -42.5c22.667 0 44.5 2.66699 65.5 8
s39.667 13.666 56 24.999s29.5 26 39.5 44s15 39.667 15 65c0 24.667 -6.5 44.5 -19.5 59.5s-30 27.333 -51 37s-45.167 17.5 -72.5 23.5l-83 18c-28 6 -55.667 13 -83 21s-51.5 19 -72.5 33s-38 31.667 -51 53s-19.5 48.666 -19.5 81.999c0 34.667 7.5 64.667 22.5 90
s34.667 46.333 59 63s51.666 29.167 81.999 37.5s60.833 12.5 91.5 12.5c36.667 0 71.334 -4.33301 104.001 -13s61.667 -22 87 -40s46.333 -41 63 -69s27.667 -61.333 33 -100z" />
    <glyph glyph-name="T" unicode="T" 
d="M231 630h-214v82h522v-82h-214v-630h-94v630z" />
    <glyph glyph-name="U" unicode="U" horiz-adv-x="684" 
d="M613 234c0 -40.667 -6.33496 -76.667 -19.002 -108s-30.667 -57.666 -54 -78.999s-51.666 -37.5 -84.999 -48.5s-71 -16.5 -113 -16.5s-79.667 5.5 -113 16.5s-61.666 27.167 -84.999 48.5s-41.333 47.666 -54 78.999s-19 67.333 -19 108v478h94v-462
c0 -62.667 14 -109.334 42 -140.001s73 -46 135 -46s107 15.333 135 46s42 77.334 42 140.001v462h94v-478z" />
    <glyph glyph-name="V" unicode="V" horiz-adv-x="610" 
d="M11 712h103l186 -582h2l198 582h99l-253 -712h-97z" />
    <glyph glyph-name="W" unicode="W" horiz-adv-x="999" 
d="M3 712h101l166 -556h2l179 556h97l179 -556h2l166 556h101l-219 -712h-93l-184 582h-2l-183 -582h-93z" />
    <glyph glyph-name="X" unicode="X" horiz-adv-x="610" 
d="M249 374l-215 338h112l159 -253l159 253h112l-215 -338l238 -374h-113l-181 291l-181 -291h-113z" />
    <glyph glyph-name="Y" unicode="Y" horiz-adv-x="628" 
d="M267 328l-256 384h113l190 -295l190 295h113l-256 -384v-328h-94v328z" />
    <glyph glyph-name="Z" unicode="Z" horiz-adv-x="611" 
d="M22 90l445 540h-410v82h513v-88l-447 -542h466v-82h-567v90z" />
    <glyph glyph-name="bracketleft" unicode="[" horiz-adv-x="315" 
d="M109 712h188v-64h-106v-738h106v-64h-188v866z" />
    <glyph glyph-name="backslash" unicode="\" horiz-adv-x="333" 
d="M13 730h73l234 -748h-73z" />
    <glyph glyph-name="bracketright" unicode="]" horiz-adv-x="315" 
d="M18 -90h106v738h-106v64h188v-866h-188v64z" />
    <glyph glyph-name="asciicircum" unicode="^" horiz-adv-x="600" 
d="M271 680h58l224 -423h-76l-177 335l-177 -335h-76z" />
    <glyph glyph-name="underscore" unicode="_" horiz-adv-x="500" 
d="M0 -75h500v-50h-500v50z" />
    <glyph glyph-name="grave" unicode="`" horiz-adv-x="204" 
d="M-34 723h108l89 -141h-67z" />
    <glyph glyph-name="a" unicode="a" horiz-adv-x="500" 
d="M343 233c-33.333 -4.66699 -64.001 -9.49805 -92.001 -14.498s-52 -11.333 -72 -19s-35.5 -17.334 -46.5 -29.001s-16.5 -26.834 -16.5 -45.501c0 -14.667 3 -26.667 9 -36s13.5 -16.833 22.5 -22.5s18.833 -9.5 29.5 -11.5s21 -3 31 -3c38.667 0 70.834 11 96.501 33
s38.5 53 38.5 93v55zM342.999 329.002c0 34 -8.3291 58.6641 -24.9961 73.9971s-45.667 23 -87 23c-62 0 -94.667 -32.667 -98 -98l-82 5c5.33301 54 23.5 93.667 54.5 119s73.167 38 126.5 38c20 0 41.333 -1.83301 64 -5.5s43.5 -10.834 62.5 -21.501
s34.833 -25.667 47.5 -45s19 -44.666 19 -75.999v-222c0 -23.333 3.66699 -38.166 11 -44.499s15.333 -9.5 24 -9.5c8 0 16.333 1.66699 25 5v-68c-8 -2 -16.333 -3.66699 -25 -5s-17.334 -2 -26.001 -2c-24.667 0 -43.334 5.33301 -56.001 16s-21.667 27.334 -27 50.001
c-44.667 -49.333 -101.334 -74 -170.001 -74c-21.333 0 -41.333 3.33301 -60 10s-34.834 16 -48.501 28s-24.5 26 -32.5 42s-12 33.333 -12 52c0 32.667 7.16699 59.334 21.5 80.001s35 37 62 49s60 20.667 99 26s83.167 9.33301 132.5 12v42z" />
    <glyph glyph-name="b" unicode="b" 
d="M57 712l82.002 -0.000976562v-294h2c17.333 24 39.166 42 65.499 54s55.5 18 87.5 18c40.667 0 75.5 -7 104.5 -21s52.667 -32.833 71 -56.5s31.666 -50.5 39.999 -80.5s12.5 -61 12.5 -93s-4 -63 -12 -93s-21.167 -56.833 -39.5 -80.5s-42.5 -42.5 -72.5 -56.5
s-67 -21 -111 -21c-29.333 0 -57 5.83301 -83 17.5s-47.333 28.834 -64 51.501h1h-2v-57h-82v712zM434.002 238.999c0 24 -2.83301 46.833 -8.5 68.5s-14.5 40.834 -26.5 57.501s-27.333 30 -46 40s-41.334 15 -68.001 15c-24 0 -45.167 -5 -63.5 -15
s-33.833 -23.333 -46.5 -40s-22.334 -35.834 -29.001 -57.501s-10 -44.5 -10 -68.5s2.83301 -46.833 8.5 -68.5s14.5 -40.834 26.5 -57.501s27.333 -30 46 -40s41.334 -15 68.001 -15s49.334 5 68.001 15s34 23.333 46 40s20.833 35.834 26.5 57.501s8.5 44.5 8.5 68.5z" />
    <glyph glyph-name="c" unicode="c" horiz-adv-x="519" 
d="M398 320c-6 32.667 -20.333 58.498 -43 77.498s-50.667 28.5 -84 28.5c-29.333 0 -53.5 -5.66699 -72.5 -17s-34.167 -26 -45.5 -44s-19.333 -38.167 -24 -60.5s-7 -44.5 -7 -66.5c0 -23.333 2.66699 -46.166 8 -68.499s13.666 -42.166 24.999 -59.499
s26.333 -31.333 45 -42s41.667 -16 69 -16c40.667 0 73.334 11.333 98.001 34s37.667 54.334 39 95.001l88 -7c-7.33301 -58.667 -31 -104.334 -71 -137.001s-90.333 -49 -151 -49c-38.667 0 -72.834 6 -102.501 18s-54.5 28.833 -74.5 50.5s-35.167 47.5 -45.5 77.5
s-15.5 63.333 -15.5 100s5.16699 70.667 15.5 102s25.5 58.5 45.5 81.5s44.667 40.833 74 53.5s63.333 19 102 19c24.667 0 48.834 -3.33301 72.501 -10s45 -16.667 64 -30s35.333 -30 49 -50s23.5 -43.667 29.5 -71z" />
    <glyph glyph-name="d" unicode="d" 
d="M499 0l-81.998 0.000976562v57h-2c-16 -22.667 -37 -39.834 -63 -51.501s-53.667 -17.5 -83 -17.5c-44 0 -81 7 -111 21s-54.167 32.833 -72.5 56.5s-31.5 50.5 -39.5 80.5s-12 61 -12 93s4.16699 63 12.5 93s21.666 56.833 39.999 80.5s41.833 42.5 70.5 56.5
s63.667 21 105 21c32 0 61.167 -6 87.5 -18s48.166 -30 65.499 -54h2v294h82v-712zM122.002 239.001c0 -24 2.83301 -46.833 8.5 -68.5s14.5 -40.834 26.5 -57.501s27.333 -30 46 -40s41.334 -15 68.001 -15s49.334 5 68.001 15s34 23.333 46 40s20.833 35.834 26.5 57.501
s8.5 44.5 8.5 68.5s-3.33301 46.833 -10 68.5s-16.334 40.834 -29.001 57.501s-28.167 30 -46.5 40s-39.5 15 -63.5 15c-26.667 0 -49.334 -5 -68.001 -15s-34 -23.333 -46 -40s-20.833 -35.834 -26.5 -57.501s-8.5 -44.5 -8.5 -68.5z" />
    <glyph glyph-name="e" unicode="e" horiz-adv-x="519" 
d="M122 221c0 -24 3.16406 -46.166 9.49707 -66.499s15.5 -38.166 27.5 -53.499s27 -27.333 45 -36s38.667 -13 62 -13c71.333 0 116 35.667 134 107l81 -10c-15.333 -54 -42.166 -94.333 -80.499 -121s-84.166 -40 -137.499 -40c-36.667 -0.666992 -69.167 5.5 -97.5 18.5
s-52.333 30.667 -72 53s-34.5 48.666 -44.5 78.999s-15 62.5 -15 96.5c0 38.667 4.66699 73.667 14 105s23.333 58.166 42 80.499s42.334 39.5 71.001 51.5s62.334 18 101.001 18c37.333 0 70 -6.33301 98 -19s51.167 -30.334 69.5 -53.001s32.166 -49.167 41.499 -79.5
s14 -63.166 14 -98.499v-19h-363zM396.997 285.001c-2.66699 19.333 -7.33301 37.667 -14 55s-16 32.333 -28 45s-26.333 22.667 -43 30s-36.334 11 -59.001 11c-20 0 -37.833 -4 -53.5 -12s-29 -18.5 -40 -31.5s-19.667 -28 -26 -45s-10.166 -34.5 -11.499 -52.5h275z" />
    <glyph glyph-name="f" unicode="f" horiz-adv-x="278" 
d="M86 408h-78.9961v70h79v85c0 52.667 10.667 90.667 32 114s55 35 101 35c9.33301 0 18.333 -0.666992 27 -2l25 -4v-62c-6.66699 1.33301 -13.334 2.33301 -20.001 3s-15 1 -25 1c-6.66699 0 -13.334 -0.666992 -20.001 -2s-12.834 -4.33301 -18.501 -9
s-10.334 -11.5 -14.001 -20.5s-5.5 -20.833 -5.5 -35.5v-103h89v-70h-89v-408h-82v408z" />
    <glyph glyph-name="g" unicode="g" 
d="M263 420c-42 0 -76.998 -14.833 -104.998 -44.5s-42 -75.167 -42 -136.5c0 -25.333 3.16699 -48.833 9.5 -70.5s15.833 -40.834 28.5 -57.501s28 -29.667 46 -39s39 -14 63 -14s45.5 5 64.5 15s35.333 23.5 49 40.5s24 36.667 31 59s10.167 45.5 9.5 69.5
c-0.666992 32.667 -4.83398 60.334 -12.501 83.001s-18.334 41 -32.001 55s-29.667 24.167 -48 30.5s-38.833 9.5 -61.5 9.5zM417.002 478l81.998 -0.000976562v-482c0 -18 -1.83301 -39.667 -5.5 -65s-12.834 -49.5 -27.501 -72.5s-36.667 -42.5 -66 -58.5
s-69.666 -24 -120.999 -24c-29.333 0 -57 3.16699 -83 9.5s-49 16.5 -69 30.5s-36.167 32.167 -48.5 54.5s-19.5 49.166 -21.5 80.499h88c-0.666992 -19.333 2.5 -36 9.5 -50s16.5 -25.5 28.5 -34.5s26 -15.667 42 -20s33 -6.5 51 -6.5c34.667 0 61.5 5.5 80.5 16.5
s33 24.667 42 41s14.333 34.166 16 53.499s2.5 37.666 2.5 54.999v68h-2c-22.667 -29.333 -46.667 -51 -72 -65s-55.666 -21 -90.999 -21c-20.667 0 -43.667 3.5 -69 10.5s-49 19.833 -71 38.5s-40.5 44.334 -55.5 77.001s-22.5 74.334 -22.5 125.001
c0 34.667 4.33301 67.334 13 98.001s22 57.334 40 80.001s40.833 40.5 68.5 53.5s60.167 19.5 97.5 19.5c38.667 0 71.834 -7 99.501 -21s48.5 -32.667 62.5 -56l2 -1v66z" />
    <glyph glyph-name="h" unicode="h" horiz-adv-x="519" 
d="M63 712l82.002 0.000976562v-298h2c15.333 24 34.666 42.667 57.999 56s50.666 20 81.999 20c24 0 46.333 -2.83301 67 -8.5s38.5 -15.334 53.5 -29.001s26.833 -31.667 35.5 -54s13 -50.166 13 -83.499v-315h-82v307c0 20.667 -2.5 37.834 -7.5 51.501
s-12 24.667 -21 33s-19.667 14.166 -32 17.499s-25.833 5 -40.5 5c-38 0 -68.833 -11.333 -92.5 -34s-35.5 -53.334 -35.5 -92.001v-288h-82v712z" />
    <glyph glyph-name="i" unicode="i" horiz-adv-x="204" 
d="M61 478h82v-478h-82v478zM61 712h82v-94h-82v94z" />
    <glyph glyph-name="j" unicode="j" horiz-adv-x="204" 
d="M143 -92c0.666992 -21.333 -0.332031 -40.832 -2.99902 -58.499s-8.16699 -32.834 -16.5 -45.501s-20.166 -22.5 -35.499 -29.5s-35.333 -10.5 -60 -10.5c-16.667 0 -28.667 0.333008 -36 1s-13.333 1.66699 -18 3v70c5.33301 -0.666992 10.166 -1.5 14.499 -2.5
s9.16602 -1.5 14.499 -1.5c6.66699 0 13.5 0.666992 20.5 2s13.167 4 18.5 8s9.83301 9.5 13.5 16.5s5.5 16.5 5.5 28.5v589h82v-570zM61.001 712.001h82v-94h-82v94z" />
    <glyph glyph-name="k" unicode="k" horiz-adv-x="481" 
d="M63 712h82v-439l188 203h99l-174 -189l215 -287h-103l-168 228l-57 -61v-167h-82v712z" />
    <glyph glyph-name="l" unicode="l" horiz-adv-x="204" 
d="M61 712h82v-712h-82v712z" />
    <glyph glyph-name="m" unicode="m" horiz-adv-x="778" 
d="M63 478l75.9951 0.00292969v-60h2c15.333 19.333 34.5 36.166 57.5 50.499s48.5 21.5 76.5 21.5c12.667 0 25.834 -1.5 39.501 -4.5s26.834 -7.66699 39.501 -14s24.167 -14.833 34.5 -25.5s18.833 -23.667 25.5 -39c8.66699 12 18.667 23 30 33s23.333 18.667 36 26
s25.834 13.166 39.501 17.499s26.834 6.5 39.501 6.5c19.333 0 38.333 -2.5 57 -7.5s35.334 -14 50.001 -27s26.5 -30.833 35.5 -53.5s13.5 -51.334 13.5 -86.001v-316h-82v320c0 30 -6.66699 53.167 -20 69.5s-34.666 24.5 -63.999 24.5c-12.667 0 -26 -1.83301 -40 -5.5
s-26.833 -9.5 -38.5 -17.5s-21.334 -18.333 -29.001 -31s-11.5 -28 -11.5 -46v-314h-82v320c0 30 -6.66699 53.167 -20 69.5s-34.666 24.5 -63.999 24.5c-12.667 0 -26 -1.83301 -40 -5.5s-26.833 -9.5 -38.5 -17.5s-21.334 -18.333 -29.001 -31s-11.5 -28 -11.5 -46v-314
h-82v478z" />
    <glyph glyph-name="n" unicode="n" horiz-adv-x="519" 
d="M63 478l82.002 0.000976562v-64h2c15.333 24 34.666 42.667 57.999 56s50.666 20 81.999 20c24 0 46.333 -2.83301 67 -8.5s38.5 -15.334 53.5 -29.001s26.833 -31.667 35.5 -54s13 -50.166 13 -83.499v-315h-82v307c0 20.667 -2.5 37.834 -7.5 51.501s-12 24.667 -21 33
s-19.667 14.166 -32 17.499s-25.833 5 -40.5 5c-38 0 -68.833 -11.333 -92.5 -34s-35.5 -53.334 -35.5 -92.001v-288h-82v478z" />
    <glyph glyph-name="o" unicode="o" horiz-adv-x="536" 
d="M34 239c0 36 5.33301 69.333 16 100s26 57.167 46 79.5s44.5 39.833 73.5 52.5s61.833 19 98.5 19s69.5 -6.33301 98.5 -19s53.5 -30.167 73.5 -52.5s35.333 -48.833 46 -79.5s16 -64 16 -100s-5.33301 -69.333 -16 -100s-26 -57.167 -46 -79.5
s-44.5 -39.833 -73.5 -52.5s-61.833 -19 -98.5 -19s-69.5 6.33301 -98.5 19s-53.5 30.167 -73.5 52.5s-35.333 48.833 -46 79.5s-16 64 -16 100zM122 239c0 -20 2 -40.833 6 -62.5s11.5 -41.834 22.5 -60.501s26 -34 45 -46s43.167 -18 72.5 -18s53.5 6 72.5 18
s34 27.333 45 46s18.5 38.834 22.5 60.501s6 42.5 6 62.5s-2 40.833 -6 62.5s-11.5 41.834 -22.5 60.501s-26 34 -45 46s-43.167 18 -72.5 18s-53.5 -6 -72.5 -18s-34 -27.333 -45 -46s-18.5 -38.834 -22.5 -60.501s-6 -42.5 -6 -62.5z" />
    <glyph glyph-name="p" unicode="p" 
d="M57 478h81.999v-57h2h-1c13.333 18 33.666 34 60.999 48s58 21 92 21c42 0 77.667 -7 107 -21s53 -32.833 71 -56.5s31 -50.5 39 -80.5s12 -61 12 -93s-4.16699 -63 -12.5 -93s-21.666 -56.833 -39.999 -80.5s-42 -42.5 -71 -56.5s-63.833 -21 -104.5 -21
c-32 0 -61.167 6 -87.5 18s-48.166 30 -65.499 54h-2v-284h-82v702zM433.999 239c0 24 -2.83301 46.833 -8.5 68.5s-14.5 40.834 -26.5 57.501s-27.333 30 -46 40s-41.334 15 -68.001 15s-49.334 -5 -68.001 -15s-34 -23.333 -46 -40s-20.833 -35.834 -26.5 -57.501
s-8.5 -44.5 -8.5 -68.5s3.33301 -46.833 10 -68.5s16.334 -40.834 29.001 -57.501s28.167 -30 46.5 -40s39.5 -15 63.5 -15c26.667 0 49.334 5 68.001 15s34 23.333 46 40s20.833 35.834 26.5 57.501s8.5 44.5 8.5 68.5z" />
    <glyph glyph-name="q" unicode="q" 
d="M499 -224l-82 -0.00195312v284h-2c-17.333 -24 -39.166 -42 -65.499 -54s-55.5 -18 -87.5 -18c-41.333 0 -76.333 7 -105 21s-52.167 32.833 -70.5 56.5s-31.666 50.5 -39.999 80.5s-12.5 61 -12.5 93s4 63 12 93s21.167 56.833 39.5 80.5s42.166 42.5 71.499 56.5
s65.666 21 108.999 21c14 0 28.5 -1.83301 43.5 -5.5s29.167 -8.66699 42.5 -15s25.5 -13.666 36.5 -21.999s19.833 -17.166 26.5 -26.499h2v57h82v-702zM122 238.998c0 -24 2.83301 -46.833 8.5 -68.5s14.5 -40.834 26.5 -57.501s27.333 -30 46 -40s41.334 -15 68.001 -15
c24 0 45.167 5 63.5 15s33.833 23.333 46.5 40s22.334 35.834 29.001 57.501s10 44.5 10 68.5s-2.83301 46.833 -8.5 68.5s-14.5 40.834 -26.5 57.501s-27.333 30 -46 40s-41.334 15 -68.001 15s-49.334 -5 -68.001 -15s-34 -23.333 -46 -40s-20.833 -35.834 -26.5 -57.501
s-8.5 -44.5 -8.5 -68.5z" />
    <glyph glyph-name="r" unicode="r" horiz-adv-x="333" 
d="M63 478l82.001 -0.000976562v-82h2c19.333 32.667 42 55.5 68 68.5s59.667 19.5 101 19.5v-90c-8 0.666992 -17.333 1.16699 -28 1.5s-19.667 0.5 -27 0.5c-20 0 -37.167 -4.16699 -51.5 -12.5s-26.333 -18.666 -36 -30.999s-16.834 -26 -21.501 -41s-7 -29.5 -7 -43.5
v-268h-82v478z" />
    <glyph glyph-name="s" unicode="s" horiz-adv-x="481" 
d="M119 168c0 -22 4.00098 -40.499 12.001 -55.499s18.5 -27 31.5 -36s27.5 -15.333 43.5 -19s32.333 -5.5 49 -5.5c9.33301 0 20.166 1 32.499 3s24 6 35 12s20.333 14.333 28 25s11.5 24.667 11.5 42c0 20 -7.66699 34.833 -23 44.5s-34.666 17.334 -57.999 23.001
s-48.333 10.834 -75 15.501s-51.667 11.667 -75 21s-42.666 22.666 -57.999 39.999s-23 41.666 -23 72.999c0 24 5.33301 44.833 16 62.5s24.667 32.167 42 43.5s36.666 19.666 57.999 24.999s42.666 8 63.999 8c16 0 35.833 -2.33301 59.5 -7s46.167 -13 67.5 -25
s39.666 -28 54.999 -48s23 -45.333 23 -76l-82 -11c0 17.333 -3.33301 32.5 -10 45.5s-15.5 23.667 -26.5 32s-23.667 14.666 -38 18.999s-29.166 6.5 -44.499 6.5c-11.333 0 -23 -1 -35 -3s-23 -5.66699 -33 -11s-18.167 -12.5 -24.5 -21.5s-9.5 -20.833 -9.5 -35.5
c0 -18 7.83301 -31.5 23.5 -40.5s35.334 -16.5 59.001 -22.5s49.167 -11.667 76.5 -17s52.833 -13 76.5 -23s43.334 -24.167 59.001 -42.5s23.5 -43.166 23.5 -74.499c0 -25.333 -5.83301 -47.166 -17.5 -65.499s-27.334 -33.5 -47.001 -45.5s-41.834 -21 -66.501 -27
s-50 -9 -76 -9s-51.167 3.16699 -75.5 9.5s-46.166 16.166 -65.499 29.499s-35.333 30.833 -48 52.5s-20.334 47.5 -23.001 77.5z" />
    <glyph glyph-name="t" unicode="t" horiz-adv-x="278" 
d="M7 478h78.9971v149h82v-149h89v-70h-89v-304c0 -11.333 1.33301 -21.833 4 -31.5s12.334 -14.5 29.001 -14.5c9.33301 0 18 0.833008 26 2.5s16.333 4.16699 25 7.5v-70c-13.333 -3.33301 -26.833 -5.83301 -40.5 -7.5s-27.167 -2.5 -40.5 -2.5
c-21.333 0 -37.666 2.33301 -48.999 7s-19.666 11.167 -24.999 19.5s-8.5 18.333 -9.5 30s-1.5 24.167 -1.5 37.5v326h-79v70z" />
    <glyph glyph-name="u" unicode="u" horiz-adv-x="519" 
d="M456 0l-82.002 -0.000976562v64h-2c-15.333 -24 -34.666 -42.667 -57.999 -56s-50.666 -20 -81.999 -20c-24 0 -46.333 2.83301 -67 8.5s-38.5 15.334 -53.5 29.001s-26.833 31.667 -35.5 54s-13 50.166 -13 83.499v315h82v-315c0 -34 9.33301 -59 28 -75s43 -24 73 -24
c38 0 68.833 11.333 92.5 34s35.5 53.334 35.5 92.001v288h82v-478z" />
    <glyph glyph-name="v" unicode="v" horiz-adv-x="444" 
d="M11 478h85l128 -356h2l123 356h84l-169 -478h-77z" />
    <glyph glyph-name="w" unicode="w" horiz-adv-x="741" 
d="M13 478h89l119 -351h2l114 351h70l112 -351h2l124 351h83l-174 -478h-71l-113 351h-2l-116 -351h-73z" />
    <glyph glyph-name="x" unicode="x" horiz-adv-x="407" 
d="M157 242l-139 236h93l93 -163l99 163h93l-146 -236l146 -242h-93l-99 168l-102 -168h-91z" />
    <glyph glyph-name="y" unicode="y" horiz-adv-x="444" 
d="M347 478l84.002 -0.000976562l-207 -583c-6 -17.333 -12.667 -34 -20 -50s-16.333 -30 -27 -42s-23.667 -21.5 -39 -28.5s-34 -10.5 -56 -10.5c-12 0 -24 1.5 -36 4.5s-23 6.16699 -33 9.5v71c5.33301 -1.33301 13.166 -3.16602 23.499 -5.49902s20.166 -3.5 29.499 -3.5
c17.333 0 32 4.33301 44 13s23 26.667 33 54l33 92l-161 479h87l118 -361h2z" />
    <glyph glyph-name="z" unicode="z" horiz-adv-x="426" 
d="M23 70l273 338h-248v70h349v-68l-277 -340h283v-70h-380v70z" />
    <glyph glyph-name="braceleft" unicode="{" horiz-adv-x="333" 
d="M280 648l-48 -0.00488281c-14.667 0 -25.334 -3.66699 -32.001 -11s-10 -20.333 -10 -39v-175c0 -27.333 -2.33301 -49.5 -7 -66.5s-10.667 -30.667 -18 -41s-15.333 -18.166 -24 -23.499s-17 -9.66602 -25 -12.999c8 -3.33301 16.333 -7.66602 25 -12.999
s16.667 -13.166 24 -23.499s13.333 -24.166 18 -41.499s7 -39.333 7 -66v-175c0 -18.667 3.33301 -31.667 10 -39s17.334 -11 32.001 -11h48v-64h-55c-40 0 -69.5 8.83301 -88.5 26.5s-28.5 47.5 -28.5 89.5v173c0 32 -5.66699 58.667 -17 80s-30.333 32 -57 32v64
c26.667 0 45.667 10.667 57 32s17 48 17 80v173c0 42 9.5 71.833 28.5 89.5s48.5 26.5 88.5 26.5h55v-64z" />
    <glyph glyph-name="bar" unicode="|" horiz-adv-x="222" 
d="M76 786h70v-1000h-70v1000z" />
    <glyph glyph-name="braceright" unicode="}" horiz-adv-x="333" 
d="M53 -90l48 0.00488281c14.667 0 25.334 3.66699 32.001 11s10 20.333 10 39v175c0 26.667 2.33301 48.667 7 66s10.667 31.166 18 41.499s15.333 18.166 24 23.499s17 9.66602 25 12.999c-8 3.33301 -16.333 7.66602 -25 12.999s-16.667 13.166 -24 23.499
s-13.333 24 -18 41s-7 39.167 -7 66.5v175c0 18.667 -3.33301 31.667 -10 39s-17.334 11 -32.001 11h-48v64h55c40 0 69.5 -8.83301 88.5 -26.5s28.5 -47.5 28.5 -89.5v-173c0 -32 5.66699 -58.667 17 -80s30.333 -32 57 -32v-64c-26.667 0 -45.667 -10.667 -57 -32
s-17 -48 -17 -80v-173c0 -42 -9.5 -71.833 -28.5 -89.5s-48.5 -26.5 -88.5 -26.5h-55v64z" />
    <glyph glyph-name="asciitilde" unicode="~" horiz-adv-x="600" 
d="M69 235c5.33301 10.667 11.8281 21.167 19.4951 31.5s16.5 19.5 26.5 27.5s21.5 14.5 34.5 19.5s27.833 7.5 44.5 7.5c18.667 0 37.834 -3.5 57.501 -10.5s38.834 -14.833 57.501 -23.5c19.333 -8.66699 37.333 -16.167 54 -22.5s31.334 -9.5 44.001 -9.5
c10.667 0 20.334 2.16699 29.001 6.5s16.5 10 23.5 17s13.333 14.5 19 22.5l16.5 24l36 -54c-7.33301 -10.667 -15.166 -21.167 -23.499 -31.5s-17.333 -19.5 -27 -27.5s-20.667 -14.5 -33 -19.5s-26.166 -7.5 -41.499 -7.5c-20 0 -38.167 3.5 -54.5 10.5
s-32.833 14.833 -49.5 23.5s-33.834 16.167 -51.501 22.5s-38.167 9.5 -61.5 9.5c-22 0 -39.5 -7.33301 -52.5 -22s-23.5 -30.667 -31.5 -48z" />
    <glyph glyph-name="exclamdown" unicode="&#xa1;" horiz-adv-x="296" 
d="M189 71v-295h-82v295l25 270h32zM104 488h88v-94h-88v94z" />
    <glyph glyph-name="cent" unicode="&#xa2;" 
d="M253 423c-22.667 -4 -41.499 -12.335 -56.499 -25.002s-27 -27.5 -36 -44.5s-15.333 -35.667 -19 -56s-5.5 -40.166 -5.5 -59.499c0 -21.333 2.16699 -42.166 6.5 -62.499s11.166 -39 20.499 -56s21.333 -31.333 36 -43s32.667 -19.5 54 -23.5v370zM253.001 -11.002
c-33.333 2.66699 -62.666 10.668 -87.999 24.001s-46.666 30.833 -63.999 52.5s-30.5 46.667 -39.5 75s-13.5 59.5 -13.5 93.5s4.33301 65.833 13 95.5s21.667 55.5 39 77.5s38.833 40 64.5 54s55.167 22.667 88.5 26v99h58v-98c44.667 -3.33301 84.667 -18.166 120 -44.499
s58.333 -64.5 69 -114.5l-88 -9c-5.33301 28 -16.833 51 -34.5 69s-39.834 29.667 -66.501 35v-372c32.667 5.33301 58.667 19.166 78 41.499s29.666 51.5 30.999 87.5l88 -7c-6.66699 -54 -27.667 -97.333 -63 -130s-80 -51.334 -134 -56.001v-102h-58v103z" />
    <glyph glyph-name="sterling" unicode="&#xa3;" 
d="M77 75c0 -8.66699 4.16797 -14.667 12.501 -18s17.166 -5 26.499 -5s18.666 2 27.999 6s16 9.66699 20 17c-7.33301 4.66699 -15.666 9.5 -24.999 14.5s-18.333 7.5 -27 7.5c-9.33301 0 -17.5 -1.33301 -24.5 -4s-10.5 -8.66699 -10.5 -18zM26.001 337
l104.999 -0.00585938c-21.333 24 -37.833 49.333 -49.5 76s-17.5 52.334 -17.5 77.001c0 32 6.5 60.167 19.5 84.5s29.833 44.833 50.5 61.5s44.167 29.167 70.5 37.5s52.5 12.5 78.5 12.5c31.333 0 60.333 -3.66699 87 -11s49.834 -18.666 69.501 -33.999
s35.334 -34.833 47.001 -58.5s18.5 -52.167 20.5 -85.5l-88 -14c-1.33301 12.667 -4.16602 26.5 -8.49902 41.5s-11.5 28.833 -21.5 41.5s-23.167 23.167 -39.5 31.5s-37.166 12.5 -62.499 12.5c-21.333 0 -39.5 -3.66699 -54.5 -11s-27.5 -16.666 -37.5 -27.999
s-17.333 -23.5 -22 -36.5s-7 -25.167 -7 -36.5c0 -16 2.5 -31 7.5 -45s11.167 -27.333 18.5 -40s15.333 -25.167 24 -37.5s17 -25.166 25 -38.499h192v-64h-161c4.66699 -15.333 8 -29.666 10 -42.999s3 -25.666 3 -36.999c0 -15.333 -2 -29.666 -6 -42.999
s-10.667 -27.333 -20 -42c18.667 -8.66699 36.167 -16.167 52.5 -22.5s35.166 -9.5 56.499 -9.5c14.667 0 27.5 3 38.5 9s20.167 13.833 27.5 23.5s12.666 21 15.999 34s5 26.5 5 40.5h88c-1.33301 -27.333 -5.66602 -52.5 -12.999 -75.5s-18 -42.833 -32 -59.5
s-31.333 -29.834 -52 -39.501s-44.667 -14.5 -72 -14.5c-26.667 0 -53 6 -79 18l-74 35c-14.667 -17.333 -30.5 -30.5 -47.5 -39.5s-37.167 -13.5 -60.5 -13.5c-27.333 0 -50.833 6.5 -70.5 19.5s-29.5 33.833 -29.5 62.5c0 18 3.83301 32.667 11.5 44s16.667 20 27 26
s21.166 10 32.499 12s21 3 29 3c15.333 0 29.666 -2.16699 42.999 -6.5s26.333 -10.166 39 -17.499c5.33301 14 8 27 8 39c0 17.333 -2.66699 34.166 -8 50.499s-12 31.833 -20 46.5h-149v64z" />
    <glyph glyph-name="currency" unicode="&#xa4;" 
d="M278 589c26 0 52.333 -3.66699 79 -11s50 -19.666 70 -36.999l54 53l51 -48l-55 -54c16 -20.667 28.333 -44 37 -70s13 -53.333 13 -82s-4.33301 -56 -13 -82s-21 -49.333 -37 -70l55 -54l-51 -48l-54 53c-20 -17.333 -43.333 -29.666 -70 -36.999s-53 -11 -79 -11
s-52.333 3.66699 -79 11s-50 19.666 -70 36.999l-54 -53l-51 48l55 54c-16 20.667 -28.333 44 -37 70s-13 53.333 -13 82s4.33301 56 13 82s21 49.333 37 70l-55 54l51 48l54 -53c20 17.333 43.333 29.666 70 36.999s53 11 79 11zM99 340
c0 -26.667 4.16699 -51.334 12.5 -74.001s20.333 -42.167 36 -58.5s34.5 -29.166 56.5 -38.499s46.667 -14 74 -14s52 4.66699 74 14s40.833 22.166 56.5 38.499s27.667 35.833 36 58.5s12.5 47.334 12.5 74.001s-4.16699 51.167 -12.5 73.5s-20.333 41.833 -36 58.5
s-34.5 29.667 -56.5 39s-46.667 14 -74 14s-52 -4.66699 -74 -14s-40.833 -22.333 -56.5 -39s-27.667 -36.167 -36 -58.5s-12.5 -46.833 -12.5 -73.5z" />
    <glyph glyph-name="yen" unicode="&#xa5;" 
d="M237 165h-146v58h146v85h-146v58h113l-195 314h100l169 -282l169 282h100l-195 -314h113v-58h-146v-85h146v-58h-146v-165h-82v165z" />
    <glyph glyph-name="brokenbar" unicode="&#xa6;" horiz-adv-x="222" 
d="M76 161h70v-250h-70v250zM76 661h70v-250h-70v250z" />
    <glyph glyph-name="section" unicode="&#xa7;" 
d="M328 149c13.333 2 26.8311 5.83398 40.498 11.501s25.834 12.667 36.501 21s19.334 18.166 26.001 29.499s10 24 10 38c0 20.667 -6.33301 37.5 -19 50.5s-26.667 23.5 -42 31.5l-185 95c-4 -1.33301 -10.333 -4 -19 -8s-17.5 -10.167 -26.5 -18.5s-17 -19 -24 -32
s-10.5 -28.833 -10.5 -47.5c0 -23.333 7.66699 -43.333 23 -60s33 -30 53 -40zM97.998 -44.999c28.667 -15.333 58.3252 -29.1641 88.9922 -41.4971s62.667 -18.5 96 -18.5c12.667 0 25.334 1 38.001 3s24.167 5.83301 34.5 11.5s18.833 13.5 25.5 23.5s10 23 10 39
c0 12.667 -3.66699 24 -11 34s-16.333 18.833 -27 26.5s-22 14.5 -34 20.5l-33 16l-133 69c-19.333 10 -36.833 20.333 -52.5 31s-29 22.834 -40 36.501s-19.333 29.5 -25 47.5s-8.5 39 -8.5 63c0 36 9.83301 67 29.5 93s45.834 45.667 78.501 59
c-18.667 15.333 -33.667 31.166 -45 47.499s-17 37.166 -17 62.499c0 26 6.16699 48.667 18.5 68s28.166 35.166 47.499 47.499s40.833 21.5 64.5 27.5s46.834 9 69.501 9c38.667 0 76.167 -6.83301 112.5 -20.5s70.5 -30.834 102.5 -51.501l-40 -68
c-26.667 18 -54.5 33.167 -83.5 45.5s-59.833 18.5 -92.5 18.5c-11.333 0 -23.166 -1.16699 -35.499 -3.5s-23.666 -6.33301 -33.999 -12s-18.833 -13 -25.5 -22s-10 -20.167 -10 -33.5c0 -20 5 -34.167 15 -42.5s23 -16.833 39 -25.5l210 -108
c34 -17.333 58.833 -37 74.5 -59s23.5 -50 23.5 -84c0 -40.667 -10.333 -75 -31 -103s-51 -46.667 -91 -56c52 -29.333 78 -74.333 78 -135c0 -25.333 -5.33301 -47.5 -16 -66.5s-24.667 -34.833 -42 -47.5s-37 -22 -59 -28s-44.667 -9 -68 -9s-45.166 1.33301 -65.499 4
s-40.166 6.66699 -59.499 12s-38.666 12 -57.999 20s-39.666 17.333 -60.999 28z" />
    <glyph glyph-name="dieresis" unicode="&#xa8;" horiz-adv-x="204" 
d="M-22 696h88v-100h-88v100zM138 696h88v-100h-88v100z" />
    <glyph glyph-name="copyright" unicode="&#xa9;" horiz-adv-x="800" 
d="M596 282c-6 -48 -26.166 -86.498 -60.499 -115.498s-77.833 -43.5 -130.5 -43.5c-31.333 0 -60 6 -86 18s-48.5 28.5 -67.5 49.5s-33.667 45.667 -44 74s-15.5 59.166 -15.5 92.499s5 64.333 15 93s24.333 53.5 43 74.5s41.5 37.333 68.5 49s57.167 17.5 90.5 17.5
c23.333 0 45.666 -3.5 66.999 -10.5s40.333 -17 57 -30s30.5 -29.333 41.5 -49s18.167 -41.834 21.5 -66.501h-69c-1.33301 12 -4.83301 23.833 -10.5 35.5s-13.167 22.167 -22.5 31.5s-21 16.833 -35 22.5s-30.333 8.5 -49 8.5c-23.333 0 -44.166 -4.83301 -62.499 -14.5
s-33.833 -22.5 -46.5 -38.5s-22.334 -34.667 -29.001 -56s-10 -43.333 -10 -66c0 -22 3.5 -43.667 10.5 -65s16.833 -40.333 29.5 -57s27.667 -30 45 -40s36.666 -15 57.999 -15c36.667 0 64.834 9.33301 84.501 28s32.167 43 37.5 73h69zM26.001 356.002
c0 52 9.83301 100.667 29.5 146s46.334 84.833 80.001 118.5s73.167 60.334 118.5 80.001s94 29.5 146 29.5s100.667 -9.83301 146 -29.5s84.833 -46.334 118.5 -80.001s60.334 -73.167 80.001 -118.5s29.5 -94 29.5 -146s-9.83301 -100.667 -29.5 -146
s-46.334 -84.833 -80.001 -118.5s-73.167 -60.334 -118.5 -80.001s-94 -29.5 -146 -29.5s-100.667 9.83301 -146 29.5s-84.833 46.334 -118.5 80.001s-60.334 73.167 -80.001 118.5s-29.5 94 -29.5 146zM90.001 356.002c0 -43.333 8.16699 -84 24.5 -122
s38.666 -71.5 66.999 -100.5s61.333 -51.833 99 -68.5s77.5 -25 119.5 -25s81.833 8.33301 119.5 25s70.667 39.5 99 68.5s50.666 62.5 66.999 100.5s24.5 78.667 24.5 122c0 42.667 -8.16699 83.167 -24.5 121.5s-38.666 72 -66.999 101s-61.333 51.833 -99 68.5
s-77.5 25 -119.5 25s-81.833 -8.33301 -119.5 -25s-70.667 -39.5 -99 -68.5s-50.666 -62.667 -66.999 -101s-24.5 -78.833 -24.5 -121.5z" />
    <glyph glyph-name="ordfeminine" unicode="&#xaa;" horiz-adv-x="325" 
d="M220 528l-57 -9.00098c-17.333 -2.66699 -32.333 -6.16699 -45 -10.5s-22.5 -9.83301 -29.5 -16.5s-10.5 -15 -10.5 -25c0 -15.333 6.33301 -25.166 19 -29.499s26 -6.5 40 -6.5c26.667 0 47.167 4 61.5 12s21.5 26.667 21.5 56v29zM220 588.999
c0 19.333 -4.99902 32.668 -14.999 40.001s-27.667 11 -53 11c-20.667 0 -36.334 -3.66699 -47.001 -11s-16.667 -20.666 -18 -39.999l-52 3c3.33301 32.667 15.166 56.5 35.499 71.5s47.833 22.5 82.5 22.5c12.667 0 26.334 -1 41.001 -3s28.334 -6.33301 41.001 -13
s23 -15.834 31 -27.501s12 -26.834 12 -45.501v-119c0 -17.333 1.16699 -29.666 3.5 -36.999s9.16602 -10.666 20.499 -9.99902c2.66699 0 5 0.166992 7 0.5s4.66699 1.16602 8 2.49902v-44c-11.333 -3.33301 -21 -5 -29 -5c-13.333 0 -25.333 3.5 -36 10.5
s-18.334 18.167 -23.001 33.5c-14 -15.333 -30.333 -26.5 -49 -33.5s-39 -10.5 -61 -10.5c-14 0 -27 2 -39 6s-22.5 9.66699 -31.5 17s-16 15.666 -21 24.999s-7.5 19.666 -7.5 30.999c0 24.667 7.33301 43.667 22 57s32.334 23.333 53.001 30s42.5 10.834 65.5 12.501
s42.833 3.16699 59.5 4.5v21z" />
    <glyph glyph-name="guillemotleft" unicode="&#xab;" horiz-adv-x="407" 
d="M352 415v-93l-77 -68l77 -68v-93l-136 117v88zM191 415v-93l-77 -68l77 -68v-93l-136 117v88z" />
    <glyph glyph-name="logicalnot" unicode="&#xac;" horiz-adv-x="600" 
d="M483 317h-436v70h506v-279h-70v209z" />
    <glyph glyph-name="minus" unicode="&#xad;" horiz-adv-x="600" 
d="M47 288h506v-70h-506v70z" />
    <glyph glyph-name="registered" unicode="&#xae;" horiz-adv-x="800" 
d="M264 576l163 0.000976562c96.667 0 145 -41 145 -123c0 -20.667 -3 -38.334 -9 -53.001s-14 -27 -24 -37s-21.333 -17.833 -34 -23.5s-26 -9.5 -40 -11.5l123 -192h-73l-121 191h-66v-191h-64v440zM328 385.001l76 -0.000976562c15.333 0 29.333 0.833008 42 2.5
s23.667 4.83398 33 9.50098s16.5 11.5 21.5 20.5s7.5 20.833 7.5 35.5c0 23.333 -9.16699 40 -27.5 50s-41.833 15 -70.5 15h-82v-133zM26 356c0 52 9.83301 100.667 29.5 146s46.334 84.833 80.001 118.5s73.167 60.334 118.5 80.001s94 29.5 146 29.5
s100.667 -9.83301 146 -29.5s84.833 -46.334 118.5 -80.001s60.334 -73.167 80.001 -118.5s29.5 -94 29.5 -146s-9.83301 -100.667 -29.5 -146s-46.334 -84.833 -80.001 -118.5s-73.167 -60.334 -118.5 -80.001s-94 -29.5 -146 -29.5s-100.667 9.83301 -146 29.5
s-84.833 46.334 -118.5 80.001s-60.334 73.167 -80.001 118.5s-29.5 94 -29.5 146zM90 356c0 -43.333 8.16699 -84 24.5 -122s38.666 -71.5 66.999 -100.5s61.333 -51.833 99 -68.5s77.5 -25 119.5 -25s81.833 8.33301 119.5 25s70.667 39.5 99 68.5
s50.666 62.5 66.999 100.5s24.5 78.667 24.5 122c0 42.667 -8.16699 83.167 -24.5 121.5s-38.666 72 -66.999 101s-61.333 51.833 -99 68.5s-77.5 25 -119.5 25s-81.833 -8.33301 -119.5 -25s-70.667 -39.5 -99 -68.5s-50.666 -62.667 -66.999 -101
s-24.5 -78.833 -24.5 -121.5z" />
    <glyph glyph-name="macron" unicode="&#xaf;" horiz-adv-x="204" 
d="M-35 680h274v-58h-274v58z" />
    <glyph glyph-name="degree" unicode="&#xb0;" horiz-adv-x="400" 
d="M109 543c0 -11.333 2.66699 -22.5 8 -33.5s12.166 -20.667 20.499 -29s18 -15.166 29 -20.499s22.167 -8 33.5 -8s22.5 2.66699 33.5 8s20.667 12.166 29 20.499s15.166 18 20.499 29s8 22.167 8 33.5s-2.66699 22.5 -8 33.5s-12.166 20.667 -20.499 29
s-18 15.166 -29 20.499s-22.167 8 -33.5 8s-22.5 -2.66699 -33.5 -8s-20.667 -12.166 -29 -20.499s-15.166 -18 -20.499 -29s-8 -22.167 -8 -33.5zM57 543c0 20 3.66699 38.667 11 56s17.5 32.5 30.5 45.5s28.167 23.167 45.5 30.5s36 11 56 11s38.667 -3.66699 56 -11
s32.5 -17.5 45.5 -30.5s23.167 -28.167 30.5 -45.5s11 -36 11 -56s-3.66699 -38.667 -11 -56s-17.5 -32.5 -30.5 -45.5s-28.167 -23.167 -45.5 -30.5s-36 -11 -56 -11s-38.667 3.66699 -56 11s-32.5 17.5 -45.5 30.5s-23.167 28.167 -30.5 45.5s-11 36 -11 56z" />
    <glyph glyph-name="plusminus" unicode="&#xb1;" horiz-adv-x="600" 
d="M265 269h-218v70h218v167h70v-167h218v-70h-218v-166h-70v166zM47 70h506v-70h-506v70z" />
    <glyph glyph-name="twosuperior" unicode="&#xb2;" horiz-adv-x="361" 
d="M40 336c20 10 42.001 23.168 66.001 39.501s46.5 34.333 67.5 54s38.5 40.334 52.5 62.001s21 42.5 21 62.5c0 21.333 -6.33301 38 -19 50s-29.667 18 -51 18c-13.333 0 -24.333 -2 -33 -6s-15.5 -9 -20.5 -15s-8.5 -12.667 -10.5 -20s-3 -14 -3 -20
c0 -8 0.666992 -16.333 2 -25l4 -26h-70c-4 16.667 -6 33 -6 49c0 36.667 11.167 67 33.5 91s58.166 36 107.499 36c42.667 0 77 -11.833 103 -35.5s39 -55.5 39 -95.5c0 -25.333 -6.66699 -49.333 -20 -72s-29.333 -43.334 -48 -62.001s-38.167 -34.834 -58.5 -48.501
s-37.833 -24.5 -52.5 -32.5v-2h184v-64h-288v62z" />
    <glyph glyph-name="threesuperior" unicode="&#xb3;" horiz-adv-x="361" 
d="M139 517c8 0 15.166 -0.166992 21.499 -0.5s13.166 -0.5 20.499 -0.5c4.66699 0 11 0.5 19 1.5s15.833 3.16699 23.5 6.5s14.167 8.16602 19.5 14.499s8 15.166 8 26.499c0 6 -0.5 12.5 -1.5 19.5s-3.83301 13.167 -8.5 18.5s-11.5 9.83301 -20.5 13.5
s-21.5 5.5 -37.5 5.5c-28 0 -48 -7.66699 -60 -23s-17.667 -33.666 -17 -54.999l-70 3c1.33301 46 13.833 80.667 37.5 104s60.5 35 110.5 35c25.333 0 47 -3.5 65 -10.5s32.833 -16 44.5 -27s20.167 -23.5 25.5 -37.5s8 -27.667 8 -41
c0 -19.333 -4.16699 -36.666 -12.5 -51.999s-21.5 -25.666 -39.5 -30.999v-2c20.667 -7.33301 36.667 -20 48 -38s17 -37.667 17 -59c0 -10.667 -1.83301 -22.834 -5.5 -36.501s-11.167 -26.667 -22.5 -39s-27.333 -22.833 -48 -31.5s-48 -13 -82 -13
c-48 0 -86.667 11.333 -116 34s-44.333 57.667 -45 105h70c3.33301 -28.667 12.5 -48.334 27.5 -59.001s36.5 -16 64.5 -16c26.667 0 46.834 5.83301 60.501 17.5s20.5 26.167 20.5 43.5c0 12 -2.5 21.667 -7.5 29s-11.667 13.333 -20 18s-17.5 7.83398 -27.5 9.50098
s-20 2.5 -30 2.5h-19.5c-6.33301 0 -13.166 -0.666992 -20.499 -2v67z" />
    <glyph glyph-name="acute" unicode="&#xb4;" horiz-adv-x="204" 
d="M130 723h108l-130 -141h-67z" />
    <glyph glyph-name="mu" unicode="&#xb5;" horiz-adv-x="519" 
d="M456 0h-82.0029v64h-2c-15.333 -24 -34.666 -42.667 -57.999 -56s-50.666 -20 -81.999 -20c-18 0 -34.167 1.66699 -48.5 5s-27.166 9.66602 -38.499 18.999v-236h-82v702h82v-315c0 -34 9.33301 -59 28 -75s43 -24 73 -24c38 0 68.833 11.333 92.5 34
s35.5 53.334 35.5 92.001v288h82v-478z" />
    <glyph glyph-name="paragraph" unicode="&#xb6;" horiz-adv-x="600" 
d="M271 332c-30 0 -57.833 4.99902 -83.5 14.999s-47.834 23.5 -66.501 40.5s-33.167 36.833 -43.5 59.5s-15.5 47 -15.5 73c0 64.667 19.833 112.834 59.5 144.501s94.834 47.5 165.501 47.5h228v-875h-58v829h-128v-829h-58v495z" />
    <glyph glyph-name="periodcentered" unicode="&#xb7;" horiz-adv-x="278" 
d="M82 310c0 17.333 5.33301 31.5 16 42.5s24.334 16.5 41.001 16.5s30.334 -5.5 41.001 -16.5s16 -25.167 16 -42.5s-5.33301 -31.666 -16 -42.999s-24.334 -17 -41.001 -17s-30.334 5.66699 -41.001 17s-16 25.666 -16 42.999z" />
    <glyph glyph-name="periodcentered" unicode="&#x2219;" horiz-adv-x="278" 
d="M82 310c0 17.333 5.33301 31.5 16 42.5s24.334 16.5 41.001 16.5s30.334 -5.5 41.001 -16.5s16 -25.167 16 -42.5s-5.33301 -31.666 -16 -42.999s-24.334 -17 -41.001 -17s-30.334 5.66699 -41.001 17s-16 25.666 -16 42.999z" />
    <glyph glyph-name="cedilla" unicode="&#xb8;" horiz-adv-x="204" 
d="M12 -163c11.333 -4.66699 22.002 -8.33203 32.002 -10.999s21 -4 33 -4c12.667 0 25.167 2.83301 37.5 8.5s18.5 16.167 18.5 31.5c0 14 -4.66699 24.167 -14 30.5s-20.666 9.5 -33.999 9.5c-6.66699 0 -13.167 -0.666992 -19.5 -2s-12.833 -3 -19.5 -5l-17 19l64 86h47
l-46 -62h2c4 1.33301 8.66699 2.33301 14 3s10.666 1 15.999 1c22.667 0 42.167 -6.33301 58.5 -19s24.5 -31 24.5 -55c0 -16.667 -4 -31.167 -12 -43.5s-18.333 -22.333 -31 -30s-26.834 -13.167 -42.501 -16.5s-30.834 -4 -45.501 -2c-14 2 -28 4.66699 -42 8
s-27.667 7.66602 -41 12.999z" />
    <glyph glyph-name="onesuperior" unicode="&#xb9;" horiz-adv-x="361" 
d="M160 560h-88.001v52c29.333 1.33301 53.333 6 72 14s31.334 26 38.001 54h54v-406h-76v286z" />
    <glyph glyph-name="ordmasculine" unicode="&#xba;" horiz-adv-x="349" 
d="M23 535c0 22 3.5 42.1689 10.5 60.502s17 34.166 30 47.499s28.833 23.833 47.5 31.5s39.667 11.5 63 11.5c24 0 45.333 -3.83301 64 -11.5s34.5 -18.167 47.5 -31.5s23 -29.166 30 -47.499s10.5 -38.5 10.5 -60.5c0 -44 -13.333 -80 -40 -108s-64 -42 -112 -42
c-23.333 0 -44.333 3.66699 -63 11s-34.5 17.666 -47.5 30.999s-23 29.166 -30 47.499s-10.5 38.5 -10.5 60.5zM87 535.002c0 -11.333 1.16699 -23.166 3.5 -35.499s6.83301 -23.5 13.5 -33.5s15.5 -18.333 26.5 -25s25.5 -10 43.5 -10s32.833 3.33301 44.5 10
s20.667 15 27 25s10.666 21.167 12.999 33.5s3.5 24.166 3.5 35.499s-1.16699 23.166 -3.5 35.499s-6.66602 23.666 -12.999 33.999s-15.333 18.833 -27 25.5s-26.5 10 -44.5 10s-32.5 -3.33301 -43.5 -10s-19.833 -15.167 -26.5 -25.5s-11.167 -21.666 -13.5 -33.999
s-3.5 -24.166 -3.5 -35.499z" />
    <glyph glyph-name="guillemotright" unicode="&#xbb;" horiz-adv-x="407" 
d="M55 93v93l77 68l-77 68v93l136 -117v-88zM216 93v93l77 68l-77 68v93l136 -117v-88z" />
    <glyph glyph-name="onequarter" unicode="&#xbc;" horiz-adv-x="834" 
d="M677 84h-191v61l205 261h62v-258h54v-64h-54v-84h-76v84zM677 303h-2l-119 -155h121v155zM595 712h69l-430 -744h-69zM143 560h-88.001v52c29.333 1.33301 53.333 6 72 14s31.334 26 38.001 54h54v-406h-76v286z" />
    <glyph glyph-name="onehalf" unicode="&#xbd;" horiz-adv-x="834" 
d="M548 712h69l-430 -744h-69zM143 560h-88.001v52c29.333 1.33301 53.333 6 72 14s31.334 26 38.001 54h54v-406h-76v286zM473.999 62c20 10 42.001 23.168 66.001 39.501s46.5 34.333 67.5 54s38.5 40.334 52.5 62.001s21 42.5 21 62.5c0 21.333 -6.33301 38 -19 50
s-29.667 18 -51 18c-13.333 0 -24.333 -2 -33 -6s-15.5 -9 -20.5 -15s-8.5 -12.667 -10.5 -20s-3 -14 -3 -20c0 -8 0.666992 -16.333 2 -25l4 -26h-70c-4 16.667 -6 33 -6 49c0 36.667 11.167 67 33.5 91s58.166 36 107.499 36c42.667 0 77 -11.833 103 -35.5
s39 -55.5 39 -95.5c0 -25.333 -6.66699 -49.333 -20 -72s-29.333 -43.334 -48 -62.001s-38.167 -34.834 -58.5 -48.501s-37.833 -24.5 -52.5 -32.5v-2h184v-64h-288v62z" />
    <glyph glyph-name="threequarters" unicode="&#xbe;" horiz-adv-x="834" 
d="M677 84h-191v61l205 261h62v-258h54v-64h-54v-84h-76v84zM677 303h-2l-119 -155h121v155zM655 712h69l-430 -744h-69zM173 517c8 0 15.166 -0.166992 21.499 -0.5s13.166 -0.5 20.499 -0.5c4.66699 0 11 0.5 19 1.5s15.833 3.16699 23.5 6.5s14.167 8.16602 19.5 14.499
s8 15.166 8 26.499c0 6 -0.5 12.5 -1.5 19.5s-3.83301 13.167 -8.5 18.5s-11.5 9.83301 -20.5 13.5s-21.5 5.5 -37.5 5.5c-28 0 -48 -7.66699 -60 -23s-17.667 -33.666 -17 -54.999l-70 3c1.33301 46 13.833 80.667 37.5 104s60.5 35 110.5 35c25.333 0 47 -3.5 65 -10.5
s32.833 -16 44.5 -27s20.167 -23.5 25.5 -37.5s8 -27.667 8 -41c0 -19.333 -4.16699 -36.666 -12.5 -51.999s-21.5 -25.666 -39.5 -30.999v-2c20.667 -7.33301 36.667 -20 48 -38s17 -37.667 17 -59c0 -10.667 -1.83301 -22.834 -5.5 -36.501s-11.167 -26.667 -22.5 -39
s-27.333 -22.833 -48 -31.5s-48 -13 -82 -13c-48 0 -86.667 11.333 -116 34s-44.333 57.667 -45 105h70c3.33301 -28.667 12.5 -48.334 27.5 -59.001s36.5 -16 64.5 -16c26.667 0 46.834 5.83301 60.501 17.5s20.5 26.167 20.5 43.5c0 12 -2.5 21.667 -7.5 29
s-11.667 13.333 -20 18s-17.5 7.83398 -27.5 9.50098s-20 2.5 -30 2.5h-19.5c-6.33301 0 -13.166 -0.666992 -20.499 -2v67z" />
    <glyph glyph-name="questiondown" unicode="&#xbf;" horiz-adv-x="574" 
d="M332 96l-37 -0.00195312c-28.667 0 -52.834 -3 -72.501 -9s-35.667 -14.667 -48 -26s-21.166 -25 -26.499 -41s-8 -34 -8 -54c0 -17.333 3.83301 -33.666 11.5 -48.999s18 -28.666 31 -39.999s27.833 -20.333 44.5 -27s34 -10 52 -10c52 0 89.5 14.833 112.5 44.5
s35.167 70.167 36.5 121.5h88c0 -36 -5.5 -69 -16.5 -99s-26.667 -55.5 -47 -76.5s-44.5 -37.333 -72.5 -49s-58.667 -17.5 -92 -17.5c-31.333 0 -60.833 4.66699 -88.5 14s-52 23 -73 41s-37.667 40.333 -50 67s-18.5 57.667 -18.5 93c0 28.667 4.66699 55 14 79
s22.5 44.667 39.5 62s37.167 31 60.5 41s49.333 15.667 78 17v156h82v-238zM335 393.998h-88v94h88v-94z" />
    <glyph glyph-name="Agrave" unicode="&#xc0;" horiz-adv-x="648" 
d="M281 712h100l258 -712h-101l-76 218h-270l-82 -218h-101zM331 595h-2l-108 -295h212zM188 902h108l89 -141h-67z" />
    <glyph glyph-name="Aacute" unicode="&#xc1;" horiz-adv-x="648" 
d="M281 712h100l258 -712h-101l-76 218h-270l-82 -218h-101zM331 595h-2l-108 -295h212zM352 902h108l-130 -141h-67z" />
    <glyph glyph-name="Acircumflex" unicode="&#xc2;" horiz-adv-x="648" 
d="M281 712h100l258 -712h-101l-76 218h-270l-82 -218h-101zM331 595h-2l-108 -295h212zM277 902h92l101 -141h-81l-66 95l-66 -95h-79z" />
    <glyph glyph-name="Atilde" unicode="&#xc3;" horiz-adv-x="648" 
d="M281 712h100l258 -712h-101l-76 218h-270l-82 -218h-101zM331 595h-2l-108 -295h212zM154 770c2.66699 30 12.6689 55.502 30.002 76.502s42 31.5 74 31.5c13.333 0 26.333 -1.83301 39 -5.5s24.667 -7.83398 36 -12.501c11.333 -5.33301 22.166 -9.83301 32.499 -13.5
s19.166 -5.5 26.499 -5.5c15.333 0 28.166 3.66699 38.499 11s15.5 18.666 15.5 33.999h48c-2 -14 -5.5 -27.5 -10.5 -40.5s-11.833 -24.667 -20.5 -35s-19.167 -18.5 -31.5 -24.5s-26.166 -9 -41.499 -9c-10 0 -21.5 2 -34.5 6s-26.167 8.66699 -39.5 14
c-13.333 4.66699 -26 8.66699 -38 12s-22.667 5 -32 5c-11.333 0 -21.5 -4.66699 -30.5 -14s-13.5 -19.333 -13.5 -30h-48z" />
    <glyph glyph-name="Adieresis" unicode="&#xc4;" horiz-adv-x="648" 
d="M281 712h100l258 -712h-101l-76 218h-270l-82 -218h-101zM331 595h-2l-108 -295h212zM200 875h88v-100h-88v100zM360 875h88v-100h-88v100z" />
    <glyph glyph-name="Aring" unicode="&#xc5;" horiz-adv-x="648" 
d="M281 712h100l258 -712h-101l-76 218h-270l-82 -218h-101zM331 595h-2l-108 -295h212zM229 836c0 14 2.66699 27.167 8 39.5s12.666 23.166 21.999 32.499s20.166 16.666 32.499 21.999s25.5 8 39.5 8s27.167 -2.66699 39.5 -8s23.166 -12.666 32.499 -21.999
s16.666 -20.166 21.999 -32.499s8 -25.5 8 -39.5s-2.66699 -27.167 -8 -39.5s-12.666 -23.166 -21.999 -32.499s-20.166 -16.666 -32.499 -21.999s-25.5 -8 -39.5 -8s-27.167 2.66699 -39.5 8s-23.166 12.666 -32.499 21.999s-16.666 20.166 -21.999 32.499s-8 25.5 -8 39.5
zM269 836c0 -16 6.16699 -30.333 18.5 -43s26.833 -19 43.5 -19s31.167 6.33301 43.5 19s18.5 27 18.5 43s-6.16699 30.333 -18.5 43s-26.833 19 -43.5 19s-31.167 -6.33301 -43.5 -19s-18.5 -27 -18.5 -43z" />
    <glyph glyph-name="AE" unicode="&#xc6;" horiz-adv-x="1056" 
d="M519 234h-253l-157 -234h-109l483 712h540v-82h-410v-232h312v-82h-312v-234h426v-82h-520v234zM519 618h-2l-196 -302h198v302z" />
    <glyph glyph-name="Ccedilla" unicode="&#xc7;" horiz-adv-x="778" 
d="M374 -16c-50.667 3.33301 -95.9961 14.668 -135.996 34.001s-74 45.166 -102 77.499s-49.5 70.666 -64.5 114.999s-22.5 92.833 -22.5 145.5c0 55.333 8.16699 106 24.5 152s40 85.5 71 118.5s68.667 58.5 113 76.5s94.166 27 149.499 27c38 0 74.333 -4.66699 109 -14
s66 -23.166 94 -41.499s52.333 -41.166 73 -68.499s36.334 -59.333 47.001 -96l-98 -18c-6 24 -16.167 46 -30.5 66s-31.5 37.167 -51.5 51.5s-42.167 25.333 -66.5 33s-49.833 11.5 -76.5 11.5c-44 0 -82.167 -8.16699 -114.5 -24.5s-59 -38.166 -80 -65.499
s-36.5 -59 -46.5 -95s-15 -73.667 -15 -113s5 -77 15 -113s25.5 -67.667 46.5 -95s47.667 -49.166 80 -65.499s70.5 -24.5 114.5 -24.5c30.667 0 59.334 5 86.001 15s50.167 24.333 70.5 43s37.166 41 50.499 67s22 54.667 26 86l99 -12
c-8 -40.667 -21.833 -77.5 -41.5 -110.5s-43.834 -61.333 -72.501 -85s-60.334 -42.334 -95.001 -56.001s-71 -21.167 -109 -22.5l-34 -45h2c4 1.33301 8.66699 2.33301 14 3s10.666 1 15.999 1c22.667 0 42.167 -6.33301 58.5 -19s24.5 -31 24.5 -55
c0 -16.667 -4 -31.167 -12 -43.5s-18.333 -22.333 -31 -30s-26.834 -13.167 -42.501 -16.5s-30.834 -4 -45.501 -2c-14 2 -28 4.66699 -42 8s-27.667 7.66602 -41 12.999l17 40c11.333 -4.66699 22 -8.33398 32 -11.001s21 -4 33 -4c12.667 0 25.167 2.83301 37.5 8.5
s18.5 16.167 18.5 31.5c0 14 -4.66699 24.167 -14 30.5s-20.666 9.5 -33.999 9.5c-6.66699 0 -13.167 -0.666992 -19.5 -2s-12.833 -3 -19.5 -5l-17 19z" />
    <glyph glyph-name="Egrave" unicode="&#xc8;" horiz-adv-x="611" 
d="M71 712h500v-82h-406v-220h353v-82h-353v-246h416v-82h-510v712zM170 902h108l89 -141h-67z" />
    <glyph glyph-name="Eacute" unicode="&#xc9;" horiz-adv-x="611" 
d="M71 712h500v-82h-406v-220h353v-82h-353v-246h416v-82h-510v712zM334 902h108l-130 -141h-67z" />
    <glyph glyph-name="Ecircumflex" unicode="&#xca;" horiz-adv-x="611" 
d="M71 712h500v-82h-406v-220h353v-82h-353v-246h416v-82h-510v712zM259 902h92l101 -141h-81l-66 95l-66 -95h-79z" />
    <glyph glyph-name="Edieresis" unicode="&#xcb;" horiz-adv-x="611" 
d="M71 712h500v-82h-406v-220h353v-82h-353v-246h416v-82h-510v712zM182 875h88v-100h-88v100zM342 875h88v-100h-88v100z" />
    <glyph glyph-name="Igrave" unicode="&#xcc;" horiz-adv-x="258" 
d="M82 712h94v-712h-94v712zM-7 902h108l89 -141h-67z" />
    <glyph glyph-name="Iacute" unicode="&#xcd;" horiz-adv-x="258" 
d="M82 712h94v-712h-94v712zM157 902h108l-130 -141h-67z" />
    <glyph glyph-name="Icircumflex" unicode="&#xce;" horiz-adv-x="258" 
d="M82 712h94v-712h-94v712zM82 902h92l101 -141h-81l-66 95l-66 -95h-79z" />
    <glyph glyph-name="Idieresis" unicode="&#xcf;" horiz-adv-x="258" 
d="M82 712h94v-712h-94v712zM5 875h88v-100h-88v100zM165 875h88v-100h-88v100z" />
    <glyph glyph-name="Eth" unicode="&#xd0;" horiz-adv-x="704" 
d="M71 340l-68.001 -0.000976562v70h68v302h269c54 0 100.833 -8.66699 140.5 -26s72.5 -41.833 98.5 -73.5s45.167 -69.667 57.5 -114s18.5 -93.166 18.5 -146.499c0 -50.667 -6.5 -97.5 -19.5 -140.5s-32.5 -80.167 -58.5 -111.5s-58.667 -55.833 -98 -73.5
s-85.666 -26.5 -138.999 -26.5h-269v340zM164.999 81.999l159 0.00195312c42 0 77.667 6.83301 107 20.5s53 32.667 71 57s31 53.666 39 87.999s12 72.166 12 113.499c0 40.667 -4.16699 77.5 -12.5 110.5s-21.333 61.167 -39 84.5s-40.5 41.5 -68.5 54.5
s-61.667 19.5 -101 19.5h-167v-220h204v-70h-204v-258z" />
    <glyph glyph-name="Ntilde" unicode="&#xd1;" horiz-adv-x="704" 
d="M71 712h95l377 -562h2v562h88v-712h-94l-378 561h-2v-561h-88v712zM182 770c2.66699 30 12.6689 55.502 30.002 76.502s42 31.5 74 31.5c13.333 0 26.333 -1.83301 39 -5.5s24.667 -7.83398 36 -12.501c11.333 -5.33301 22.166 -9.83301 32.499 -13.5
s19.166 -5.5 26.499 -5.5c15.333 0 28.166 3.66699 38.499 11s15.5 18.666 15.5 33.999h48c-2 -14 -5.5 -27.5 -10.5 -40.5s-11.833 -24.667 -20.5 -35s-19.167 -18.5 -31.5 -24.5s-26.166 -9 -41.499 -9c-10 0 -21.5 2 -34.5 6s-26.167 8.66699 -39.5 14
c-13.333 4.66699 -26 8.66699 -38 12s-22.667 5 -32 5c-11.333 0 -21.5 -4.66699 -30.5 -14s-13.5 -19.333 -13.5 -30h-48z" />
    <glyph glyph-name="Ograve" unicode="&#xd2;" horiz-adv-x="814" 
d="M49 356c0 55.333 8.16699 106 24.5 152s40 85.5 71 118.5s68.667 58.5 113 76.5s94.166 27 149.499 27s105.166 -9 149.499 -27s82 -43.5 113 -76.5s54.667 -72.5 71 -118.5s24.5 -96.667 24.5 -152s-8.16699 -106 -24.5 -152s-40 -85.5 -71 -118.5
s-68.667 -58.5 -113 -76.5s-94.166 -27 -149.499 -27s-105.166 9 -149.499 27s-82 43.5 -113 76.5s-54.667 72.5 -71 118.5s-24.5 96.667 -24.5 152zM151 356c0 -39.333 5 -77 15 -113s25.5 -67.667 46.5 -95s47.667 -49.166 80 -65.499s70.5 -24.5 114.5 -24.5
s82 8.16699 114 24.5s58.5 38.166 79.5 65.499s36.667 59 47 95s15.5 73.667 15.5 113s-5.16699 77 -15.5 113s-26 67.667 -47 95s-47.5 49.166 -79.5 65.499s-70 24.5 -114 24.5s-82.167 -8.16699 -114.5 -24.5s-59 -38.166 -80 -65.499s-36.5 -59 -46.5 -95
s-15 -73.667 -15 -113zM271 902h108l89 -141h-67z" />
    <glyph glyph-name="Oacute" unicode="&#xd3;" horiz-adv-x="814" 
d="M49 356c0 55.333 8.16699 106 24.5 152s40 85.5 71 118.5s68.667 58.5 113 76.5s94.166 27 149.499 27s105.166 -9 149.499 -27s82 -43.5 113 -76.5s54.667 -72.5 71 -118.5s24.5 -96.667 24.5 -152s-8.16699 -106 -24.5 -152s-40 -85.5 -71 -118.5
s-68.667 -58.5 -113 -76.5s-94.166 -27 -149.499 -27s-105.166 9 -149.499 27s-82 43.5 -113 76.5s-54.667 72.5 -71 118.5s-24.5 96.667 -24.5 152zM151 356c0 -39.333 5 -77 15 -113s25.5 -67.667 46.5 -95s47.667 -49.166 80 -65.499s70.5 -24.5 114.5 -24.5
s82 8.16699 114 24.5s58.5 38.166 79.5 65.499s36.667 59 47 95s15.5 73.667 15.5 113s-5.16699 77 -15.5 113s-26 67.667 -47 95s-47.5 49.166 -79.5 65.499s-70 24.5 -114 24.5s-82.167 -8.16699 -114.5 -24.5s-59 -38.166 -80 -65.499s-36.5 -59 -46.5 -95
s-15 -73.667 -15 -113zM435 902h108l-130 -141h-67z" />
    <glyph glyph-name="Ocircumflex" unicode="&#xd4;" horiz-adv-x="814" 
d="M49 356c0 55.333 8.16699 106 24.5 152s40 85.5 71 118.5s68.667 58.5 113 76.5s94.166 27 149.499 27s105.166 -9 149.499 -27s82 -43.5 113 -76.5s54.667 -72.5 71 -118.5s24.5 -96.667 24.5 -152s-8.16699 -106 -24.5 -152s-40 -85.5 -71 -118.5
s-68.667 -58.5 -113 -76.5s-94.166 -27 -149.499 -27s-105.166 9 -149.499 27s-82 43.5 -113 76.5s-54.667 72.5 -71 118.5s-24.5 96.667 -24.5 152zM151 356c0 -39.333 5 -77 15 -113s25.5 -67.667 46.5 -95s47.667 -49.166 80 -65.499s70.5 -24.5 114.5 -24.5
s82 8.16699 114 24.5s58.5 38.166 79.5 65.499s36.667 59 47 95s15.5 73.667 15.5 113s-5.16699 77 -15.5 113s-26 67.667 -47 95s-47.5 49.166 -79.5 65.499s-70 24.5 -114 24.5s-82.167 -8.16699 -114.5 -24.5s-59 -38.166 -80 -65.499s-36.5 -59 -46.5 -95
s-15 -73.667 -15 -113zM360 902h92l101 -141h-81l-66 95l-66 -95h-79z" />
    <glyph glyph-name="Otilde" unicode="&#xd5;" horiz-adv-x="814" 
d="M49 356c0 55.333 8.16699 106 24.5 152s40 85.5 71 118.5s68.667 58.5 113 76.5s94.166 27 149.499 27s105.166 -9 149.499 -27s82 -43.5 113 -76.5s54.667 -72.5 71 -118.5s24.5 -96.667 24.5 -152s-8.16699 -106 -24.5 -152s-40 -85.5 -71 -118.5
s-68.667 -58.5 -113 -76.5s-94.166 -27 -149.499 -27s-105.166 9 -149.499 27s-82 43.5 -113 76.5s-54.667 72.5 -71 118.5s-24.5 96.667 -24.5 152zM151 356c0 -39.333 5 -77 15 -113s25.5 -67.667 46.5 -95s47.667 -49.166 80 -65.499s70.5 -24.5 114.5 -24.5
s82 8.16699 114 24.5s58.5 38.166 79.5 65.499s36.667 59 47 95s15.5 73.667 15.5 113s-5.16699 77 -15.5 113s-26 67.667 -47 95s-47.5 49.166 -79.5 65.499s-70 24.5 -114 24.5s-82.167 -8.16699 -114.5 -24.5s-59 -38.166 -80 -65.499s-36.5 -59 -46.5 -95
s-15 -73.667 -15 -113zM237 770c2.66699 30 12.6689 55.502 30.002 76.502s42 31.5 74 31.5c13.333 0 26.333 -1.83301 39 -5.5s24.667 -7.83398 36 -12.501c11.333 -5.33301 22.166 -9.83301 32.499 -13.5s19.166 -5.5 26.499 -5.5c15.333 0 28.166 3.66699 38.499 11
s15.5 18.666 15.5 33.999h48c-2 -14 -5.5 -27.5 -10.5 -40.5s-11.833 -24.667 -20.5 -35s-19.167 -18.5 -31.5 -24.5s-26.166 -9 -41.499 -9c-10 0 -21.5 2 -34.5 6s-26.167 8.66699 -39.5 14c-13.333 4.66699 -26 8.66699 -38 12s-22.667 5 -32 5
c-11.333 0 -21.5 -4.66699 -30.5 -14s-13.5 -19.333 -13.5 -30h-48z" />
    <glyph glyph-name="Odieresis" unicode="&#xd6;" horiz-adv-x="814" 
d="M49 356c0 55.333 8.16699 106 24.5 152s40 85.5 71 118.5s68.667 58.5 113 76.5s94.166 27 149.499 27s105.166 -9 149.499 -27s82 -43.5 113 -76.5s54.667 -72.5 71 -118.5s24.5 -96.667 24.5 -152s-8.16699 -106 -24.5 -152s-40 -85.5 -71 -118.5
s-68.667 -58.5 -113 -76.5s-94.166 -27 -149.499 -27s-105.166 9 -149.499 27s-82 43.5 -113 76.5s-54.667 72.5 -71 118.5s-24.5 96.667 -24.5 152zM151 356c0 -39.333 5 -77 15 -113s25.5 -67.667 46.5 -95s47.667 -49.166 80 -65.499s70.5 -24.5 114.5 -24.5
s82 8.16699 114 24.5s58.5 38.166 79.5 65.499s36.667 59 47 95s15.5 73.667 15.5 113s-5.16699 77 -15.5 113s-26 67.667 -47 95s-47.5 49.166 -79.5 65.499s-70 24.5 -114 24.5s-82.167 -8.16699 -114.5 -24.5s-59 -38.166 -80 -65.499s-36.5 -59 -46.5 -95
s-15 -73.667 -15 -113zM283 875h88v-100h-88v100zM443 875h88v-100h-88v100z" />
    <glyph glyph-name="multiply" unicode="&#xd7;" horiz-adv-x="600" 
d="M300 204l-181 -182l-50 49l182 182l-182 182l50 49l181 -181l182 181l49 -49l-181 -182l181 -182l-49 -49z" />
    <glyph glyph-name="Oslash" unicode="&#xd8;" horiz-adv-x="815" 
d="M587 580c-21.333 23.333 -46.833 41.498 -76.5 54.498s-64.167 19.5 -103.5 19.5c-44 0 -82.167 -8.16699 -114.5 -24.5s-59 -38.166 -80 -65.499s-36.5 -59 -46.5 -95s-15 -73.667 -15 -113c0 -30 2.83301 -58.667 8.5 -86s14.167 -52.666 25.5 -75.999zM225 133.998
c21.333 -23.333 47 -41.8311 77 -55.498s65 -20.5 105 -20.5c44 0 82 8.16699 114 24.5s58.5 38.166 79.5 65.499s36.667 59 47 95s15.5 73.667 15.5 113c0 61.333 -12 116.666 -36 165.999zM114 125c-21.333 31.333 -37.5 66.333 -48.5 105s-16.5 80.667 -16.5 126
c0 55.333 8.16699 106 24.5 152s40 85.5 71 118.5s68.667 58.5 113 76.5s94.166 27 149.499 27c51.333 0 97.5 -7.66699 138.5 -23s76.5 -37 106.5 -65l68 66l50 -49l-72 -69c44.667 -62.667 67 -140.667 67 -234c0 -55.333 -8.16699 -106 -24.5 -152s-40 -85.5 -71 -118.5
s-68.667 -58.5 -113 -76.5s-94.166 -27 -149.499 -27c-51.333 0 -97.5 7.66699 -138.5 23s-77.167 37.333 -108.5 66l-65 -62l-50 50z" />
    <glyph glyph-name="Ugrave" unicode="&#xd9;" horiz-adv-x="684" 
d="M613 234c0 -40.667 -6.33496 -76.667 -19.002 -108s-30.667 -57.666 -54 -78.999s-51.666 -37.5 -84.999 -48.5s-71 -16.5 -113 -16.5s-79.667 5.5 -113 16.5s-61.666 27.167 -84.999 48.5s-41.333 47.666 -54 78.999s-19 67.333 -19 108v478h94v-462
c0 -62.667 14 -109.334 42 -140.001s73 -46 135 -46s107 15.333 135 46s42 77.334 42 140.001v462h94v-478zM205.998 902h108l89 -141h-67z" />
    <glyph glyph-name="Uacute" unicode="&#xda;" horiz-adv-x="684" 
d="M613 234c0 -40.667 -6.33496 -76.667 -19.002 -108s-30.667 -57.666 -54 -78.999s-51.666 -37.5 -84.999 -48.5s-71 -16.5 -113 -16.5s-79.667 5.5 -113 16.5s-61.666 27.167 -84.999 48.5s-41.333 47.666 -54 78.999s-19 67.333 -19 108v478h94v-462
c0 -62.667 14 -109.334 42 -140.001s73 -46 135 -46s107 15.333 135 46s42 77.334 42 140.001v462h94v-478zM369.998 902h108l-130 -141h-67z" />
    <glyph glyph-name="Ucircumflex" unicode="&#xdb;" horiz-adv-x="684" 
d="M613 234c0 -40.667 -6.33496 -76.667 -19.002 -108s-30.667 -57.666 -54 -78.999s-51.666 -37.5 -84.999 -48.5s-71 -16.5 -113 -16.5s-79.667 5.5 -113 16.5s-61.666 27.167 -84.999 48.5s-41.333 47.666 -54 78.999s-19 67.333 -19 108v478h94v-462
c0 -62.667 14 -109.334 42 -140.001s73 -46 135 -46s107 15.333 135 46s42 77.334 42 140.001v462h94v-478zM294.998 902h92l101 -141h-81l-66 95l-66 -95h-79z" />
    <glyph glyph-name="Udieresis" unicode="&#xdc;" horiz-adv-x="684" 
d="M613 234c0 -40.667 -6.33496 -76.667 -19.002 -108s-30.667 -57.666 -54 -78.999s-51.666 -37.5 -84.999 -48.5s-71 -16.5 -113 -16.5s-79.667 5.5 -113 16.5s-61.666 27.167 -84.999 48.5s-41.333 47.666 -54 78.999s-19 67.333 -19 108v478h94v-462
c0 -62.667 14 -109.334 42 -140.001s73 -46 135 -46s107 15.333 135 46s42 77.334 42 140.001v462h94v-478zM217.998 875h88v-100h-88v100zM377.998 875h88v-100h-88v100z" />
    <glyph glyph-name="Yacute" unicode="&#xdd;" horiz-adv-x="628" 
d="M267 328l-256 384h113l190 -295l190 295h113l-256 -384v-328h-94v328zM342 902h108l-130 -141h-67z" />
    <glyph glyph-name="Thorn" unicode="&#xde;" horiz-adv-x="630" 
d="M71 712l93.999 0.00195312v-104h262c21.333 0 43 -3.33301 65 -10s42 -18 60 -34s32.667 -37.167 44 -63.5s17 -58.833 17 -97.5c0 -34.667 -5.83301 -64.834 -17.5 -90.501s-26.667 -46.834 -45 -63.501s-39.166 -29 -62.499 -37s-46.333 -12 -69 -12h-254v-200h-94v712
zM164.999 282.002h218c40.667 0 73.5 9.5 98.5 28.5s37.5 50.167 37.5 93.5c0 40 -9.5 70.333 -28.5 91s-50.5 31 -94.5 31h-231v-244z" />
    <glyph glyph-name="germandbls" unicode="&#xdf;" 
d="M505 237c0 -24 -2.1709 -50.4971 -6.50391 -79.4971s-14 -56 -29 -81s-36.833 -46 -65.5 -63s-67.667 -25.5 -117 -25.5c-16 0 -31.833 1.5 -47.5 4.5s-31.167 6.83301 -46.5 11.5v80c16 -6 32.5 -10.833 49.5 -14.5s34.167 -5.5 51.5 -5.5c42 0 74 14.5 96 43.5
s33 69.5 33 121.5c0 33.333 -6.16699 60.333 -18.5 81s-28.666 36.667 -48.999 48s-44 18.833 -71 22.5s-55.167 5.5 -84.5 5.5v77c6 0 11.833 -0.166992 17.5 -0.5s11.5 -0.5 17.5 -0.5c16.667 0 32.834 1.5 48.501 4.5s29.834 8.16699 42.501 15.5
s22.834 17.333 30.501 30s11.5 29 11.5 49c0 18.667 -2.83301 34 -8.5 46s-13.5 21.5 -23.5 28.5s-21.667 11.833 -35 14.5s-27.666 4 -42.999 4c-40 0 -68.833 -11.167 -86.5 -33.5s-26.5 -50.5 -26.5 -84.5v-536h-82v532c0 63.333 16.833 112.166 50.5 146.499
s81.5 51.5 143.5 51.5c29.333 0 56 -3.16699 80 -9.5s44.333 -16.333 61 -30s29.5 -31.167 38.5 -52.5s13.5 -47 13.5 -77c0 -29.333 -7.33301 -56.333 -22 -81s-36 -42 -64 -52v-2c24.667 -4.66699 46 -12.834 64 -24.501s32.667 -26 44 -43s19.666 -35.833 24.999 -56.5
s8 -42.334 8 -65.001z" />
    <glyph glyph-name="agrave" unicode="&#xe0;" horiz-adv-x="500" 
d="M343 233c-33.333 -4.66699 -64.001 -9.49805 -92.001 -14.498s-52 -11.333 -72 -19s-35.5 -17.334 -46.5 -29.001s-16.5 -26.834 -16.5 -45.501c0 -14.667 3 -26.667 9 -36s13.5 -16.833 22.5 -22.5s18.833 -9.5 29.5 -11.5s21 -3 31 -3c38.667 0 70.834 11 96.501 33
s38.5 53 38.5 93v55zM342.999 329.002c0 34 -8.3291 58.6641 -24.9961 73.9971s-45.667 23 -87 23c-62 0 -94.667 -32.667 -98 -98l-82 5c5.33301 54 23.5 93.667 54.5 119s73.167 38 126.5 38c20 0 41.333 -1.83301 64 -5.5s43.5 -10.834 62.5 -21.501
s34.833 -25.667 47.5 -45s19 -44.666 19 -75.999v-222c0 -23.333 3.66699 -38.166 11 -44.499s15.333 -9.5 24 -9.5c8 0 16.333 1.66699 25 5v-68c-8 -2 -16.333 -3.66699 -25 -5s-17.334 -2 -26.001 -2c-24.667 0 -43.334 5.33301 -56.001 16s-21.667 27.334 -27 50.001
c-44.667 -49.333 -101.334 -74 -170.001 -74c-21.333 0 -41.333 3.33301 -60 10s-34.834 16 -48.501 28s-24.5 26 -32.5 42s-12 33.333 -12 52c0 32.667 7.16699 59.334 21.5 80.001s35 37 62 49s60 20.667 99 26s83.167 9.33301 132.5 12v42zM114.003 713.999h108l89 -141
h-67z" />
    <glyph glyph-name="aacute" unicode="&#xe1;" horiz-adv-x="500" 
d="M343 233c-33.333 -4.66699 -64.001 -9.49805 -92.001 -14.498s-52 -11.333 -72 -19s-35.5 -17.334 -46.5 -29.001s-16.5 -26.834 -16.5 -45.501c0 -14.667 3 -26.667 9 -36s13.5 -16.833 22.5 -22.5s18.833 -9.5 29.5 -11.5s21 -3 31 -3c38.667 0 70.834 11 96.501 33
s38.5 53 38.5 93v55zM342.999 329.002c0 34 -8.3291 58.6641 -24.9961 73.9971s-45.667 23 -87 23c-62 0 -94.667 -32.667 -98 -98l-82 5c5.33301 54 23.5 93.667 54.5 119s73.167 38 126.5 38c20 0 41.333 -1.83301 64 -5.5s43.5 -10.834 62.5 -21.501
s34.833 -25.667 47.5 -45s19 -44.666 19 -75.999v-222c0 -23.333 3.66699 -38.166 11 -44.499s15.333 -9.5 24 -9.5c8 0 16.333 1.66699 25 5v-68c-8 -2 -16.333 -3.66699 -25 -5s-17.334 -2 -26.001 -2c-24.667 0 -43.334 5.33301 -56.001 16s-21.667 27.334 -27 50.001
c-44.667 -49.333 -101.334 -74 -170.001 -74c-21.333 0 -41.333 3.33301 -60 10s-34.834 16 -48.501 28s-24.5 26 -32.5 42s-12 33.333 -12 52c0 32.667 7.16699 59.334 21.5 80.001s35 37 62 49s60 20.667 99 26s83.167 9.33301 132.5 12v42zM278.003 713.999h108
l-130 -141h-67z" />
    <glyph glyph-name="acircumflex" unicode="&#xe2;" horiz-adv-x="500" 
d="M343 233c-33.333 -4.66699 -64.001 -9.49805 -92.001 -14.498s-52 -11.333 -72 -19s-35.5 -17.334 -46.5 -29.001s-16.5 -26.834 -16.5 -45.501c0 -14.667 3 -26.667 9 -36s13.5 -16.833 22.5 -22.5s18.833 -9.5 29.5 -11.5s21 -3 31 -3c38.667 0 70.834 11 96.501 33
s38.5 53 38.5 93v55zM342.999 329.002c0 34 -8.3291 58.6641 -24.9961 73.9971s-45.667 23 -87 23c-62 0 -94.667 -32.667 -98 -98l-82 5c5.33301 54 23.5 93.667 54.5 119s73.167 38 126.5 38c20 0 41.333 -1.83301 64 -5.5s43.5 -10.834 62.5 -21.501
s34.833 -25.667 47.5 -45s19 -44.666 19 -75.999v-222c0 -23.333 3.66699 -38.166 11 -44.499s15.333 -9.5 24 -9.5c8 0 16.333 1.66699 25 5v-68c-8 -2 -16.333 -3.66699 -25 -5s-17.334 -2 -26.001 -2c-24.667 0 -43.334 5.33301 -56.001 16s-21.667 27.334 -27 50.001
c-44.667 -49.333 -101.334 -74 -170.001 -74c-21.333 0 -41.333 3.33301 -60 10s-34.834 16 -48.501 28s-24.5 26 -32.5 42s-12 33.333 -12 52c0 32.667 7.16699 59.334 21.5 80.001s35 37 62 49s60 20.667 99 26s83.167 9.33301 132.5 12v42zM203.003 713.999h92l101 -141
h-81l-66 95l-66 -95h-79z" />
    <glyph glyph-name="atilde" unicode="&#xe3;" horiz-adv-x="500" 
d="M343 233c-33.333 -4.66699 -64.001 -9.49805 -92.001 -14.498s-52 -11.333 -72 -19s-35.5 -17.334 -46.5 -29.001s-16.5 -26.834 -16.5 -45.501c0 -14.667 3 -26.667 9 -36s13.5 -16.833 22.5 -22.5s18.833 -9.5 29.5 -11.5s21 -3 31 -3c38.667 0 70.834 11 96.501 33
s38.5 53 38.5 93v55zM342.999 329.002c0 34 -8.3291 58.6641 -24.9961 73.9971s-45.667 23 -87 23c-62 0 -94.667 -32.667 -98 -98l-82 5c5.33301 54 23.5 93.667 54.5 119s73.167 38 126.5 38c20 0 41.333 -1.83301 64 -5.5s43.5 -10.834 62.5 -21.501
s34.833 -25.667 47.5 -45s19 -44.666 19 -75.999v-222c0 -23.333 3.66699 -38.166 11 -44.499s15.333 -9.5 24 -9.5c8 0 16.333 1.66699 25 5v-68c-8 -2 -16.333 -3.66699 -25 -5s-17.334 -2 -26.001 -2c-24.667 0 -43.334 5.33301 -56.001 16s-21.667 27.334 -27 50.001
c-44.667 -49.333 -101.334 -74 -170.001 -74c-21.333 0 -41.333 3.33301 -60 10s-34.834 16 -48.501 28s-24.5 26 -32.5 42s-12 33.333 -12 52c0 32.667 7.16699 59.334 21.5 80.001s35 37 62 49s60 20.667 99 26s83.167 9.33301 132.5 12v42zM80.0029 581.999
c2.66699 30 12.6689 55.502 30.002 76.502s42 31.5 74 31.5c13.333 0 26.333 -1.83301 39 -5.5s24.667 -7.83398 36 -12.501c11.333 -5.33301 22.166 -9.83301 32.499 -13.5s19.166 -5.5 26.499 -5.5c15.333 0 28.166 3.66699 38.499 11s15.5 18.666 15.5 33.999h48
c-2 -14 -5.5 -27.5 -10.5 -40.5s-11.833 -24.667 -20.5 -35s-19.167 -18.5 -31.5 -24.5s-26.166 -9 -41.499 -9c-10 0 -21.5 2 -34.5 6s-26.167 8.66699 -39.5 14c-13.333 4.66699 -26 8.66699 -38 12s-22.667 5 -32 5c-11.333 0 -21.5 -4.66699 -30.5 -14
s-13.5 -19.333 -13.5 -30h-48z" />
    <glyph glyph-name="adieresis" unicode="&#xe4;" horiz-adv-x="500" 
d="M343 233c-33.333 -4.66699 -64.001 -9.49805 -92.001 -14.498s-52 -11.333 -72 -19s-35.5 -17.334 -46.5 -29.001s-16.5 -26.834 -16.5 -45.501c0 -14.667 3 -26.667 9 -36s13.5 -16.833 22.5 -22.5s18.833 -9.5 29.5 -11.5s21 -3 31 -3c38.667 0 70.834 11 96.501 33
s38.5 53 38.5 93v55zM342.999 329.002c0 34 -8.3291 58.6641 -24.9961 73.9971s-45.667 23 -87 23c-62 0 -94.667 -32.667 -98 -98l-82 5c5.33301 54 23.5 93.667 54.5 119s73.167 38 126.5 38c20 0 41.333 -1.83301 64 -5.5s43.5 -10.834 62.5 -21.501
s34.833 -25.667 47.5 -45s19 -44.666 19 -75.999v-222c0 -23.333 3.66699 -38.166 11 -44.499s15.333 -9.5 24 -9.5c8 0 16.333 1.66699 25 5v-68c-8 -2 -16.333 -3.66699 -25 -5s-17.334 -2 -26.001 -2c-24.667 0 -43.334 5.33301 -56.001 16s-21.667 27.334 -27 50.001
c-44.667 -49.333 -101.334 -74 -170.001 -74c-21.333 0 -41.333 3.33301 -60 10s-34.834 16 -48.501 28s-24.5 26 -32.5 42s-12 33.333 -12 52c0 32.667 7.16699 59.334 21.5 80.001s35 37 62 49s60 20.667 99 26s83.167 9.33301 132.5 12v42zM126.003 686.999h88v-100h-88
v100zM286.003 686.999h88v-100h-88v100z" />
    <glyph glyph-name="aring" unicode="&#xe5;" horiz-adv-x="500" 
d="M343 233c-33.333 -4.66699 -64.001 -9.49805 -92.001 -14.498s-52 -11.333 -72 -19s-35.5 -17.334 -46.5 -29.001s-16.5 -26.834 -16.5 -45.501c0 -14.667 3 -26.667 9 -36s13.5 -16.833 22.5 -22.5s18.833 -9.5 29.5 -11.5s21 -3 31 -3c38.667 0 70.834 11 96.501 33
s38.5 53 38.5 93v55zM342.999 329.002c0 34 -8.3291 58.6641 -24.9961 73.9971s-45.667 23 -87 23c-62 0 -94.667 -32.667 -98 -98l-82 5c5.33301 54 23.5 93.667 54.5 119s73.167 38 126.5 38c20 0 41.333 -1.83301 64 -5.5s43.5 -10.834 62.5 -21.501
s34.833 -25.667 47.5 -45s19 -44.666 19 -75.999v-222c0 -23.333 3.66699 -38.166 11 -44.499s15.333 -9.5 24 -9.5c8 0 16.333 1.66699 25 5v-68c-8 -2 -16.333 -3.66699 -25 -5s-17.334 -2 -26.001 -2c-24.667 0 -43.334 5.33301 -56.001 16s-21.667 27.334 -27 50.001
c-44.667 -49.333 -101.334 -74 -170.001 -74c-21.333 0 -41.333 3.33301 -60 10s-34.834 16 -48.501 28s-24.5 26 -32.5 42s-12 33.333 -12 52c0 32.667 7.16699 59.334 21.5 80.001s35 37 62 49s60 20.667 99 26s83.167 9.33301 132.5 12v42zM148.003 657.999
c0 14 2.66699 27.167 8 39.5s12.666 23.166 21.999 32.499s20.166 16.666 32.499 21.999s25.5 8 39.5 8s27.167 -2.66699 39.5 -8s23.166 -12.666 32.499 -21.999s16.666 -20.166 21.999 -32.499s8 -25.5 8 -39.5s-2.66699 -27.167 -8 -39.5
s-12.666 -23.166 -21.999 -32.499s-20.166 -16.666 -32.499 -21.999s-25.5 -8 -39.5 -8s-27.167 2.66699 -39.5 8s-23.166 12.666 -32.499 21.999s-16.666 20.166 -21.999 32.499s-8 25.5 -8 39.5zM188.003 657.999c0 -16 6.16699 -30.333 18.5 -43s26.833 -19 43.5 -19
s31.167 6.33301 43.5 19s18.5 27 18.5 43s-6.16699 30.333 -18.5 43s-26.833 19 -43.5 19s-31.167 -6.33301 -43.5 -19s-18.5 -27 -18.5 -43z" />
    <glyph glyph-name="ae" unicode="&#xe6;" horiz-adv-x="815" 
d="M693 279c-2 18.667 -6.33398 36.834 -13.001 54.501s-15.5 33.334 -26.5 47.001s-24.333 24.667 -40 33s-33.5 12.5 -53.5 12.5c-19.333 0 -36.666 -4.33301 -51.999 -13s-28.5 -19.834 -39.5 -33.501s-19.333 -29.334 -25 -47.001s-8.16699 -35.5 -7.5 -53.5h257z
M772.999 142c-6 -25.333 -16.1689 -47.5039 -30.502 -66.5039s-31 -35 -50 -48s-40 -22.833 -63 -29.5s-46.167 -10 -69.5 -10c-30 0 -55.5 4.16699 -76.5 12.5s-38.5 18 -52.5 29s-25 21.667 -33 32s-13.333 17.5 -16 21.5c-16 -18 -31.167 -33 -45.5 -45
s-29.166 -21.667 -44.499 -29s-31.833 -12.666 -49.5 -15.999s-37.834 -5 -60.501 -5c-21.333 0 -41.333 3.33301 -60 10s-35 15.834 -49 27.501s-25 25.167 -33 40.5s-12 31.666 -12 48.999c0 30.667 6 56.5 18 77.5s29.333 38 52 51s50 22.167 82 27.5s68 8 108 8h66
c0 20 -2 38.833 -6 56.5s-10.333 33.334 -19 47.001s-20.167 24.334 -34.5 32.001s-31.833 11.5 -52.5 11.5c-34.667 0 -60.334 -7.5 -77.001 -22.5s-27.334 -40.167 -32.001 -75.5l-82 5c18 104.667 78.333 157 181 157c34.667 0 66.334 -6.16699 95.001 -18.5
s51.667 -34.5 69 -66.5c21.333 30 45.333 51.667 72 65s56.667 20 90 20c38 0 70.833 -7.16699 98.5 -21.5s50.834 -34 69.501 -59s32.5 -54.167 41.5 -87.5s13.5 -69 13.5 -107h-345c0 -20.667 2.66699 -40.667 8 -60s13.5 -36.5 24.5 -51.5s24.833 -27.167 41.5 -36.5
s36.334 -14.333 59.001 -15c32.667 0 59.334 9.33301 80.001 28s34.667 43.334 42 74.001zM298.997 214.996c-16 0 -34.499 -0.666992 -55.499 -2s-41 -5 -60 -11s-35 -15 -48 -27s-19.5 -28.667 -19.5 -50c0 -14.667 3 -26.5 9 -35.5s13.5 -16.167 22.5 -21.5
s18.833 -9 29.5 -11s21 -3 31 -3c24 0 45.167 4.66699 63.5 14s33.666 21.5 45.999 36.5s21.5 32.167 27.5 51.5s9 39 9 59h-55z" />
    <glyph glyph-name="ccedilla" unicode="&#xe7;" horiz-adv-x="519" 
d="M243 -10c-68 6 -119.831 31.1641 -155.498 75.4971s-53.5 100.5 -53.5 168.5c0 36.667 5.16699 70.667 15.5 102s25.5 58.5 45.5 81.5s44.667 40.833 74 53.5s63.333 19 102 19c24.667 0 48.834 -3.33301 72.501 -10s45 -16.667 64 -30s35.333 -30 49 -50
s23.5 -43.667 29.5 -71l-88 -9c-6 32.667 -20.333 58.5 -43 77.5s-50.667 28.5 -84 28.5c-29.333 0 -53.5 -5.66699 -72.5 -17s-34.167 -26 -45.5 -44s-19.333 -38.167 -24 -60.5s-7 -44.5 -7 -66.5c0 -23.333 2.66699 -46.166 8 -68.499s13.666 -42.166 24.999 -59.499
s26.333 -31.333 45 -42s41.667 -16 69 -16c40.667 0 73.334 11.333 98.001 34s37.667 54.334 39 95.001l88 -7c-6.66699 -55.333 -28.334 -99.166 -65.001 -131.499s-83 -50.166 -139 -53.499l-38 -51h2c4 1.33301 8.66699 2.33301 14 3s10.666 1 15.999 1
c22.667 0 42.167 -6.33301 58.5 -19s24.5 -31 24.5 -55c0 -16.667 -4 -31.167 -12 -43.5s-18.333 -22.333 -31 -30s-26.834 -13.167 -42.501 -16.5s-30.834 -4 -45.501 -2c-14 2 -28 4.66699 -42 8s-27.667 7.66602 -41 12.999l17 40
c11.333 -4.66699 22 -8.33398 32 -11.001s21 -4 33 -4c12.667 0 25.167 2.83301 37.5 8.5s18.5 16.167 18.5 31.5c0 14 -4.66699 24.167 -14 30.5s-20.666 9.5 -33.999 9.5c-6.66699 0 -13.167 -0.666992 -19.5 -2s-12.833 -3 -19.5 -5l-17 19z" />
    <glyph glyph-name="egrave" unicode="&#xe8;" horiz-adv-x="519" 
d="M122 221c0 -24 3.16406 -46.166 9.49707 -66.499s15.5 -38.166 27.5 -53.499s27 -27.333 45 -36s38.667 -13 62 -13c71.333 0 116 35.667 134 107l81 -10c-15.333 -54 -42.166 -94.333 -80.499 -121s-84.166 -40 -137.499 -40c-36.667 -0.666992 -69.167 5.5 -97.5 18.5
s-52.333 30.667 -72 53s-34.5 48.666 -44.5 78.999s-15 62.5 -15 96.5c0 38.667 4.66699 73.667 14 105s23.333 58.166 42 80.499s42.334 39.5 71.001 51.5s62.334 18 101.001 18c37.333 0 70 -6.33301 98 -19s51.167 -30.334 69.5 -53.001s32.166 -49.167 41.499 -79.5
s14 -63.166 14 -98.499v-19h-363zM396.997 285.001c-2.66699 19.333 -7.33301 37.667 -14 55s-16 32.333 -28 45s-26.333 22.667 -43 30s-36.334 11 -59.001 11c-20 0 -37.833 -4 -53.5 -12s-29 -18.5 -40 -31.5s-19.667 -28 -26 -45s-10.166 -34.5 -11.499 -52.5h275z
M123.998 714.002h108l89 -141h-67z" />
    <glyph glyph-name="eacute" unicode="&#xe9;" horiz-adv-x="519" 
d="M122 221c0 -24 3.16406 -46.166 9.49707 -66.499s15.5 -38.166 27.5 -53.499s27 -27.333 45 -36s38.667 -13 62 -13c71.333 0 116 35.667 134 107l81 -10c-15.333 -54 -42.166 -94.333 -80.499 -121s-84.166 -40 -137.499 -40c-36.667 -0.666992 -69.167 5.5 -97.5 18.5
s-52.333 30.667 -72 53s-34.5 48.666 -44.5 78.999s-15 62.5 -15 96.5c0 38.667 4.66699 73.667 14 105s23.333 58.166 42 80.499s42.334 39.5 71.001 51.5s62.334 18 101.001 18c37.333 0 70 -6.33301 98 -19s51.167 -30.334 69.5 -53.001s32.166 -49.167 41.499 -79.5
s14 -63.166 14 -98.499v-19h-363zM396.997 285.001c-2.66699 19.333 -7.33301 37.667 -14 55s-16 32.333 -28 45s-26.333 22.667 -43 30s-36.334 11 -59.001 11c-20 0 -37.833 -4 -53.5 -12s-29 -18.5 -40 -31.5s-19.667 -28 -26 -45s-10.166 -34.5 -11.499 -52.5h275z
M287.998 714.002h108l-130 -141h-67z" />
    <glyph glyph-name="ecircumflex" unicode="&#xea;" horiz-adv-x="519" 
d="M122 221c0 -24 3.16406 -46.166 9.49707 -66.499s15.5 -38.166 27.5 -53.499s27 -27.333 45 -36s38.667 -13 62 -13c71.333 0 116 35.667 134 107l81 -10c-15.333 -54 -42.166 -94.333 -80.499 -121s-84.166 -40 -137.499 -40c-36.667 -0.666992 -69.167 5.5 -97.5 18.5
s-52.333 30.667 -72 53s-34.5 48.666 -44.5 78.999s-15 62.5 -15 96.5c0 38.667 4.66699 73.667 14 105s23.333 58.166 42 80.499s42.334 39.5 71.001 51.5s62.334 18 101.001 18c37.333 0 70 -6.33301 98 -19s51.167 -30.334 69.5 -53.001s32.166 -49.167 41.499 -79.5
s14 -63.166 14 -98.499v-19h-363zM396.997 285.001c-2.66699 19.333 -7.33301 37.667 -14 55s-16 32.333 -28 45s-26.333 22.667 -43 30s-36.334 11 -59.001 11c-20 0 -37.833 -4 -53.5 -12s-29 -18.5 -40 -31.5s-19.667 -28 -26 -45s-10.166 -34.5 -11.499 -52.5h275z
M212.998 714.002h92l101 -141h-81l-66 95l-66 -95h-79z" />
    <glyph glyph-name="edieresis" unicode="&#xeb;" horiz-adv-x="519" 
d="M122 221c0 -24 3.16406 -46.166 9.49707 -66.499s15.5 -38.166 27.5 -53.499s27 -27.333 45 -36s38.667 -13 62 -13c71.333 0 116 35.667 134 107l81 -10c-15.333 -54 -42.166 -94.333 -80.499 -121s-84.166 -40 -137.499 -40c-36.667 -0.666992 -69.167 5.5 -97.5 18.5
s-52.333 30.667 -72 53s-34.5 48.666 -44.5 78.999s-15 62.5 -15 96.5c0 38.667 4.66699 73.667 14 105s23.333 58.166 42 80.499s42.334 39.5 71.001 51.5s62.334 18 101.001 18c37.333 0 70 -6.33301 98 -19s51.167 -30.334 69.5 -53.001s32.166 -49.167 41.499 -79.5
s14 -63.166 14 -98.499v-19h-363zM396.997 285.001c-2.66699 19.333 -7.33301 37.667 -14 55s-16 32.333 -28 45s-26.333 22.667 -43 30s-36.334 11 -59.001 11c-20 0 -37.833 -4 -53.5 -12s-29 -18.5 -40 -31.5s-19.667 -28 -26 -45s-10.166 -34.5 -11.499 -52.5h275z
M135.998 687.002h88v-100h-88v100zM295.998 687.002h88v-100h-88v100z" />
    <glyph glyph-name="igrave" unicode="&#xec;" horiz-adv-x="204" 
d="M61 478h82v-478h-82v478zM-34 714h108l89 -141h-67z" />
    <glyph glyph-name="iacute" unicode="&#xed;" horiz-adv-x="204" 
d="M61 478h82v-478h-82v478zM130 714h108l-130 -141h-67z" />
    <glyph glyph-name="icircumflex" unicode="&#xee;" horiz-adv-x="204" 
d="M61 478h82v-478h-82v478zM55 714h92l101 -141h-81l-66 95l-66 -95h-79z" />
    <glyph glyph-name="idieresis" unicode="&#xef;" horiz-adv-x="204" 
d="M61 478h82v-478h-82v478zM-22 687h88v-100h-88v100zM138 687h88v-100h-88v100z" />
    <glyph glyph-name="eth" unicode="&#xf0;" horiz-adv-x="536" 
d="M110 576l97.001 53.999c-9.33301 9.33301 -21.5 18.166 -36.5 26.499l-42.5 23.5l64 50c13.333 -6.66699 28 -15 44 -25s31.667 -20.667 47 -32l101 57l34 -34l-95 -54c62.667 -52.667 108.167 -111.5 136.5 -176.5s42.5 -130.167 42.5 -195.5
c0 -39.333 -4.66699 -76.166 -14 -110.499s-23.5 -64.166 -42.5 -89.499s-43.167 -45.333 -72.5 -60s-64.333 -22 -105 -22c-36.667 0 -69.5 6.33301 -98.5 19s-53.5 30.167 -73.5 52.5s-35.333 48.833 -46 79.5s-16 64 -16 100s5.33301 69.333 16 100s26 57.167 46 79.5
s44.5 39.833 73.5 52.5s61.833 19 98.5 19c19.333 0 38.666 -4.33301 57.999 -13s35 -19.667 47 -33v3c-13.333 30.667 -31 59.5 -53 86.5s-45.667 49.5 -71 67.5l-105 -59zM122.001 238.999c0 -20 2 -40.833 6 -62.5s11.5 -41.834 22.5 -60.501s26 -34 45 -46
s43.167 -18 72.5 -18s53.5 6 72.5 18s34 27.333 45 46s18.5 38.834 22.5 60.501s6 42.5 6 62.5s-2 40.833 -6 62.5s-11.5 41.834 -22.5 60.501s-26 34 -45 46s-43.167 18 -72.5 18s-53.5 -6 -72.5 -18s-34 -27.333 -45 -46s-18.5 -38.834 -22.5 -60.501s-6 -42.5 -6 -62.5z
" />
    <glyph glyph-name="ntilde" unicode="&#xf1;" horiz-adv-x="519" 
d="M63 478l82.002 0.000976562v-64h2c15.333 24 34.666 42.667 57.999 56s50.666 20 81.999 20c24 0 46.333 -2.83301 67 -8.5s38.5 -15.334 53.5 -29.001s26.833 -31.667 35.5 -54s13 -50.166 13 -83.499v-315h-82v307c0 20.667 -2.5 37.834 -7.5 51.501s-12 24.667 -21 33
s-19.667 14.166 -32 17.499s-25.833 5 -40.5 5c-38 0 -68.833 -11.333 -92.5 -34s-35.5 -53.334 -35.5 -92.001v-288h-82v478zM90.002 582.001c2.66699 30 12.6689 55.502 30.002 76.502s42 31.5 74 31.5c13.333 0 26.333 -1.83301 39 -5.5s24.667 -7.83398 36 -12.501
c11.333 -5.33301 22.166 -9.83301 32.499 -13.5s19.166 -5.5 26.499 -5.5c15.333 0 28.166 3.66699 38.499 11s15.5 18.666 15.5 33.999h48c-2 -14 -5.5 -27.5 -10.5 -40.5s-11.833 -24.667 -20.5 -35s-19.167 -18.5 -31.5 -24.5s-26.166 -9 -41.499 -9
c-10 0 -21.5 2 -34.5 6s-26.167 8.66699 -39.5 14c-13.333 4.66699 -26 8.66699 -38 12s-22.667 5 -32 5c-11.333 0 -21.5 -4.66699 -30.5 -14s-13.5 -19.333 -13.5 -30h-48z" />
    <glyph glyph-name="ograve" unicode="&#xf2;" horiz-adv-x="536" 
d="M34 239c0 36 5.33301 69.333 16 100s26 57.167 46 79.5s44.5 39.833 73.5 52.5s61.833 19 98.5 19s69.5 -6.33301 98.5 -19s53.5 -30.167 73.5 -52.5s35.333 -48.833 46 -79.5s16 -64 16 -100s-5.33301 -69.333 -16 -100s-26 -57.167 -46 -79.5
s-44.5 -39.833 -73.5 -52.5s-61.833 -19 -98.5 -19s-69.5 6.33301 -98.5 19s-53.5 30.167 -73.5 52.5s-35.333 48.833 -46 79.5s-16 64 -16 100zM122 239c0 -20 2 -40.833 6 -62.5s11.5 -41.834 22.5 -60.501s26 -34 45 -46s43.167 -18 72.5 -18s53.5 6 72.5 18
s34 27.333 45 46s18.5 38.834 22.5 60.501s6 42.5 6 62.5s-2 40.833 -6 62.5s-11.5 41.834 -22.5 60.501s-26 34 -45 46s-43.167 18 -72.5 18s-53.5 -6 -72.5 -18s-34 -27.333 -45 -46s-18.5 -38.834 -22.5 -60.501s-6 -42.5 -6 -62.5zM132 714h108l89 -141h-67z" />
    <glyph glyph-name="oacute" unicode="&#xf3;" horiz-adv-x="536" 
d="M34 239c0 36 5.33301 69.333 16 100s26 57.167 46 79.5s44.5 39.833 73.5 52.5s61.833 19 98.5 19s69.5 -6.33301 98.5 -19s53.5 -30.167 73.5 -52.5s35.333 -48.833 46 -79.5s16 -64 16 -100s-5.33301 -69.333 -16 -100s-26 -57.167 -46 -79.5
s-44.5 -39.833 -73.5 -52.5s-61.833 -19 -98.5 -19s-69.5 6.33301 -98.5 19s-53.5 30.167 -73.5 52.5s-35.333 48.833 -46 79.5s-16 64 -16 100zM122 239c0 -20 2 -40.833 6 -62.5s11.5 -41.834 22.5 -60.501s26 -34 45 -46s43.167 -18 72.5 -18s53.5 6 72.5 18
s34 27.333 45 46s18.5 38.834 22.5 60.501s6 42.5 6 62.5s-2 40.833 -6 62.5s-11.5 41.834 -22.5 60.501s-26 34 -45 46s-43.167 18 -72.5 18s-53.5 -6 -72.5 -18s-34 -27.333 -45 -46s-18.5 -38.834 -22.5 -60.501s-6 -42.5 -6 -62.5zM296 714h108l-130 -141h-67z" />
    <glyph glyph-name="ocircumflex" unicode="&#xf4;" horiz-adv-x="536" 
d="M34 239c0 36 5.33301 69.333 16 100s26 57.167 46 79.5s44.5 39.833 73.5 52.5s61.833 19 98.5 19s69.5 -6.33301 98.5 -19s53.5 -30.167 73.5 -52.5s35.333 -48.833 46 -79.5s16 -64 16 -100s-5.33301 -69.333 -16 -100s-26 -57.167 -46 -79.5
s-44.5 -39.833 -73.5 -52.5s-61.833 -19 -98.5 -19s-69.5 6.33301 -98.5 19s-53.5 30.167 -73.5 52.5s-35.333 48.833 -46 79.5s-16 64 -16 100zM122 239c0 -20 2 -40.833 6 -62.5s11.5 -41.834 22.5 -60.501s26 -34 45 -46s43.167 -18 72.5 -18s53.5 6 72.5 18
s34 27.333 45 46s18.5 38.834 22.5 60.501s6 42.5 6 62.5s-2 40.833 -6 62.5s-11.5 41.834 -22.5 60.501s-26 34 -45 46s-43.167 18 -72.5 18s-53.5 -6 -72.5 -18s-34 -27.333 -45 -46s-18.5 -38.834 -22.5 -60.501s-6 -42.5 -6 -62.5zM221 714h92l101 -141h-81l-66 95
l-66 -95h-79z" />
    <glyph glyph-name="otilde" unicode="&#xf5;" horiz-adv-x="536" 
d="M34 239c0 36 5.33301 69.333 16 100s26 57.167 46 79.5s44.5 39.833 73.5 52.5s61.833 19 98.5 19s69.5 -6.33301 98.5 -19s53.5 -30.167 73.5 -52.5s35.333 -48.833 46 -79.5s16 -64 16 -100s-5.33301 -69.333 -16 -100s-26 -57.167 -46 -79.5
s-44.5 -39.833 -73.5 -52.5s-61.833 -19 -98.5 -19s-69.5 6.33301 -98.5 19s-53.5 30.167 -73.5 52.5s-35.333 48.833 -46 79.5s-16 64 -16 100zM122 239c0 -20 2 -40.833 6 -62.5s11.5 -41.834 22.5 -60.501s26 -34 45 -46s43.167 -18 72.5 -18s53.5 6 72.5 18
s34 27.333 45 46s18.5 38.834 22.5 60.501s6 42.5 6 62.5s-2 40.833 -6 62.5s-11.5 41.834 -22.5 60.501s-26 34 -45 46s-43.167 18 -72.5 18s-53.5 -6 -72.5 -18s-34 -27.333 -45 -46s-18.5 -38.834 -22.5 -60.501s-6 -42.5 -6 -62.5zM98 582
c2.66699 30 12.6689 55.502 30.002 76.502s42 31.5 74 31.5c13.333 0 26.333 -1.83301 39 -5.5s24.667 -7.83398 36 -12.501c11.333 -5.33301 22.166 -9.83301 32.499 -13.5s19.166 -5.5 26.499 -5.5c15.333 0 28.166 3.66699 38.499 11s15.5 18.666 15.5 33.999h48
c-2 -14 -5.5 -27.5 -10.5 -40.5s-11.833 -24.667 -20.5 -35s-19.167 -18.5 -31.5 -24.5s-26.166 -9 -41.499 -9c-10 0 -21.5 2 -34.5 6s-26.167 8.66699 -39.5 14c-13.333 4.66699 -26 8.66699 -38 12s-22.667 5 -32 5c-11.333 0 -21.5 -4.66699 -30.5 -14
s-13.5 -19.333 -13.5 -30h-48z" />
    <glyph glyph-name="odieresis" unicode="&#xf6;" horiz-adv-x="536" 
d="M34 239c0 36 5.33301 69.333 16 100s26 57.167 46 79.5s44.5 39.833 73.5 52.5s61.833 19 98.5 19s69.5 -6.33301 98.5 -19s53.5 -30.167 73.5 -52.5s35.333 -48.833 46 -79.5s16 -64 16 -100s-5.33301 -69.333 -16 -100s-26 -57.167 -46 -79.5
s-44.5 -39.833 -73.5 -52.5s-61.833 -19 -98.5 -19s-69.5 6.33301 -98.5 19s-53.5 30.167 -73.5 52.5s-35.333 48.833 -46 79.5s-16 64 -16 100zM122 239c0 -20 2 -40.833 6 -62.5s11.5 -41.834 22.5 -60.501s26 -34 45 -46s43.167 -18 72.5 -18s53.5 6 72.5 18
s34 27.333 45 46s18.5 38.834 22.5 60.501s6 42.5 6 62.5s-2 40.833 -6 62.5s-11.5 41.834 -22.5 60.501s-26 34 -45 46s-43.167 18 -72.5 18s-53.5 -6 -72.5 -18s-34 -27.333 -45 -46s-18.5 -38.834 -22.5 -60.501s-6 -42.5 -6 -62.5zM144 687h88v-100h-88v100zM304 687h88
v-100h-88v100z" />
    <glyph glyph-name="divide" unicode="&#xf7;" horiz-adv-x="600" 
d="M47 288h506v-70h-506v70zM240 458c0 16.667 5.99902 30.832 17.999 42.499s26 17.5 42 17.5s30 -6 42 -18s18 -26 18 -42c0 -7.33301 -1.66699 -14.666 -5 -21.999s-7.66602 -13.833 -12.999 -19.5s-11.5 -10.167 -18.5 -13.5s-14.5 -5 -22.5 -5c-16.667 0 -31 6 -43 18
s-18 26 -18 42zM239.999 47.998c0 16.667 5.99902 30.832 17.999 42.499s26 17.5 42 17.5s30 -6 42 -18s18 -26 18 -42c0 -7.33301 -1.66699 -14.666 -5 -21.999s-7.66602 -13.833 -12.999 -19.5s-11.5 -10.167 -18.5 -13.5s-14.5 -5 -22.5 -5c-16.667 0 -31 6 -43 18
s-18 26 -18 42z" />
    <glyph glyph-name="oslash" unicode="&#xf8;" horiz-adv-x="537" 
d="M371 382c-11.333 13.333 -25.333 24.001 -42 32.001s-37 12 -61 12c-29.333 0 -53.5 -6 -72.5 -18s-34 -27.333 -45 -46s-18.5 -38.834 -22.5 -60.501s-6 -42.5 -6 -62.5c0 -14 0.833008 -28.5 2.5 -43.5s5.16699 -29.5 10.5 -43.5zM160 103.001
c10.667 -15.333 24.833 -27.668 42.5 -37.001s39.5 -14 65.5 -14c29.333 0 53.5 6 72.5 18s34 27.333 45 46s18.5 38.834 22.5 60.501s6 42.5 6 62.5c0 15.333 -1.16699 31.333 -3.5 48s-6.5 33 -12.5 49zM72.999 90.999c-26 41.333 -38.999 90.667 -38.999 148
c0 36 5.33301 69.333 16 100s26 57.167 46 79.5s44.5 39.833 73.5 52.5s61.833 19 98.5 19c32.667 0 62.167 -5 88.5 -15s49.166 -23.667 68.499 -41l44 43l37 -35l-48 -47c29.333 -42.667 44 -94.667 44 -156c0 -36 -5.33301 -69.333 -16 -100s-26 -57.167 -46 -79.5
s-44.5 -39.833 -73.5 -52.5s-61.833 -19 -98.5 -19c-34 0 -64.5 5.5 -91.5 16.5s-50.833 26.167 -71.5 45.5l-39 -38l-35 38z" />
    <glyph glyph-name="ugrave" unicode="&#xf9;" horiz-adv-x="519" 
d="M456 0l-82.002 -0.000976562v64h-2c-15.333 -24 -34.666 -42.667 -57.999 -56s-50.666 -20 -81.999 -20c-24 0 -46.333 2.83301 -67 8.5s-38.5 15.334 -53.5 29.001s-26.833 31.667 -35.5 54s-13 50.166 -13 83.499v315h82v-315c0 -34 9.33301 -59 28 -75s43 -24 73 -24
c38 0 68.833 11.333 92.5 34s35.5 53.334 35.5 92.001v288h82v-478zM123.998 713.999h108l89 -141h-67z" />
    <glyph glyph-name="uacute" unicode="&#xfa;" horiz-adv-x="519" 
d="M456 0l-82.002 -0.000976562v64h-2c-15.333 -24 -34.666 -42.667 -57.999 -56s-50.666 -20 -81.999 -20c-24 0 -46.333 2.83301 -67 8.5s-38.5 15.334 -53.5 29.001s-26.833 31.667 -35.5 54s-13 50.166 -13 83.499v315h82v-315c0 -34 9.33301 -59 28 -75s43 -24 73 -24
c38 0 68.833 11.333 92.5 34s35.5 53.334 35.5 92.001v288h82v-478zM287.998 713.999h108l-130 -141h-67z" />
    <glyph glyph-name="ucircumflex" unicode="&#xfb;" horiz-adv-x="519" 
d="M456 0l-82.002 -0.000976562v64h-2c-15.333 -24 -34.666 -42.667 -57.999 -56s-50.666 -20 -81.999 -20c-24 0 -46.333 2.83301 -67 8.5s-38.5 15.334 -53.5 29.001s-26.833 31.667 -35.5 54s-13 50.166 -13 83.499v315h82v-315c0 -34 9.33301 -59 28 -75s43 -24 73 -24
c38 0 68.833 11.333 92.5 34s35.5 53.334 35.5 92.001v288h82v-478zM212.998 713.999h92l101 -141h-81l-66 95l-66 -95h-79z" />
    <glyph glyph-name="udieresis" unicode="&#xfc;" horiz-adv-x="519" 
d="M456 0l-82.002 -0.000976562v64h-2c-15.333 -24 -34.666 -42.667 -57.999 -56s-50.666 -20 -81.999 -20c-24 0 -46.333 2.83301 -67 8.5s-38.5 15.334 -53.5 29.001s-26.833 31.667 -35.5 54s-13 50.166 -13 83.499v315h82v-315c0 -34 9.33301 -59 28 -75s43 -24 73 -24
c38 0 68.833 11.333 92.5 34s35.5 53.334 35.5 92.001v288h82v-478zM135.998 686.999h88v-100h-88v100zM295.998 686.999h88v-100h-88v100z" />
    <glyph glyph-name="yacute" unicode="&#xfd;" horiz-adv-x="444" 
d="M347 478l84.002 -0.000976562l-207 -583c-6 -17.333 -12.667 -34 -20 -50s-16.333 -30 -27 -42s-23.667 -21.5 -39 -28.5s-34 -10.5 -56 -10.5c-12 0 -24 1.5 -36 4.5s-23 6.16699 -33 9.5v71c5.33301 -1.33301 13.166 -3.16602 23.499 -5.49902s20.166 -3.5 29.499 -3.5
c17.333 0 32 4.33301 44 13s23 26.667 33 54l33 92l-161 479h87l118 -361h2zM250.002 713.999h108l-130 -141h-67z" />
    <glyph glyph-name="thorn" unicode="&#xfe;" 
d="M139 712l-0.000976562 -291.001h2h-1c16.667 22.667 38.167 39.834 64.5 51.501s53.833 17.5 82.5 17.5c46 0 84 -7 114 -21s54 -32.833 72 -56.5s30.667 -50.5 38 -80.5s11 -61 11 -93s-3.83301 -63 -11.5 -93s-20.5 -56.833 -38.5 -80.5s-41.5 -42.5 -70.5 -56.5
s-64.833 -21 -107.5 -21c-32 0 -61.167 6 -87.5 18s-48.166 30 -65.499 54h-2v-284h-82v936h82zM433.999 238.999c0 24 -2.83301 46.833 -8.5 68.5s-14.5 40.834 -26.5 57.501s-27.333 30 -46 40s-41.334 15 -68.001 15s-49.334 -5 -68.001 -15s-34 -23.333 -46 -40
s-20.833 -35.834 -26.5 -57.501s-8.5 -44.5 -8.5 -68.5s3.33301 -46.833 10 -68.5s16.334 -40.834 29.001 -57.501s28.167 -30 46.5 -40s39.5 -15 63.5 -15c26.667 0 49.334 5 68.001 15s34 23.333 46 40s20.833 35.834 26.5 57.501s8.5 44.5 8.5 68.5z" />
    <glyph glyph-name="ydieresis" unicode="&#xff;" horiz-adv-x="444" 
d="M347 478l84.002 -0.000976562l-207 -583c-6 -17.333 -12.667 -34 -20 -50s-16.333 -30 -27 -42s-23.667 -21.5 -39 -28.5s-34 -10.5 -56 -10.5c-12 0 -24 1.5 -36 4.5s-23 6.16699 -33 9.5v71c5.33301 -1.33301 13.166 -3.16602 23.499 -5.49902s20.166 -3.5 29.499 -3.5
c17.333 0 32 4.33301 44 13s23 26.667 33 54l33 92l-161 479h87l118 -361h2zM98.002 686.999h88v-100h-88v100zM258.002 686.999h88v-100h-88v100z" />
    <glyph glyph-name="OE" unicode="&#x152;" horiz-adv-x="1148" 
d="M618 79c-30 -32 -65.499 -56.167 -106.499 -72.5s-83.5 -24.5 -127.5 -24.5c-53.333 0 -100.666 9.66699 -141.999 29s-76.333 45.833 -105 79.5s-50.5 73.167 -65.5 118.5s-22.5 94.333 -22.5 147c0 49.333 7.33301 96.5 22 141.5s36.167 84.833 64.5 119.5
s63.5 62.167 105.5 82.5s90 30.5 144 30.5c43.333 0 85.666 -6.66699 126.999 -20s76.666 -36 105.999 -68v70h504v-82h-410v-220h330v-82h-330v-246h419v-82h-513v79zM151.001 356c0 -37.333 4.83203 -73.834 14.499 -109.501s24.5 -67.5 44.5 -95.5s45.333 -50.5 76 -67.5
s67 -25.5 109 -25.5c36 0 68 7.33301 96 22s51.333 35 70 61s32.834 57.333 42.501 94s14.5 77 14.5 121c0 36.667 -3.33301 72.834 -10 108.501s-18.5 67.5 -35.5 95.5s-39.833 50.667 -68.5 68s-65 26 -109 26c-42 0 -78.333 -8.5 -109 -25.5s-56 -39.5 -76 -67.5
s-34.833 -59.833 -44.5 -95.5s-14.5 -72.167 -14.5 -109.5z" />
    <glyph glyph-name="oe" unicode="&#x153;" horiz-adv-x="870" 
d="M829 142c-6 -25.333 -16.1699 -47.499 -30.5029 -66.499s-31 -35 -50 -48s-40 -22.833 -63 -29.5s-46.167 -10 -69.5 -10c-36.667 0 -71.167 7.5 -103.5 22.5s-58.166 38.167 -77.499 69.5c-17.333 -28.667 -40.666 -51.167 -69.999 -67.5s-64.666 -24.5 -105.999 -24.5
c-34 0 -65 6.33301 -93 19s-51.667 30.167 -71 52.5s-34.333 48.833 -45 79.5s-16 64 -16 100s5.33301 69.333 16 100s25.667 57.167 45 79.5s43 39.833 71 52.5s59 19 93 19c37.333 0 72.333 -6.66699 105 -20s57.334 -35.333 74.001 -66
c21.333 29.333 46.166 51 74.499 65s59.166 21 92.499 21c42 0 77.5 -7 106.5 -21s52.833 -33.333 71.5 -58s32.167 -53.834 40.5 -87.501s12.5 -69.834 12.5 -108.501h-358c-0.666992 -21.333 2.33301 -41.833 9 -61.5s16.5 -37.167 29.5 -52.5s28.667 -27.666 47 -36.999
s38.833 -14 61.5 -14c32.667 0 59.334 9.66699 80.001 29s34.667 44.333 42 75zM258.997 426.001c-27.333 0 -49.833 -6 -67.5 -18s-31.667 -27.333 -42 -46s-17.5 -38.834 -21.5 -60.501s-6 -42.5 -6 -62.5s2 -40.833 6 -62.5s11.167 -41.834 21.5 -60.501
s24.333 -34 42 -46s40.167 -18 67.5 -18s49.833 6 67.5 18s31.667 27.333 42 46s17.5 38.834 21.5 60.501s6 42.5 6 62.5s-2 40.833 -6 62.5s-11.167 41.834 -21.5 60.501s-24.333 34 -42 46s-40.167 18 -67.5 18zM747.997 279.001c-2 18.667 -6.5 36.832 -13.5 54.499
s-16.5 33.334 -28.5 47.001s-26 24.667 -42 33s-34 12.5 -54 12.5c-18.667 0 -36 -4.33301 -52 -13s-30 -20 -42 -34s-21.333 -29.667 -28 -47s-10 -35 -10 -53h270z" />
    <glyph glyph-name="Scaron" unicode="&#x160;" horiz-adv-x="667" 
d="M519 503c-1.33301 26 -6.99414 48.499 -16.9941 67.499s-23.333 34.667 -40 47s-35.834 21.5 -57.501 27.5s-44.834 9 -69.501 9c-16.667 0 -34.334 -1.66699 -53.001 -5s-35.834 -9 -51.501 -17s-28.667 -19 -39 -33s-15.5 -31.333 -15.5 -52
c0 -23.333 6.5 -42.166 19.5 -56.499s30 -26 51 -35s45.167 -16.333 72.5 -22l83 -18c28 -6.33301 55.667 -14 83 -23s51.5 -21.333 72.5 -37s38 -35.667 51 -60s19.5 -55.166 19.5 -92.499c0 -38 -8 -70.833 -24 -98.5s-36.833 -50.5 -62.5 -68.5
s-54.834 -31.5 -87.501 -40.5s-66 -13.5 -100 -13.5c-42 0 -81.5 4.5 -118.5 13.5s-69.5 23.333 -97.5 43s-50.833 45.334 -68.5 77.001s-27.834 70.167 -30.501 115.5l102 9c2.66699 -64.667 22.667 -111.167 60 -139.5s87 -42.5 149 -42.5c22.667 0 44.5 2.66699 65.5 8
s39.667 13.666 56 24.999s29.5 26 39.5 44s15 39.667 15 65c0 24.667 -6.5 44.5 -19.5 59.5s-30 27.333 -51 37s-45.167 17.5 -72.5 23.5l-83 18c-28 6 -55.667 13 -83 21s-51.5 19 -72.5 33s-38 31.667 -51 53s-19.5 48.666 -19.5 81.999c0 34.667 7.5 64.667 22.5 90
s34.667 46.333 59 63s51.666 29.167 81.999 37.5s60.833 12.5 91.5 12.5c36.667 0 71.334 -4.33301 104.001 -13s61.667 -22 87 -40s46.333 -41 63 -69s27.667 -61.333 33 -100zM188.006 901.999h80l65 -95l66 95h81l-101 -141h-92z" />
    <glyph glyph-name="scaron" unicode="&#x161;" horiz-adv-x="481" 
d="M119 168c0 -22 4.00098 -40.499 12.001 -55.499s18.5 -27 31.5 -36s27.5 -15.333 43.5 -19s32.333 -5.5 49 -5.5c9.33301 0 20.166 1 32.499 3s24 6 35 12s20.333 14.333 28 25s11.5 24.667 11.5 42c0 20 -7.66699 34.833 -23 44.5s-34.666 17.334 -57.999 23.001
s-48.333 10.834 -75 15.501s-51.667 11.667 -75 21s-42.666 22.666 -57.999 39.999s-23 41.666 -23 72.999c0 24 5.33301 44.833 16 62.5s24.667 32.167 42 43.5s36.666 19.666 57.999 24.999s42.666 8 63.999 8c16 0 35.833 -2.33301 59.5 -7s46.167 -13 67.5 -25
s39.666 -28 54.999 -48s23 -45.333 23 -76l-82 -11c0 17.333 -3.33301 32.5 -10 45.5s-15.5 23.667 -26.5 32s-23.667 14.666 -38 18.999s-29.166 6.5 -44.499 6.5c-11.333 0 -23 -1 -35 -3s-23 -5.66699 -33 -11s-18.167 -12.5 -24.5 -21.5s-9.5 -20.833 -9.5 -35.5
c0 -18 7.83301 -31.5 23.5 -40.5s35.334 -16.5 59.001 -22.5s49.167 -11.667 76.5 -17s52.833 -13 76.5 -23s43.334 -24.167 59.001 -42.5s23.5 -43.166 23.5 -74.499c0 -25.333 -5.83301 -47.166 -17.5 -65.499s-27.334 -33.5 -47.001 -45.5s-41.834 -21 -66.501 -27
s-50 -9 -76 -9s-51.167 3.16699 -75.5 9.5s-46.166 16.166 -65.499 29.499s-35.333 30.833 -48 52.5s-20.334 47.5 -23.001 77.5zM95.001 714.001h80l65 -95l66 95h81l-101 -141h-92z" />
    <glyph glyph-name="Ydieresis" unicode="&#x178;" horiz-adv-x="628" 
d="M267 328l-256 384h113l190 -295l190 295h113l-256 -384v-328h-94v328zM190 875h88v-100h-88v100zM350 875h88v-100h-88v100z" />
    <glyph glyph-name="florin" unicode="&#x192;" 
d="M65 -138c16 -6.66699 34.3311 -9.99707 54.998 -9.99707c12.667 0 23 1.83301 31 5.5s14.667 9.66699 20 18s9.5 19.166 12.5 32.499s5.5 29.666 7.5 48.999l36 312h-111l5 64h112l24 210c2 20 5.5 38.667 10.5 56s12.167 32.5 21.5 45.5s21.5 23.167 36.5 30.5
s33.833 11 56.5 11c28 0 56 -4.66699 84 -14l-12 -71c-10.667 3.33301 -20.5 5.66602 -29.5 6.99902s-19.833 2 -32.5 2c-8.66699 0 -16.167 -1.16699 -22.5 -3.5s-11.833 -7 -16.5 -14s-8.66699 -16.667 -12 -29s-6 -28.5 -8 -48.5l-20 -182h112l-4 -64h-116l-36 -314
c-4 -34 -9.16699 -62.333 -15.5 -85s-14.666 -41 -24.999 -55s-23.166 -24 -38.499 -30s-34 -9 -56 -9c-12 0 -24.667 1 -38 3s-26 5 -38 9z" />
    <glyph glyph-name="circumflex" unicode="&#x2c6;" horiz-adv-x="204" 
d="M55 723h92l101 -141h-81l-66 95l-66 -95h-79z" />
    <glyph glyph-name="tilde" unicode="&#x2dc;" horiz-adv-x="204" 
d="M-68 591c2.66699 30 12.6689 55.502 30.002 76.502s42 31.5 74 31.5c13.333 0 26.333 -1.83301 39 -5.5s24.667 -7.83398 36 -12.501c11.333 -5.33301 22.166 -9.83301 32.499 -13.5s19.166 -5.5 26.499 -5.5c15.333 0 28.166 3.66699 38.499 11s15.5 18.666 15.5 33.999
h48c-2 -14 -5.5 -27.5 -10.5 -40.5s-11.833 -24.667 -20.5 -35s-19.167 -18.5 -31.5 -24.5s-26.166 -9 -41.499 -9c-10 0 -21.5 2 -34.5 6s-26.167 8.66699 -39.5 14c-13.333 4.66699 -26 8.66699 -38 12s-22.667 5 -32 5c-11.333 0 -21.5 -4.66699 -30.5 -14
s-13.5 -19.333 -13.5 -30h-48z" />
    <glyph glyph-name="endash" unicode="&#x2013;" horiz-adv-x="500" 
d="M0 292h500v-76h-500v76z" />
    <glyph glyph-name="emdash" unicode="&#x2014;" horiz-adv-x="1000" 
d="M130 292h740v-76h-740v76z" />
    <glyph glyph-name="quoteleft" unicode="&#x2018;" horiz-adv-x="278" 
d="M88 557c0 6.66699 0.832031 16.1689 2.49902 28.502s4 25.666 7 39.999s6.83301 29.166 11.5 44.499s10 29.333 16 42h47c-9.33301 -29.333 -15.666 -55.5 -18.999 -78.5s-5 -48.5 -5 -76.5h42v-113h-102v113z" />
    <glyph glyph-name="quoteright" unicode="&#x2019;" horiz-adv-x="278" 
d="M88 712l102.001 -0.00195312v-113c0 -6.66699 -0.833008 -16.167 -2.5 -28.5s-4 -25.666 -7 -39.999s-6.83301 -29.166 -11.5 -44.499s-10 -29.333 -16 -42h-47c9.33301 29.333 15.666 55.5 18.999 78.5s5 48.5 5 76.5h-42v113z" />
    <glyph glyph-name="quotesinglbase" unicode="&#x201a;" horiz-adv-x="278" 
d="M88 113l102.001 -0.00195312v-113c0 -6.66699 -0.833008 -16.167 -2.5 -28.5s-4 -25.666 -7 -39.999s-6.83301 -29.166 -11.5 -44.499s-10 -29.333 -16 -42h-47c9.33301 29.333 15.666 55.5 18.999 78.5s5 48.5 5 76.5h-42v113z" />
    <glyph glyph-name="quotedblleft" unicode="&#x201c;" horiz-adv-x="389" 
d="M220 557c0 6.66699 0.832031 16.1689 2.49902 28.502s4 25.666 7 39.999s6.83301 29.166 11.5 44.499s10 29.333 16 42h47c-9.33301 -29.333 -15.666 -55.5 -18.999 -78.5s-5 -48.5 -5 -76.5h42v-113h-102v113zM66.999 557.002
c0 6.66699 0.832031 16.1689 2.49902 28.502s4 25.666 7 39.999s6.83301 29.166 11.5 44.499s10 29.333 16 42h47c-9.33301 -29.333 -15.666 -55.5 -18.999 -78.5s-5 -48.5 -5 -76.5h42v-113h-102v113z" />
    <glyph glyph-name="quotedblright" unicode="&#x201d;" horiz-adv-x="389" 
d="M67 712l102.001 -0.00195312v-113c0 -6.66699 -0.833008 -16.167 -2.5 -28.5s-4 -25.666 -7 -39.999s-6.83301 -29.166 -11.5 -44.499s-10 -29.333 -16 -42h-47c9.33301 29.333 15.666 55.5 18.999 78.5s5 48.5 5 76.5h-42v113zM220.001 711.998l102.001 -0.00195312
v-113c0 -6.66699 -0.833008 -16.167 -2.5 -28.5s-4 -25.666 -7 -39.999s-6.83301 -29.166 -11.5 -44.499s-10 -29.333 -16 -42h-47c9.33301 29.333 15.666 55.5 18.999 78.5s5 48.5 5 76.5h-42v113z" />
    <glyph glyph-name="quotedblbase" unicode="&#x201e;" horiz-adv-x="389" 
d="M67 113l102.001 -0.00195312v-113c0 -6.66699 -0.833008 -16.167 -2.5 -28.5s-4 -25.666 -7 -39.999s-6.83301 -29.166 -11.5 -44.499s-10 -29.333 -16 -42h-47c9.33301 29.333 15.666 55.5 18.999 78.5s5 48.5 5 76.5h-42v113zM220.001 112.998l102.001 -0.00195312
v-113c0 -6.66699 -0.833008 -16.167 -2.5 -28.5s-4 -25.666 -7 -39.999s-6.83301 -29.166 -11.5 -44.499s-10 -29.333 -16 -42h-47c9.33301 29.333 15.666 55.5 18.999 78.5s5 48.5 5 76.5h-42v113z" />
    <glyph glyph-name="dagger" unicode="&#x2020;" 
d="M237 408h-176v76h176v228h82v-228h176v-76h-176v-524h-82v524z" />
    <glyph glyph-name="daggerdbl" unicode="&#x2021;" 
d="M237 95h-176v76h176v263h-176v76h176v202h82v-202h176v-76h-176v-263h176v-76h-176v-211h-82v211z" />
    <glyph glyph-name="bullet" unicode="&#x2022;" horiz-adv-x="500" 
d="M72 356c0 24.667 4.66699 47.834 14 69.501s22 40.5 38 56.5s34.833 28.667 56.5 38s44.834 14 69.501 14s47.834 -4.66699 69.501 -14s40.5 -22 56.5 -38s28.667 -34.833 38 -56.5s14 -44.834 14 -69.501s-4.66699 -47.834 -14 -69.501s-22 -40.5 -38 -56.5
s-34.833 -28.667 -56.5 -38s-44.834 -14 -69.501 -14s-47.834 4.66699 -69.501 14s-40.5 22 -56.5 38s-28.667 34.833 -38 56.5s-14 44.834 -14 69.501z" />
    <glyph glyph-name="ellipsis" unicode="&#x2026;" horiz-adv-x="1000" 
d="M116 113h102v-113h-102v113zM449 113h102v-113h-102v113zM782 113h102v-113h-102v113z" />
    <glyph glyph-name="perthousand" unicode="&#x2030;" horiz-adv-x="1000" 
d="M695 164c0 18.667 2.33301 38.167 7 58.5s12.834 38.666 24.501 54.999s26.834 29.833 45.501 40.5s42 16 70 16s51.333 -5.33301 70 -16s33.834 -24.167 45.501 -40.5s19.834 -34.666 24.501 -54.999s7 -39.833 7 -58.5c0 -19.333 -2.33301 -39 -7 -59
s-12.834 -38.167 -24.501 -54.5s-26.834 -29.833 -45.501 -40.5s-42 -16 -70 -16s-51.333 5.33301 -70 16s-33.834 24.167 -45.501 40.5s-19.834 34.5 -24.501 54.5s-7 39.667 -7 59zM771 164c0 -13.333 1.16699 -26.333 3.5 -39s6.33301 -24 12 -34s13 -18 22 -24
s20.167 -9 33.5 -9s24.5 3 33.5 9s16.333 14 22 24s9.66699 21.333 12 34s3.5 25.667 3.5 39c0 12.667 -1.16699 25.334 -3.5 38.001s-6.33301 24 -12 34s-13 18.167 -22 24.5s-20.167 9.5 -33.5 9.5s-24.5 -3.16699 -33.5 -9.5s-16.333 -14.5 -22 -24.5
s-9.66699 -21.333 -12 -34s-3.5 -25.334 -3.5 -38.001zM424 164c0 -13.333 1.16699 -26.333 3.5 -39s6.33301 -24 12 -34s13 -18 22 -24s20.167 -9 33.5 -9s24.5 3 33.5 9s16.333 14 22 24s9.66699 21.333 12 34s3.5 25.667 3.5 39c0 12.667 -1.16699 25.334 -3.5 38.001
s-6.33301 24 -12 34s-13 18.167 -22 24.5s-20.167 9.5 -33.5 9.5s-24.5 -3.16699 -33.5 -9.5s-16.333 -14.5 -22 -24.5s-9.66699 -21.333 -12 -34s-3.5 -25.334 -3.5 -38.001zM348 164c0 18.667 2.33301 38.167 7 58.5s12.834 38.666 24.501 54.999
s26.834 29.833 45.501 40.5s42 16 70 16s51.333 -5.33301 70 -16s33.834 -24.167 45.501 -40.5s19.834 -34.666 24.501 -54.999s7 -39.833 7 -58.5c0 -19.333 -2.33301 -39 -7 -59s-12.834 -38.167 -24.501 -54.5s-26.834 -29.833 -45.501 -40.5s-42 -16 -70 -16
s-51.333 5.33301 -70 16s-33.834 24.167 -45.501 40.5s-19.834 34.5 -24.501 54.5s-7 39.667 -7 59zM11 516c0 18.667 2.33301 38.167 7 58.5s12.834 38.666 24.501 54.999s26.834 29.833 45.501 40.5s42 16 70 16s51.333 -5.33301 70 -16s33.834 -24.167 45.501 -40.5
s19.834 -34.666 24.501 -54.999s7 -39.833 7 -58.5c0 -19.333 -2.33301 -39 -7 -59s-12.834 -38.167 -24.501 -54.5s-26.834 -29.833 -45.501 -40.5s-42 -16 -70 -16s-51.333 5.33301 -70 16s-33.834 24.167 -45.501 40.5s-19.834 34.5 -24.501 54.5s-7 39.667 -7 59z
M87 516c0 -13.333 1.16699 -26.333 3.5 -39s6.33301 -24 12 -34s13 -18 22 -24s20.167 -9 33.5 -9s24.5 3 33.5 9s16.333 14 22 24s9.66699 21.333 12 34s3.5 25.667 3.5 39c0 12.667 -1.16699 25.334 -3.5 38.001s-6.33301 24 -12 34s-13 18.167 -22 24.5
s-20.167 9.5 -33.5 9.5s-24.5 -3.16699 -33.5 -9.5s-16.333 -14.5 -22 -24.5s-9.66699 -21.333 -12 -34s-3.5 -25.334 -3.5 -38.001zM514 712h69l-454 -744h-69z" />
    <glyph glyph-name="guilsinglleft" unicode="&#x2039;" horiz-adv-x="296" 
d="M216 415v-93l-77 -68l77 -68v-93l-136 117v88z" />
    <glyph glyph-name="guilsinglright" unicode="&#x203a;" horiz-adv-x="296" 
d="M216 210l-136 -117v93l77 68l-77 68v93l136 -117v-88z" />
    <glyph glyph-name="trademark" unicode="&#x2122;" horiz-adv-x="990" 
d="M199 654h-129v58h322v-58h-129v-354h-64v354zM452 712h101l126 -318l126 318h101v-412h-64v354h-2l-143 -354h-36l-143 354h-2v-354h-64v412z" />
    <glyph glyph-name=".null" horiz-adv-x="0" 
 />
    <glyph glyph-name="nonmarkingreturn" horiz-adv-x="278" 
 />
    </font>
</defs>
</svg>
